<?xml version="1.0" encoding="utf-8"?>
<svg version="1.1" xmlns:xlink="http://www.w3.org/1999/xlink" width="38px" height="29px" xmlns="http://www.w3.org/2000/svg">
  <g transform="matrix(1 0 0 1 -162 -528 )">
    <path d="M 32.53779429987608 16.568199532346064  C 32.553490293267245 16.598337230449467  32.561338289962826 16.643543777604574  32 16.70381917381138  L 32 27.553390491036634  C 32.561338289962826 27.945180566380877  32.4122263527468 28.284229670044166  32.114002478314745 28.5705378020265  C 31.8157786038827 28.856845934008835  31.462618752581584 29  31.054522924411398 29  L 22.01363073110285 29  L 22.01363073110285 20.3203429462198  L 15.98636926889715 20.3203429462198  L 15.98636926889715 29  L 6.9454770755886 29  C 6.5373812474184225 29  6.184221396117308 28.856845934008835  5.885997521685254 28.5705378020265  C 5.587773647253202 28.284229670044166  5.438661710037175 27.945180566380877  6 27.553390491036634  L 6 16.70381917381138  C 5.438661710037175 16.688750324759678  5.442585708384965 16.666147051182126  5.450433705080545 16.63600935307872  C 5.4582817017761265 16.605871654975317  5.462205700123916 16.583268381397765  5.462205700123916 16.568199532346064  L 19 5.854247856586126  L 32.53779429987608 16.568199532346064  Z M 37.97645600991326 14.613016367887765  C 37.99215200330442 14.816445830085737  37.93721602643536 14.993504806443232  37.81164807930607 15.144193296960252  L 36.35192069392813 16.816835541699145  C 36.226352746798845 16.95245518316446  36.061544816191656 17.035333852948817  35.85749690210657 17.065471551052223  L 35.786864931846345 17.065471551052223  C 35.58281701776126 17.065471551052223  35.418009087154076 17.012730579371265  35.292441140024785 16.90724863600935  L 19 3.8651597817614967  L 2.707558859975217 16.90724863600935  C 2.519206939281289 17.027799428422963  2.3308550185873607 17.08054040010392  2.1425030978934325 17.065471551052223  C 1.938455183808344 17.035333852948817  1.7736472532011567 16.95245518316446  1.648079306071871 16.816835541699145  L 0.18835192069392814 15.144193296960252  C 0.06278397356464274 14.993504806443232  0.007847996695580395 14.816445830085737  0.023543990086741018 14.613016367887765  C 0.03923998347790181 14.40958690568979  0.12556794712928548 14.247596778383995  0.28252788104089216 14.127045985970382  L 17.210656753407683 0.5876851130163687  C 17.712928541924825 0.1958950376721197  18.309376290788933 0  19 0  C 19.690623709211074 0  20.28707145807518 0.1958950376721197  20.789343246592317 0.5876851130163687  L 26.534076827757126 5.198752922837099  L 26.534076827757126 0.79111457521434  C 26.534076827757126 0.5801506884905139  26.604708798017345 0.40685892439594584  26.745972738537795 0.2712392829306327  C 26.88723667905824 0.13561964146531635  27.06774060305659 0.06780982073265818  27.28748451053284 0.06780982073265818  L 31.807930607187114 0.06780982073265818  C 32.02767451466337 0.06780982073265818  32.20817843866171 0.13561964146531635  32.34944237918216 0.2712392829306327  C 32.4907063197026 0.40685892439594584  32.561338289962826 0.5801506884905139  32.561338289962826 0.79111457521434  L 32.561338289962826 10.013250194855807  L 37.71747211895911 14.127045985970382  C 37.874432052870716 14.247596778383995  37.9607600165221 14.40958690568979  37.97645600991326 14.613016367887765  Z " fill-rule="nonzero" fill="#000000" stroke="none" transform="matrix(1 0 0 1 162 528 )" />
  </g>
</svg>