<?xml version="1.0" encoding="utf-8"?>
<svg version="1.1" xmlns:xlink="http://www.w3.org/1999/xlink" width="34px" height="32px" xmlns="http://www.w3.org/2000/svg">
  <g transform="matrix(1 0 0 1 -105 -1411 )">
    <path d="M 22.467447916666664 26.479166666666668  C 22.600260416666664 26.354166666666668  22.666666666666664 26.194444444444443  22.666666666666664 26  L 22.666666666666664 22.666666666666664  C 22.666666666666664 22.47222222222222  22.600260416666664 22.3125  22.467447916666664 22.1875  C 22.334635416666664 22.0625  22.164930555555554 22  21.958333333333336 22  L 19.833333333333336 22  L 19.833333333333336 11.333333333333332  C 19.833333333333336 11.13888888888889  19.766927083333336 10.979166666666668  19.634114583333336 10.854166666666668  C 19.501302083333336 10.729166666666668  19.331597222222225 10.666666666666668  19.125 10.666666666666668  L 12.041666666666668 10.666666666666668  C 11.835069444444446 10.666666666666668  11.665364583333332 10.729166666666668  11.532552083333332 10.854166666666668  C 11.399739583333332 10.979166666666668  11.333333333333332 11.13888888888889  11.333333333333332 11.333333333333332  L 11.333333333333332 14.666666666666668  C 11.333333333333332 14.86111111111111  11.399739583333332 15.020833333333332  11.532552083333332 15.145833333333332  C 11.665364583333332 15.270833333333332  11.835069444444446 15.333333333333332  12.041666666666668 15.333333333333332  L 14.166666666666668 15.333333333333332  L 14.166666666666668 22  L 12.041666666666668 22  C 11.835069444444446 22  11.665364583333332 22.0625  11.532552083333332 22.1875  C 11.399739583333332 22.3125  11.333333333333332 22.47222222222222  11.333333333333332 22.666666666666664  L 11.333333333333332 26  C 11.333333333333332 26.194444444444443  11.399739583333332 26.354166666666668  11.532552083333332 26.479166666666668  C 11.665364583333332 26.604166666666668  11.835069444444446 26.666666666666668  12.041666666666668 26.666666666666668  L 21.958333333333336 26.666666666666668  C 22.164930555555554 26.666666666666668  22.334635416666664 26.604166666666668  22.467447916666664 26.479166666666668  Z M 19.634114583333336 7.8125  C 19.766927083333336 7.6875  19.833333333333336 7.527777777777775  19.833333333333336 7.333333333333332  L 19.833333333333336 4  C 19.833333333333336 3.8055555555555536  19.766927083333336 3.645833333333332  19.634114583333336 3.520833333333332  C 19.501302083333336 3.395833333333332  19.331597222222225 3.333333333333332  19.125 3.333333333333332  L 14.875 3.333333333333332  C 14.668402777777779 3.333333333333332  14.498697916666668 3.395833333333332  14.365885416666668 3.520833333333332  C 14.233072916666668 3.645833333333332  14.166666666666668 3.8055555555555536  14.166666666666668 4  L 14.166666666666668 7.333333333333332  C 14.166666666666668 7.527777777777775  14.233072916666668 7.6875  14.365885416666668 7.8125  C 14.498697916666668 7.9375  14.668402777777779 8  14.875 8  L 19.125 8  C 19.331597222222225 8  19.501302083333336 7.9375  19.634114583333336 7.8125  Z M 31.720052083333336 7.96875  C 33.24001736111111 10.420138888888886  34 13.097222222222218  34 16  C 34 18.90277777777778  33.24001736111111 21.579861111111107  31.720052083333336 24.03125  C 30.200086805555557 26.48263888888889  28.137803819444446 28.42361111111111  25.533203125 29.854166666666668  C 22.928602430555557 31.284722222222225  20.08420138888889 32  17 32  C 13.915798611111112 32  11.071397569444445 31.284722222222225  8.466796875 29.854166666666668  C 5.862196180555556 28.42361111111111  3.7999131944444446 26.48263888888889  2.279947916666667 24.03125  C 0.7599826388888888 21.579861111111107  0 18.90277777777778  0 16  C 0 13.097222222222218  0.7599826388888888 10.420138888888886  2.279947916666667 7.96875  C 3.7999131944444446 5.517361111111111  5.862196180555556 3.5763888888888857  8.466796875 2.145833333333332  C 11.071397569444445 0.715277777777775  13.915798611111112 0  17 0  C 20.08420138888889 0  22.928602430555557 0.715277777777775  25.533203125 2.145833333333332  C 28.137803819444446 3.5763888888888857  30.200086805555557 5.517361111111111  31.720052083333336 7.96875  Z " fill-rule="nonzero" fill="#63a103" stroke="none" transform="matrix(1 0 0 1 105 1411 )" />
  </g>
</svg>