<?xml version="1.0" encoding="utf-8"?>
<svg version="1.1" xmlns:xlink="http://www.w3.org/1999/xlink" width="27px" height="34px" xmlns="http://www.w3.org/2000/svg">
  <g transform="matrix(1 0 0 1 -516 -844 )">
    <path d="M 21.88612412177986 21.233389168062534  C 22.365632318501174 19.885538805136797  22.605386416861826 18.47124511446119  22.605386416861826 16.990508096035732  C 22.605386416861826 15.509771077610273  22.365632318501174 14.095477386934672  21.88612412177986 12.747627024008935  C 21.40661592505855 11.399776661083193  20.758489461358312 10.235436441466588  19.941744730679158 9.254606365159129  C 19.125 8.273776288851664  18.155444964871194 7.495440163781869  17.03307962529274 6.91959798994975  C 15.910714285714286 6.34375581611762  14.733021077283373 6.055834729201565  13.5 6.055834729201565  C 12.266978922716628 6.055834729201565  11.089285714285714 6.34375581611762  9.966920374707259 6.91959798994975  C 8.844555035128806 7.495440163781869  7.875000000000001 8.273776288851664  7.058255269320843 9.254606365159129  C 6.241510538641687 10.235436441466588  5.5933840749414525 11.399776661083193  5.11387587822014 12.747627024008935  C 4.63436768149883 14.095477386934672  4.394613583138173 15.509771077610273  4.394613583138173 16.990508096035732  C 4.394613583138173 18.47124511446119  4.63436768149883 19.885538805136797  5.11387587822014 21.233389168062534  C 5.5933840749414525 22.581239530988274  6.241510538641687 23.745579750604875  7.058255269320843 24.726409826912338  C 7.875000000000001 25.707239903219804  8.844555035128806 26.4855760282896  9.966920374707259 27.061418202121722  C 11.089285714285714 27.63726037595384  12.266978922716628 27.925181462869904  13.5 27.925181462869904  C 14.733021077283373 27.925181462869904  15.910714285714286 27.63726037595384  17.03307962529274 27.061418202121722  C 18.155444964871194 26.4855760282896  19.125 25.707239903219804  19.941744730679158 24.726409826912338  C 20.758489461358312 23.745579750604875  21.40661592505855 22.581239530988274  21.88612412177986 21.233389168062534  Z M 26.905152224824356 21.698492462311556  C 27 21.85036292573981  27.021077283372364 22.033873069048948  26.96838407494145 22.249022892238973  C 26.926229508196723 22.43886097152429  26.820843091334893 22.56541969104783  26.652224824355972 22.628699050809605  L 22.036299765807964 24.45114461194863  L 22.036299765807964 30.260189838079285  C 22.036299765807964 30.46268378931696  21.96779859484778 30.62721012469756  21.8307962529274 30.753768844221106  C 21.67271662763466 30.88032756374465  21.519906323185015 30.90563930764936  21.372365339578455 30.829704075935233  L 16.756440281030446 29.04522613065327  L 13.911007025761124 33.75321049692909  C 13.8056206088993 33.9177368323097  13.668618266978923 34  13.5 34  C 13.331381733021079 34  13.194379391100703 33.9177368323097  13.088992974238876 33.75321049692909  L 10.243559718969554 29.04522613065327  L 5.6276346604215455 30.829704075935233  C 5.480093676814987 30.90563930764936  5.32728337236534 30.88032756374465  5.169203747072599 30.753768844221106  C 5.032201405152225 30.62721012469756  4.9637002341920375 30.46268378931696  4.9637002341920375 30.260189838079285  L 4.9637002341920375 24.45114461194863  L 0.3477751756440281 22.628699050809605  C 0.1791569086651053 22.56541969104783  0.07377049180327866 22.43886097152429  0.03161592505854801 22.249022892238973  C -0.021077283372365262 22.033873069048948  0 21.85036292573981  0.09484777517564402 21.698492462311556  L 2.940281030444965 16.990508096035732  L 0.09484777517564402 12.28252372975991  C 0 12.117997394379302  -0.021077283372365262 11.934487251070161  0.03161592505854801 11.731993299832496  C 0.07377049180327866 11.54215522054718  0.1791569086651053 11.415596501023636  0.3477751756440281 11.352317141261867  L 4.9637002341920375 9.529871580122835  L 4.9637002341920375 3.7208263539921833  C 4.9637002341920375 3.5183324027545106  5.032201405152225 3.353806067373902  5.169203747072599 3.227247347850361  C 5.32728337236534 3.100688628326817  5.480093676814987 3.0753768844221088  5.6276346604215455 3.151312116136237  L 10.243559718969554 4.9357900614182  L 13.088992974238876 0.22780569514237703  C 13.183840749414522 0.07593523171412442  13.320843091334895 0  13.5 0  C 13.679156908665105 0  13.81615925058548 0.07593523171412442  13.911007025761124 0.22780569514237703  L 16.756440281030446 4.9357900614182  L 21.372365339578455 3.151312116136237  C 21.519906323185015 3.0753768844221088  21.67271662763466 3.100688628326817  21.8307962529274 3.227247347850361  C 21.96779859484778 3.353806067373902  22.036299765807964 3.5183324027545106  22.036299765807964 3.7208263539921833  L 22.036299765807964 9.529871580122835  L 26.652224824355972 11.352317141261867  C 26.820843091334893 11.415596501023636  26.926229508196723 11.54215522054718  26.96838407494145 11.731993299832496  C 27.021077283372364 11.934487251070161  27 12.117997394379302  26.905152224824356 12.28252372975991  L 24.059718969555036 16.990508096035732  L 26.905152224824356 21.698492462311556  Z " fill-rule="nonzero" fill="#63a103" stroke="none" transform="matrix(1 0 0 1 516 844 )" />
  </g>
</svg>