<?xml version="1.0" encoding="utf-8"?>
<svg version="1.1" xmlns:xlink="http://www.w3.org/1999/xlink" width="27px" height="34px" xmlns="http://www.w3.org/2000/svg">
  <g transform="matrix(1 0 0 1 -516 -747 )">
    <path d="M 12.51123046875 27.22078804347826  C 13.17041015625 26.643342391304348  13.5 25.94655797101449  13.5 25.130434782608695  C 13.5 24.57608695652174  13.324218750000002 24.04483695652174  12.97265625 23.536684782608695  C 12.955078125000002 23.52128623188406  12.81884765625 23.348052536231883  12.56396484375 23.016983695652172  C 12.309082031250002 22.685914855072465  12.084960937500002 22.393342391304348  11.8916015625 22.139266304347828  C 11.6982421875 21.885190217391305  11.478515625000002 21.546422101449274  11.232421875 21.12296195652174  C 10.986328125 20.699501811594203  10.8017578125 20.3106884057971  10.6787109375 19.956521739130434  C 10.608398437500002 19.710144927536227  10.423828125000002 19.58695652173913  10.125 19.58695652173913  C 9.826171875 19.58695652173913  9.6416015625 19.710144927536227  9.5712890625 19.956521739130434  C 9.448242187500002 20.3106884057971  9.263671875000002 20.699501811594203  9.017578125 21.12296195652174  C 8.771484375 21.546422101449274  8.551757812500002 21.885190217391305  8.3583984375 22.139266304347828  C 8.1650390625 22.393342391304348  7.940917968750001 22.685914855072465  7.68603515625 23.016983695652172  C 7.431152343750001 23.348052536231883  7.294921875000001 23.52128623188406  7.27734375 23.536684782608695  C 6.925781250000001 24.04483695652174  6.75 24.57608695652174  6.75 25.130434782608695  C 6.75 25.94655797101449  7.07958984375 26.643342391304348  7.73876953125 27.22078804347826  C 8.39794921875 27.798233695652172  9.193359375 28.08695652173913  10.125 28.08695652173913  C 11.056640625000002 28.08695652173913  11.85205078125 27.798233695652172  12.51123046875 27.22078804347826  Z M 24.8642578125 15.822010869565217  C 26.2880859375 17.777626811594203  27 19.894927536231883  27 22.17391304347826  C 27 25.438405797101446  25.681640625 28.22554347826087  23.044921875 30.535326086956523  C 20.408203125 32.84510869565217  17.2265625 34  13.5 34  C 9.7734375 34  6.591796875000001 32.84510869565217  3.955078125 30.535326086956523  C 1.318359375 28.22554347826087  0 25.438405797101446  0 22.17391304347826  C 0 19.941123188405797  0.7119140625 17.823822463768114  2.1357421875 15.822010869565217  C 2.2412109375 15.683423913043477  2.7905273437500004 14.986639492753621  3.78369140625 13.731657608695652  C 4.776855468750001 12.476675724637682  5.66455078125 11.314085144927535  6.44677734375 10.243885869565217  C 7.229003906250001 9.173686594202895  8.103515625000002 7.803215579710143  9.0703125 6.132472826086955  C 10.037109375000002 4.461730072463764  10.766601562500002 2.9103260869565224  11.2587890625 1.4782608695652164  C 11.4169921875 1.0163043478260858  11.715820312500002 0.6544384057970982  12.1552734375 0.3926630434782612  C 12.594726562500002 0.13088768115941662  13.042968750000002 0  13.5 0  C 13.957031250000002 0  14.40966796875 0.13088768115941662  14.85791015625 0.3926630434782612  C 15.30615234375 0.6544384057970982  15.600585937500002 1.0163043478260858  15.7412109375 1.4782608695652164  C 16.233398437500004 2.9103260869565224  16.962890625 4.461730072463764  17.9296875 6.132472826086955  C 18.896484375000004 7.803215579710143  19.77099609375 9.173686594202895  20.55322265625 10.243885869565217  C 21.335449218750004 11.314085144927535  22.22314453125 12.476675724637682  23.21630859375 13.731657608695652  C 24.209472656250004 14.986639492753621  24.7587890625 15.683423913043477  24.8642578125 15.822010869565217  Z " fill-rule="nonzero" fill="#63a103" stroke="none" transform="matrix(1 0 0 1 516 747 )" />
  </g>
</svg>