<?xml version="1.0" encoding="utf-8"?>
<svg version="1.1" xmlns:xlink="http://www.w3.org/1999/xlink" width="16px" height="13px" xmlns="http://www.w3.org/2000/svg">
  <g transform="matrix(1 0 0 1 -260 -540 )">
    <path d="M 15.72508591065292 6.200400801603207  C 15.908361970217642 6.287241148964595  16 6.387107548430193  16 6.5  C 16 6.612892451569805  15.908361970217642 6.712758851035403  15.72508591065292 6.799599198396793  L 2.9140893470790377 12.869739478957916  C 2.7308132875143185 12.956579826319306  2.520045819014891 13  2.281786941580756 13  C 2.043528064146621 13  1.8327605956471937 12.956579826319306  1.6494845360824741 12.869739478957916  L 0.27491408934707906 12.218436873747496  C 0.09163802978235974 12.131596526386105  0 12.031730126920507  0 11.918837675350701  C 0 11.805945223780894  0.09163802978235974 11.706078824315298  0.27491408934707906 11.619238476953909  L 11.079037800687285 6.5  L 0.27491408934707906 1.3807615230460921  C 0.09163802978235974 1.293921175684702  0 1.1940547762191045  0 1.081162324649299  C 0 0.9682698730794906  0.09163802978235974 0.8684034736138929  0.27491408934707906 0.7815631262525043  L 1.6494845360824741 0.1302605210420843  C 1.8327605956471937 0.043420173680694285  2.043528064146621 0  2.281786941580756 0  C 2.520045819014891 0  2.7308132875143185 0.043420173680694285  2.9140893470790377 0.1302605210420843  L 15.72508591065292 6.200400801603207  Z " fill-rule="nonzero" fill="#000000" stroke="none" transform="matrix(1 0 0 1 260 540 )" />
  </g>
</svg>