<?xml version="1.0" encoding="utf-8"?>
<svg version="1.1" xmlns:xlink="http://www.w3.org/1999/xlink" width="22px" height="34px" xmlns="http://www.w3.org/2000/svg">
  <g transform="matrix(1 0 0 1 -758 -988 )">
    <path d="M 17.83313817330211 21.233389168062534  C 18.22384855581577 19.885538805136797  18.4192037470726 18.47124511446119  18.4192037470726 16.990508096035732  C 18.4192037470726 15.509771077610273  18.22384855581577 14.095477386934672  17.83313817330211 12.747627024008935  C 17.442427790788447 11.399776661083193  16.91432474629196 10.235436441466588  16.248829039812648 9.254606365159129  C 15.583333333333334 8.273776288851664  14.793325526932085 7.495440163781869  13.8788056206089 6.91959798994975  C 12.964285714285715 6.34375581611762  12.004683840749415 6.055834729201565  11 6.055834729201565  C 9.995316159250585 6.055834729201565  9.035714285714285 6.34375581611762  8.1211943793911 6.91959798994975  C 7.206674473067916 7.495440163781869  6.416666666666667 8.273776288851664  5.751170960187354 9.254606365159129  C 5.085675253708041 10.235436441466588  4.557572209211554 11.399776661083193  4.166861826697892 12.747627024008935  C 3.7761514441842317 14.095477386934672  3.5807962529274002 15.509771077610273  3.5807962529274002 16.990508096035732  C 3.5807962529274002 18.47124511446119  3.7761514441842317 19.885538805136797  4.166861826697892 21.233389168062534  C 4.557572209211554 22.581239530988274  5.085675253708041 23.745579750604875  5.751170960187354 24.726409826912338  C 6.416666666666667 25.707239903219804  7.206674473067916 26.4855760282896  8.1211943793911 27.061418202121722  C 9.035714285714285 27.63726037595384  9.995316159250585 27.925181462869904  11 27.925181462869904  C 12.004683840749415 27.925181462869904  12.964285714285715 27.63726037595384  13.8788056206089 27.061418202121722  C 14.793325526932085 26.4855760282896  15.583333333333334 25.707239903219804  16.248829039812648 24.726409826912338  C 16.91432474629196 23.745579750604875  17.442427790788447 22.581239530988274  17.83313817330211 21.233389168062534  Z M 21.92271662763466 21.698492462311556  C 22 21.85036292573981  22.017174082747854 22.033873069048948  21.97423887587822 22.249022892238973  C 21.939890710382517 22.43886097152429  21.85402029664325 22.56541969104783  21.716627634660423 22.628699050809605  L 17.95550351288056 24.45114461194863  L 17.95550351288056 30.260189838079285  C 17.95550351288056 30.46268378931696  17.89968774395004 30.62721012469756  17.788056206088992 30.753768844221106  C 17.65925058548009 30.88032756374465  17.53473848555816 30.90563930764936  17.414519906323186 30.829704075935233  L 13.653395784543326 29.04522613065327  L 11.334894613583138 33.75321049692909  C 11.249024199843875 33.9177368323097  11.137392661982826 34  11 34  C 10.862607338017176 34  10.750975800156128 33.9177368323097  10.665105386416862 33.75321049692909  L 8.346604215456674 29.04522613065327  L 4.585480093676815 30.829704075935233  C 4.465261514441842 30.90563930764936  4.340749414519906 30.88032756374465  4.211943793911007 30.753768844221106  C 4.100312256049961 30.62721012469756  4.044496487119438 30.46268378931696  4.044496487119438 30.260189838079285  L 4.044496487119438 24.45114461194863  L 0.28337236533957844 22.628699050809605  C 0.14597970335675248 22.56541969104783  0.06010928961748631 22.43886097152429  0.02576112412177986 22.249022892238973  C -0.01717408274785318 22.033873069048948  0 21.85036292573981  0.07728337236533958 21.698492462311556  L 2.3957845433255267 16.990508096035732  L 0.07728337236533958 12.28252372975991  C 0 12.117997394379302  -0.01717408274785318 11.934487251070161  0.02576112412177986 11.731993299832496  C 0.06010928961748631 11.54215522054718  0.14597970335675248 11.415596501023636  0.28337236533957844 11.352317141261867  L 4.044496487119438 9.529871580122835  L 4.044496487119438 3.7208263539921833  C 4.044496487119438 3.5183324027545106  4.100312256049961 3.353806067373902  4.211943793911007 3.227247347850361  C 4.340749414519906 3.100688628326817  4.465261514441842 3.0753768844221088  4.585480093676815 3.151312116136237  L 8.346604215456674 4.9357900614182  L 10.665105386416862 0.22780569514237703  C 10.742388758782202 0.07593523171412442  10.854020296643249 0  11 0  C 11.145979703356753 0  11.257611241217798 0.07593523171412442  11.334894613583138 0.22780569514237703  L 13.653395784543326 4.9357900614182  L 17.414519906323186 3.151312116136237  C 17.53473848555816 3.0753768844221088  17.65925058548009 3.100688628326817  17.788056206088992 3.227247347850361  C 17.89968774395004 3.353806067373902  17.95550351288056 3.5183324027545106  17.95550351288056 3.7208263539921833  L 17.95550351288056 9.529871580122835  L 21.716627634660423 11.352317141261867  C 21.85402029664325 11.415596501023636  21.939890710382517 11.54215522054718  21.97423887587822 11.731993299832496  C 22.017174082747854 11.934487251070161  22 12.117997394379302  21.92271662763466 12.28252372975991  L 19.604215456674474 16.990508096035732  L 21.92271662763466 21.698492462311556  Z " fill-rule="nonzero" fill="#63a103" stroke="none" transform="matrix(1 0 0 1 758 988 )" />
  </g>
</svg>