<?xml version="1.0" encoding="utf-8"?>
<svg version="1.1" xmlns:xlink="http://www.w3.org/1999/xlink" width="22px" height="34px" xmlns="http://www.w3.org/2000/svg">
  <g transform="matrix(1 0 0 1 -760 -820 )">
    <path d="M 10.1943359375 27.22078804347826  C 10.7314453125 26.643342391304348  11 25.94655797101449  11 25.130434782608695  C 11 24.57608695652174  10.856770833333334 24.04483695652174  10.5703125 23.536684782608695  C 10.555989583333334 23.52128623188406  10.444986979166668 23.348052536231883  10.2373046875 23.016983695652172  C 10.029622395833334 22.685914855072465  9.847005208333334 22.393342391304348  9.689453125 22.139266304347828  C 9.531901041666668 21.885190217391305  9.352864583333334 21.546422101449274  9.15234375 21.12296195652174  C 8.951822916666668 20.699501811594203  8.801432291666668 20.3106884057971  8.701171875 19.956521739130434  C 8.643880208333334 19.710144927536227  8.493489583333334 19.58695652173913  8.25 19.58695652173913  C 8.006510416666668 19.58695652173913  7.856119791666667 19.710144927536227  7.798828125 19.956521739130434  C 7.698567708333334 20.3106884057971  7.548177083333334 20.699501811594203  7.34765625 21.12296195652174  C 7.147135416666667 21.546422101449274  6.968098958333334 21.885190217391305  6.810546875 22.139266304347828  C 6.652994791666667 22.393342391304348  6.470377604166667 22.685914855072465  6.2626953125 23.016983695652172  C 6.055013020833334 23.348052536231883  5.944010416666667 23.52128623188406  5.9296875 23.536684782608695  C 5.643229166666667 24.04483695652174  5.5 24.57608695652174  5.5 25.130434782608695  C 5.5 25.94655797101449  5.7685546875 26.643342391304348  6.3056640625 27.22078804347826  C 6.8427734375 27.798233695652172  7.490885416666667 28.08695652173913  8.25 28.08695652173913  C 9.009114583333334 28.08695652173913  9.6572265625 27.798233695652172  10.1943359375 27.22078804347826  Z M 20.259765625 15.822010869565217  C 21.419921875 17.777626811594203  22 19.894927536231883  22 22.17391304347826  C 22 25.438405797101446  20.92578125 28.22554347826087  18.77734375 30.535326086956523  C 16.62890625 32.84510869565217  14.036458333333334 34  11 34  C 7.963541666666667 34  5.371093750000001 32.84510869565217  3.22265625 30.535326086956523  C 1.07421875 28.22554347826087  0 25.438405797101446  0 22.17391304347826  C 0 19.941123188405797  0.580078125 17.823822463768114  1.740234375 15.822010869565217  C 1.826171875 15.683423913043477  2.2737630208333335 14.986639492753621  3.0830078125 13.731657608695652  C 3.892252604166667 12.476675724637682  4.615559895833334 11.314085144927535  5.2529296875 10.243885869565217  C 5.890299479166667 9.173686594202895  6.602864583333334 7.803215579710143  7.390625 6.132472826086955  C 8.178385416666668 4.461730072463764  8.772786458333334 2.9103260869565224  9.173828125 1.4782608695652164  C 9.302734375 1.0163043478260858  9.546223958333334 0.6544384057970982  9.904296875 0.3926630434782612  C 10.262369791666668 0.13088768115941662  10.627604166666668 0  11 0  C 11.372395833333334 0  11.7412109375 0.13088768115941662  12.1064453125 0.3926630434782612  C 12.4716796875 0.6544384057970982  12.711588541666668 1.0163043478260858  12.826171875 1.4782608695652164  C 13.227213541666668 2.9103260869565224  13.821614583333334 4.461730072463764  14.609375 6.132472826086955  C 15.397135416666668 7.803215579710143  16.109700520833336 9.173686594202895  16.7470703125 10.243885869565217  C 17.384440104166668 11.314085144927535  18.107747395833336 12.476675724637682  18.9169921875 13.731657608695652  C 19.726236979166668 14.986639492753621  20.173828125 15.683423913043477  20.259765625 15.822010869565217  Z " fill-rule="nonzero" fill="#63a103" stroke="none" transform="matrix(1 0 0 1 760 820 )" />
  </g>
</svg>