<?xml version="1.0" encoding="utf-8"?>
<svg version="1.1" xmlns:xlink="http://www.w3.org/1999/xlink" width="22px" height="34px" xmlns="http://www.w3.org/2000/svg">
  <g transform="matrix(1 0 0 1 -760 -1210 )">
    <path d="M 12.998046875 23.412946428571427  C 13.499348958333334 24.045386904761905  13.75 24.741071428571427  13.75 25.5  C 13.75 26.51190476190476  13.348958333333334 27.37202380952381  12.546875 28.080357142857146  C 11.744791666666668 28.788690476190474  10.770833333333334 29.142857142857146  9.625 29.142857142857146  C 8.479166666666668 29.142857142857146  7.505208333333334 28.788690476190474  6.703125 28.080357142857146  C 5.901041666666667 27.37202380952381  5.5 26.51190476190476  5.5 25.5  C 5.5 24.741071428571427  5.750651041666667 24.045386904761905  6.251953125 23.412946428571427  C 6.753255208333334 22.780505952380953  7.419270833333334 22.331473214285715  8.25 22.065848214285715  L 8.25 9.714285714285714  L 11 9.714285714285714  L 11 22.065848214285715  C 11.830729166666668 22.331473214285715  12.496744791666668 22.780505952380953  12.998046875 23.412946428571427  Z M 14.4912109375 29.797433035714285  C 15.830403645833332 28.614769345238095  16.5 27.182291666666668  16.5 25.5  C 16.5 24.526041666666668  16.256510416666664 23.61532738095238  15.76953125 22.767857142857146  C 15.282552083333334 21.920386904761905  14.609375 21.212053571428573  13.75 20.642857142857146  L 13.75 6.071428571428573  C 13.75 5.059523809523807  13.348958333333334 4.199404761904762  12.546875 3.4910714285714275  C 11.744791666666668 2.782738095238093  10.770833333333334 2.4285714285714275  9.625 2.4285714285714275  C 8.479166666666668 2.4285714285714275  7.505208333333334 2.782738095238093  6.703125 3.4910714285714275  C 5.901041666666667 4.199404761904762  5.5 5.059523809523807  5.5 6.071428571428573  L 5.5 20.642857142857146  C 4.640625 21.212053571428573  3.967447916666667 21.920386904761905  3.48046875 22.767857142857146  C 2.9934895833333335 23.61532738095238  2.75 24.526041666666668  2.75 25.5  C 2.75 27.182291666666668  3.419596354166667 28.614769345238095  4.7587890625 29.797433035714285  C 6.097981770833334 30.980096726190474  7.720052083333334 31.571428571428573  9.625 31.571428571428573  C 11.529947916666668 31.571428571428573  13.152018229166668 30.980096726190474  14.4912109375 29.797433035714285  Z M 16.5 19.561383928571427  C 18.333333333333336 21.218377976190474  19.25 23.19791666666666  19.25 25.5  C 19.25 27.84002976190476  18.308268229166668 29.841703869047617  16.4248046875 31.505022321428573  C 14.541341145833334 33.168340773809526  12.274739583333334 34  9.625 34  C 6.975260416666666 34  4.708658854166667 33.168340773809526  2.8251953125 31.505022321428573  C 0.9417317708333333 29.841703869047617  0 27.84002976190476  0 25.5  C 0 23.19791666666666  0.9166666666666666 21.218377976190474  3 19.561383928571427  L 3 6.071428571428573  C 2.75 4.389136904761903  3.419596354166667 2.956659226190476  4.7587890625 1.7739955357142863  C 6.097981770833334 0.5913318452380967  7.720052083333334 0  9.625 0  C 11.529947916666668 0  13.152018229166668 0.5913318452380967  14.4912109375 1.7739955357142863  C 15.830403645833332 2.956659226190476  16.5 4.389136904761903  16.5 6.071428571428573  L 16.5 19.561383928571427  Z M 17.875 14.571428571428573  L 22 14.571428571428573  L 22 17  L 17.875 17  L 17.875 14.571428571428573  Z M 17.875 9.714285714285714  L 22 9.714285714285714  L 22 12.14285714285714  L 17.875 12.14285714285714  L 17.875 9.714285714285714  Z M 17.875 4.8571428571428585  L 22 4.8571428571428585  L 22 7.2857142857142865  L 17.875 7.2857142857142865  L 17.875 4.8571428571428585  Z " fill-rule="nonzero" fill="#63a103" stroke="none" transform="matrix(1 0 0 1 760 1210 )" />
  </g>
</svg>