<?xml version="1.0" encoding="utf-8"?>
<svg version="1.1" xmlns:xlink="http://www.w3.org/1999/xlink" width="54px" height="50px" xmlns="http://www.w3.org/2000/svg">
  <g transform="matrix(1 0 0 1 -874 -632 )">
    <path d="M 40.95703125 23.2421875  C 41.40234375000001 23.736979166666668  41.625 24.322916666666668  41.625 25  C 41.625 25.67708333333333  41.40234375000001 26.26302083333333  40.95703125 26.7578125  L 21.83203125 48.0078125  C 21.386718750000004 48.50260416666667  20.859375000000004 48.75  20.25 48.75  C 19.640625000000004 48.75  19.113281250000004 48.50260416666667  18.66796875 48.0078125  C 18.222656250000004 47.51302083333333  18 46.92708333333333  18 46.25  L 18 35  L 2.25 35  C 1.6406250000000002 35  1.11328125 34.752604166666664  0.66796875 34.2578125  C 0.22265625 33.76302083333333  0 33.17708333333333  0 32.5  L 0 17.5  C 0 16.82291666666666  0.22265625 16.23697916666666  0.66796875 15.742187499999998  C 1.11328125 15.247395833333332  1.6406250000000002 15.000000000000002  2.25 15  L 18 15  L 18 3.749999999999998  C 18 3.0729166666666585  18.222656250000004 2.4869791666666585  18.66796875 1.9921874999999978  C 19.113281250000004 1.4973958333333315  19.640625000000004 1.250000000000001  20.25 1.250000000000001  C 20.859375000000004 1.250000000000001  21.386718750000004 1.4973958333333315  21.83203125 1.9921874999999978  L 40.95703125 23.2421875  Z M 51.029296875 3.300781250000001  C 53.009765625 5.501302083333331  54 8.151041666666659  54 11.249999999999998  L 54 38.75  C 54 41.84895833333333  53.009765625 44.49869791666667  51.029296875 46.69921875  C 49.04882812500001 48.89973958333333  46.66406250000001 50  43.875 50  L 32.625 50  C 32.32031250000001 50  32.05664062500001 49.87630208333333  31.833984374999996 49.62890625  C 31.611328125 49.38151041666667  31.500000000000004 49.08854166666667  31.500000000000004 48.75  C 31.500000000000004 48.645833333333336  31.488281250000004 48.38541666666667  31.464843749999996 47.96875  C 31.441406250000004 47.55208333333333  31.435546875000004 47.20703125  31.447265625000004 46.93359375  C 31.458984375 46.66015625  31.494140625000004 46.35416666666667  31.552734375000004 46.015625  C 31.611328125 45.67708333333333  31.728515625000004 45.423177083333336  31.904296875 45.25390625  C 32.080078125 45.08463541666667  32.32031250000001 45  32.625 45  L 43.875 45  C 45.421875 45  46.74609375 44.38802083333333  47.84765625 43.1640625  C 48.94921875 41.94010416666666  49.5 40.46875  49 38.75  L 49 11.249999999999998  C 49.5 9.531250000000002  48.94921875 8.05989583333333  47.84765625 6.8359375  C 46.74609375 5.611979166666659  45.421875 4.999999999999999  43.875 5  L 33.75 5  L 33.36328125 4.999999999999999  L 32.90625 4.999999999999999  C 32.90625000000001 4.999999999999999  32.771484375 4.986979166666661  32.501953125 4.960937500000001  C 32.232421875 4.93489583333333  32.09765625 4.895833333333332  32.09765625 4.843750000000002  C 32.09765625 4.791666666666661  32.00390625 4.720052083333331  31.816406250000004 4.628906249999998  C 31.628906250000004 4.537760416666659  31.546875000000004 4.42057291666666  31.570312499999996 4.277343750000001  C 31.593750000000004 4.134114583333331  31.570312499999996 3.9583333333333304  31.500000000000004 3.749999999999998  C 31.500000000000004 3.6458333333333313  31.488281250000004 3.385416666666663  31.464843749999996 2.968749999999998  C 31.441406250000004 2.5520833333333326  31.435546875000004 2.207031250000002  31.447265625000004 1.933593750000001  C 31.458984375 1.66015625  31.494140625000004 1.3541666666666619  31.552734375000004 1.0156249999999978  C 31.611328125 0.6770833333333282  31.728515625000004 0.4231770833333315  31.904296875 0.2539062500000022  C 32.080078125 0.08463541666666186  32.32031250000001 0  32.625 0  L 43.875 0  C 46.66406250000001 0  49.04882812500001 1.1002604166666596  51.029296875 3.300781250000001  Z " fill-rule="nonzero" fill="#63a103" stroke="none" transform="matrix(1 0 0 1 874 632 )" />
  </g>
</svg>