<?xml version="1.0" encoding="utf-8"?>
<svg version="1.1" xmlns:xlink="http://www.w3.org/1999/xlink" width="27px" height="27px" xmlns="http://www.w3.org/2000/svg">
  <g transform="matrix(1 0 0 1 -437 -516 )">
    <path d="M 16.287388392857142 16.965401785714285  C 15.262834821428573 15.428571428571427  14.333705357142856 13.871651785714285  13.5 12.294642857142858  C 12.455357142857144 10.325892857142856  11.651785714285717 8.929687499999998  11.089285714285714 8.106026785714286  C 9.693080357142858 6.077008928571429  7.950334821428573 4.479910714285712  5.861049107142857 3.3147321428571415  C 5.51953125 3.123883928571429  5.16796875 2.9430803571428563  4.806361607142857 2.772321428571428  C 3.912388392857143 2.3705357142857117  3.440290178571429 2.2098214285714266  3.3900669642857144 2.290178571428572  C 3.33984375 2.3705357142857117  3.5106026785714284 2.561383928571428  3.90234375 2.862723214285714  L 4.489955357142857 3.3297991071428585  C 5.112723214285715 3.761718749999999  5.677734375 4.231305803571429  6.184988839285714 4.7385602678571415  C 6.692243303571429 5.245814732142854  7.166852678571428 5.830915178571428  7.6088169642857135 6.4938616071428585  C 8.050781250000002 7.1568080357142865  8.404854910714286 7.724330357142854  8.671037946428571 8.196428571428573  C 8.93722098214286 8.668526785714285  9.291294642857144 9.326450892857142  9.733258928571429 10.170200892857142  C 9.823660714285714 10.34095982142857  9.888950892857144 10.466517857142854  9.929129464285714 10.546875  C 10.371093750000002 11.390625  10.792968750000002 12.159040178571427  11.194754464285714 12.852120535714286  C 11.59654017857143 13.545200892857144  12.08872767857143 14.318638392857142  12.671316964285714 15.172433035714286  C 13.25390625 16.026227678571427  13.833984375000002 16.77957589285714  14.411551339285714 17.432477678571427  C 14.989118303571432 18.085379464285715  15.647042410714286 18.705636160714285  16.385323660714285 19.293247767857146  C 17.123604910714285 19.880859375  17.869419642857142 20.335379464285715  18.622767857142858 20.656808035714285  C 20.159598214285715 21.319754464285715  20.93303571428572 21.62109375  20.943080357142858 21.560825892857146  C 20.953125000000004 21.530691964285715  20.70703125 21.344866071428573  20.204799107142858 21.003348214285715  C 19.67243303571429 20.641741071428573  19.265625000000004 20.35546875  18.984375 20.14453125  C 18.210937500000004 19.561941964285715  17.311941964285715 18.502232142857146  16.287388392857142 16.965401785714285  Z M 10.96875 22.1484375  C 10.034598214285714 21.716517857142858  9.135602678571429 21.159040178571427  8.271763392857142 20.476004464285715  C 7.508370535714286 19.873325892857146  6.842912946428571 19.245535714285715  6.275390625 18.592633928571427  C 5.70786830357143 17.93973214285714  5.215680803571429 17.219029017857142  4.798828125 16.430524553571427  C 4.381975446428572 15.642020089285714  4.025390625000001 14.86607142857143  3.7290736607142856 14.102678571428573  C 3.4327566964285716 13.339285714285712  3.138950892857143 12.405133928571429  2.84765625 11.300223214285714  C 2.5563616071428577 10.195312499999998  2.295200892857143 9.145647321428573  2.064174107142857 8.151227678571427  C 1.8331473214285716 7.1568080357142865  1.5292968750000002 5.8911830357142865  1.1526227678571428 4.354352678571428  C 0.7759486607142857 2.817522321428572  0.3917410714285715 1.3660714285714266  0 0  C 2.7421875000000004 0  5.2407924107142865 0.18080357142857229  7.495814732142857 0.5424107142857139  C 9.75083705357143 0.9040178571428584  11.654296875 1.3660714285714266  13.206194196428571 1.9285714285714277  C 14.758091517857142 2.491071428571429  16.119140625 3.216796875  17.289341517857142 4.1057477678571415  C 18.45954241071429 4.9946986607142865  19.391183035714285 5.8610491071428585  20.084263392857142 6.7047991071428585  C 20.77734375 7.5485491071428585  21.329799107142858 8.545479910714283  21.741629464285715 9.695591517857142  C 22.153459821428573 10.845703124999998  22.434709821428573 11.847656249999998  22.585379464285715 12.701450892857142  C 22.736049107142858 13.555245535714285  22.798828125000004 14.552176339285715  22.773716517857142 15.692243303571427  C 22.74860491071429 16.83231026785714  22.700892857142858 17.701171874999996  22.630580357142858 18.298828125  C 22.56026785714286 18.896484374999996  22.45982142857143 19.6171875  22.329241071428573 20.4609375  C 22.19866071428572 21.3046875  22.133370535714285 21.842075892857142  22.133370535714285 22.073102678571427  L 27 27  L 25.433035714285715 27  L 21.19921875 22.705915178571427  C 20.97823660714286 22.726004464285715  20.518694196428573 22.796316964285715  19.820591517857142 22.916852678571427  C 19.122488839285715 23.037388392857146  18.51227678571429 23.132812499999996  17.989955357142858 23.203125  C 17.46763392857143 23.273437500000004  16.774553571428573 23.30357142857143  15.910714285714286 23.293526785714285  C 15.046875000000002 23.283482142857142  14.240792410714288 23.19810267857143  13.492466517857142 23.037388392857146  C 12.744140625000002 22.876674107142858  11.902901785714286 22.580357142857142  10.96875 22.1484375  Z " fill-rule="nonzero" fill="#63a103" stroke="none" transform="matrix(1 0 0 1 437 516 )" />
  </g>
</svg>