<?xml version="1.0" encoding="utf-8"?>
<svg version="1.1" xmlns:xlink="http://www.w3.org/1999/xlink" width="27px" height="27px" xmlns="http://www.w3.org/2000/svg">
  <g transform="matrix(1 0 0 1 -159 -17 )">
    <path d="M 26.942471590909093 20.921164772727273  C 26.980823863636363 21.010653409090907  27 21.14488636363636  27 21.323863636363637  C 27 21.66903409090909  26.936079545454547 22.119673295454543  26.808238636363637 22.67578125  C 26.68039772727273 23.231889204545457  26.546164772727273 23.669744318181817  26.405539772727273 23.98934659090909  C 26.137073863636363 24.628551136363633  25.357244318181824 25.306107954545453  24.066051136363637 26.022017045454543  C 22.864346590909093 26.67400568181818  21.675426136363637 27  20.499289772727273 27  C 20.15411931818182 27  19.81534090909091 26.97762784090909  19.482954545454543 26.932883522727273  C 19.150568181818183 26.888139204545457  18.78302556818182 26.808238636363637  18.380326704545457 26.69318181818182  C 17.977627840909093 26.578125  17.677201704545457 26.48544034090909  17.479048295454543 26.415127840909093  C 17.28089488636364 26.34481534090909  16.926136363636367 26.213778409090907  16.414772727272727 26.022017045454543  C 15.903409090909093 25.83025568181818  15.590198863636367 25.715198863636363  15.475142045454545 25.676846590909093  C 14.222301136363638 25.22940340909091  13.103693181818183 24.698863636363637  12.119318181818182 24.085227272727273  C 10.495738636363637 23.07528409090909  8.808238636363637 21.694602272727273  7.056818181818182 19.94318181818182  C 5.3053977272727275 18.19176136363636  3.9247159090909096 16.504261363636367  2.9147727272727275 14.880681818181818  C 2.3011363636363633 13.896306818181817  1.770596590909091 12.777698863636362  1.323153409090909 11.524857954545455  C 1.2848011363636362 11.409801136363633  1.1697443181818183 11.096590909090907  0.9779829545454546 10.585227272727273  C 0.7862215909090908 10.073863636363635  0.6551846590909092 9.719105113636362  0.5848721590909092 9.520951704545455  C 0.5145596590909091 9.322798295454543  0.421875 9.022372159090908  0.3068181818181818 8.619673295454545  C 0.19176136363636362 8.216974431818178  0.11186079545454547 7.849431818181817  0.06711647727272727 7.517045454545455  C 0.02237215909090909 7.184659090909088  0 6.845880681818182  0 6.500710227272727  C 0 5.324573863636362  0.3259943181818182 4.1356534090909065  0.9779829545454546 2.9339488636363633  C 1.6938920454545456 1.6427556818181777  2.3714488636363638 0.8629261363636369  3.010653409090909 0.5944602272727262  C 3.330255681818182 0.4538352272727252  3.7681107954545454 0.3196022727272698  4.32421875 0.1917613636363631  C 4.880326704545455 0.06392045454545336  5.330965909090909 0  5.676136363636364 0  C 5.855113636363638 0  5.989346590909092 0.01917613636363691  6.078835227272727 0.05752840909090773  C 6.308948863636364 0.13423295454545536  6.6477272727272725 0.6200284090909087  7.095170454545454 1.5149147727272738  C 7.235795454545455 1.757812499999996  7.427556818181819 2.1029829545454515  7.670454545454546 2.5504261363636367  C 7.9133522727272725 2.9978693181818166  8.137073863636363 3.4037642045454555  8.341619318181818 3.7681107954545445  C 8.546164772727273 4.132457386363637  8.744318181818182 4.474431818181817  8.936079545454547 4.794034090909093  C 8.974431818181818 4.8451704545454515  9.086292613636363 5.004971590909093  9.271661931818182 5.2734375  C 9.457031250000002 5.541903409090907  9.594460227272728 5.768821022727272  9.683948863636363 5.954190340909093  C 9.7734375 6.1395596590909065  9.818181818181818 6.3217329545454515  9.818181818181818 6.500710227272727  C 9.818181818181818 6.756392045454542  9.636008522727272 7.075994318181818  9.271661931818182 7.459517045454545  C 8.90731534090909 7.843039772727273  8.511008522727273 8.194602272727272  8.082741477272728 8.514204545454545  C 7.654474431818182 8.833806818181815  7.258167613636363 9.172585227272727  6.8938210227272725 9.530539772727273  C 6.529474431818182 9.888494318181817  6.347301136363636 10.182528409090908  6.347301136363636 10.412642045454545  C 6.347301136363636 10.527698863636363  6.379261363636364 10.671519886363637  6.443181818181818 10.844105113636363  C 6.507102272727273 11.016690340909092  6.56143465909091 11.147727272727272  6.606178977272727 11.237215909090908  C 6.650923295454547 11.326704545454543  6.740411931818182 11.480113636363637  6.874644886363637 11.697443181818182  C 7.008877840909091 11.914772727272727  7.082386363636364 12.036221590909092  7.095170454545454 12.061789772727273  C 8.066761363636363 13.813210227272725  9.178977272727273 15.315340909090907  10.431818181818182 16.56818181818182  C 11.684659090909092 17.821022727272723  13.186789772727275 18.933238636363633  14.938210227272727 19.904829545454547  C 14.963778409090908 19.917613636363633  15.085227272727273 19.99112215909091  15.302556818181818 20.125355113636363  C 15.519886363636363 20.25958806818182  15.673295454545457 20.34907670454545  15.762784090909092 20.393821022727273  C 15.852272727272728 20.43856534090909  15.983309659090908 20.492897727272727  16.155894886363637 20.55681818181818  C 16.328480113636363 20.620738636363633  16.472301136363637 20.652698863636363  16.587357954545457 20.652698863636363  C 16.817471590909093 20.652698863636363  17.111505681818183 20.47052556818182  17.469460227272727 20.106178977272727  C 17.827414772727273 19.741832386363637  18.166193181818187 19.345525568181817  18.485795454545457 18.917258522727273  C 18.805397727272727 18.488991477272723  19.156960227272727 18.09268465909091  19.540482954545457 17.72833806818182  C 19.92400568181818 17.363991477272727  20.243607954545457 17.18181818181818  20.499289772727273 17.18181818181818  C 20.67826704545455 17.18181818181818  20.860440340909093 17.226562499999996  21.045809659090907 17.316051136363637  C 21.231178977272727 17.40553977272727  21.458096590909093 17.542968749999996  21.7265625 17.72833806818182  C 21.995028409090907 17.913707386363633  22.15482954545455 18.02556818181818  22.205965909090907 18.063920454545453  C 22.525568181818183 18.25568181818182  22.867542613636363 18.453835227272723  23.231889204545457 18.65838068181818  C 23.596235795454543 18.862926136363633  24.002130681818183 19.086647727272723  24.449573863636363 19.329545454545453  C 24.89701704545455 19.57244318181818  25.242187500000004 19.764204545454543  25.485085227272727 19.904829545454547  C 26.37997159090909 20.352272727272723  26.865767045454543 20.691051136363637  26.942471590909093 20.921164772727273  Z " fill-rule="nonzero" fill="#63a103" stroke="none" transform="matrix(1 0 0 1 159 17 )" />
  </g>
</svg>