<?xml version="1.0" encoding="utf-8"?>
<svg version="1.1" xmlns:xlink="http://www.w3.org/1999/xlink" width="27px" height="27px" xmlns="http://www.w3.org/2000/svg">
  <g transform="matrix(1 0 0 1 -361 -16 )">
    <path d="M 25.493303571428573 10.374289772727273  C 26.065848214285715 9.875710227272727  26.56808035714286 9.319602272727273  27 8.705965909090908  L 27 23.93181818181818  C 27 24.77556818181818  26.763950892857146 25.49786931818182  26.291852678571427 26.098721590909093  C 25.81975446428572 26.69957386363636  25.252232142857146 27  24.589285714285715 27  L 2.4107142857142856 27  C 1.7477678571428572 27  1.1802455357142858 26.69957386363636  0.7081473214285715 26.098721590909093  C 0.23604910714285723 25.49786931818182  0 24.77556818181818  0 23.93181818181818  L 0 8.705965909090908  C 0.4419642857142858 9.332386363636362  0.9492187500000002 9.888494318181815  1.5217633928571428 10.374289772727273  C 5.157924107142858 13.519176136363637  7.654017857142857 15.724431818181818  9.010044642857142 16.99005681818182  C 9.582589285714286 17.526988636363637  10.047154017857144 17.94566761363636  10.403738839285714 18.24609375  C 10.760323660714286 18.546519886363633  11.234933035714286 18.853338068181817  11.827566964285714 19.166548295454547  C 12.420200892857144 19.479758522727273  12.97265625 19.636363636363637  13.484933035714286 19.636363636363637  L 13.5 19.636363636363637  L 13.515066964285714 19.636363636363637  C 14.027343750000004 19.636363636363637  14.579799107142858 19.479758522727273  15.172433035714286 19.166548295454547  C 15.765066964285717 18.853338068181817  16.23967633928572 18.546519886363633  16.596261160714285 18.24609375  C 16.952845982142858 17.94566761363636  17.417410714285715 17.526988636363637  17.989955357142858 16.99005681818182  C 19.697544642857146 15.417613636363637  22.19866071428572 13.212357954545455  25.493303571428573 10.374289772727273  Z M 26.284319196428573 0.9012784090909077  C 26.761439732142858 1.5021306818181794  27 2.2244318181818183  27 3.0681818181818183  C 27 4.0781249999999964  26.753906250000004 5.043323863636363  26.26171875 5.963778409090907  C 25.76953125 6.884232954545455  25.15680803571429 7.670454545454545  24.423549107142858 8.322443181818182  C 20.646763392857146 11.659090909090908  18.29631696428572 13.736505681818183  17.372209821428573 14.5546875  C 17.271763392857146 14.644176136363637  17.058314732142858 14.839133522727272  16.731863839285715 15.13955965909091  C 16.405412946428573 15.439985795454543  16.13420758928572 15.682883522727272  15.918247767857142 15.86825284090909  C 15.702287946428571 16.053622159090907  15.44112723214286 16.261363636363637  15.134765625 16.491477272727273  C 14.828404017857144 16.72159090909091  14.539620535714286 16.894176136363637  14.268415178571427 17.009232954545453  C 13.997209821428573 17.124289772727273  13.746093750000002 17.18181818181818  13.515066964285714 17.18181818181818  L 13.5 17.18181818181818  L 13.484933035714286 17.18181818181818  C 13.25390625 17.18181818181818  13.002790178571429 17.124289772727273  12.731584821428571 17.009232954545453  C 12.460379464285714 16.894176136363637  12.171595982142858 16.72159090909091  11.865234375 16.491477272727273  C 11.558872767857144 16.261363636363637  11.297712053571429 16.053622159090907  11.081752232142858 15.86825284090909  C 10.865792410714286 15.682883522727272  10.59458705357143 15.439985795454543  10.268136160714286 15.13955965909091  C 9.941685267857144 14.839133522727272  9.72823660714286 14.644176136363637  9.627790178571429 14.5546875  C 8.713727678571429 13.736505681818183  7.3978794642857135 12.569957386363637  5.680245535714286 11.055042613636363  C 3.9626116071428568 9.54012784090909  2.933035714285715 8.62926136363636  2.591517857142857 8.322443181818182  C 1.9687500000000002 7.78551136363636  1.3811383928571432 7.047230113636363  0.8286830357142858 6.107599431818182  C 0.27622767857142866 5.16796875  0 4.295454545454545  0 3.4900568181818183  C 0 2.492897727272726  0.20842633928571436 1.6619318181818143  0.625279017857143 0.9971590909090923  C 1.0421316964285716 0.3323863636363611  1.637276785714286 0  2.4107142857142856 0  L 24.589285714285715 0  C 25.2421875 0  25.80719866071429 0.3004261363636329  26.284319196428573 0.9012784090909077  Z " fill-rule="nonzero" fill="#63a103" stroke="none" transform="matrix(1 0 0 1 361 16 )" />
  </g>
</svg>