<?xml version="1.0" encoding="utf-8"?>
<svg version="1.1" xmlns:xlink="http://www.w3.org/1999/xlink" width="27px" height="27px" xmlns="http://www.w3.org/2000/svg">
  <g transform="matrix(1 0 0 1 -1152 -22 )">
    <path d="M 26.820703125 19.520507812499996  C 26.940234375 20.405273437499996  27 21.345703125  27 22.341796875  C 27 23.619140625  26.560546875 24.71484375  25.681640625 25.62890625  C 24.802734375000004 26.54296875  23.74453125 27  22.50703125 27  L 4.49296875 27  C 3.25546875 27  2.1972656250000004 26.54296875  1.3183593750000002 25.62890625  C 0.4394531250000001 24.71484375  0 23.619140625  0 22.341796875  C 0 21.345703125  0.05976562500000014 20.405273437499996  0.17929687500000016 19.520507812499996  C 0.29882812500000017 18.635742187499996  0.5203125000000001 17.7451171875  0.8437500000000002 16.8486328125  C 1.1671875000000003 15.9521484375  1.578515625 15.1845703125  2.077734375 14.545898437500002  C 2.576953125 13.907226562499996  3.237890625 13.385742187499998  4.060546875 12.981445312500002  C 4.883203125 12.5771484375  5.828906250000001 12.375000000000002  6.897656250000001 12.375000000000002  C 8.73984375 13.874999999999998  10.940625 14.625000000000002  13.5 14.625000000000002  C 16.059375000000003 14.625000000000002  18.26015625 13.874999999999998  20.10234375 12.375000000000002  C 21.17109375 12.375000000000002  22.116796875 12.5771484375  22.939453125 12.981445312500002  C 23.762109375 13.385742187499998  24.423046875000004 13.907226562499996  24.922265625 14.545898437500002  C 25.421484375000002 15.1845703125  25.8328125 15.9521484375  26.15625 16.8486328125  C 26.479687500000004 17.7451171875  26.701171875000004 18.635742187499996  26.820703125 19.520507812499996  Z M 19.226953125 1.9775390625  C 20.808984375 3.2958984375  21.6 4.886718750000001  21.6 6.75  C 21.6 8.613281249999998  20.808984375 10.2041015625  19.226953125 11.5224609375  C 17.644921875 12.8408203125  15.735937499999999 13.5  13.5 13.5  C 11.2640625 13.5  9.355078125 12.8408203125  7.773046875 11.5224609375  C 6.191015625 10.2041015625  5.4 8.613281249999998  5.4 6.75  C 5.4 4.886718750000001  6.191015625 3.2958984375  7.773046875 1.9775390625  C 9.355078125 0.6591796875  11.2640625 0  13.5 0  C 15.735937499999999 0  17.644921875 0.6591796875  19.226953125 1.9775390625  Z " fill-rule="nonzero" fill="#63a103" stroke="none" transform="matrix(1 0 0 1 1152 22 )" />
  </g>
</svg>