<?xml version="1.0" encoding="utf-8"?>
<svg version="1.1" xmlns:xlink="http://www.w3.org/1999/xlink" width="36px" height="34px" xmlns="http://www.w3.org/2000/svg">
  <g transform="matrix(1 0 0 1 -1263 -22 )">
    <path d="M 13.024038461538462 28.735795454545457  C 13.572115384615387 29.347537878787875  13.846153846153847 30.071969696969695  13.846153846153847 30.909090909090907  C 13.846153846153847 31.746212121212125  13.572115384615387 32.47064393939394  13.024038461538462 33.08238636363637  C 12.47596153846154 33.69412878787879  11.826923076923078 34  11.076923076923077 34  C 10.326923076923078 34  9.677884615384617 33.69412878787879  9.129807692307692 33.08238636363637  C 8.581730769230768 32.47064393939394  8.307692307692308 31.746212121212125  8.307692307692308 30.909090909090907  C 8.307692307692308 30.071969696969695  8.581730769230768 29.347537878787875  9.129807692307692 28.735795454545457  C 9.677884615384617 28.124053030303035  10.326923076923078 27.818181818181817  11.076923076923077 27.818181818181817  C 11.826923076923078 27.818181818181817  12.47596153846154 28.124053030303035  13.024038461538462 28.735795454545457  Z M 32.40865384615385 28.735795454545457  C 32.95673076923077 29.347537878787875  33.23076923076923 30.071969696969695  33.23076923076923 30.909090909090907  C 33.23076923076923 31.746212121212125  32.95673076923077 32.47064393939394  32.40865384615385 33.08238636363637  C 31.860576923076923 33.69412878787879  31.211538461538463 34  30.46153846153846 34  C 29.711538461538463 34  29.062500000000004 33.69412878787879  28.514423076923077 33.08238636363637  C 27.966346153846157 32.47064393939394  27.692307692307693 31.746212121212125  27.692307692307693 30.909090909090907  C 27.692307692307693 30.071969696969695  27.966346153846157 29.347537878787875  28.514423076923077 28.735795454545457  C 29.062500000000004 28.124053030303035  29.711538461538463 27.818181818181817  30.46153846153846 27.818181818181817  C 31.211538461538463 27.818181818181817  31.860576923076923 28.124053030303035  32.40865384615385 28.735795454545457  Z M 35.58894230769231 3.5497159090909083  C 35.862980769230774 3.8555871212121176  36 4.217803030303026  36 4.636363636363636  L 36 17  C 36 17.386363636363637  35.88100961538461 17.72845643939394  35.64302884615385 18.026278409090914  C 35.40504807692308 18.324100378787875  35.11298076923077 18.497159090909086  34.76682692307692 18.545454545454543  L 12.180288461538462 21.491477272727273  C 12.367788461538463 22.457386363636363  12.461538461538462 23.020833333333332  12.461538461538462 23.181818181818183  C 12.461538461538462 23.439393939393934  12.288461538461538 23.954545454545457  11.942307692307692 24.727272727272727  L 31.846153846153847 24.727272727272727  C 32.22115384615385 24.727272727272727  32.54567307692308 24.880208333333332  32.81971153846154 25.186079545454543  C 33.09375 25.491950757575758  33.23076923076923 25.854166666666668  33.23076923076923 26.272727272727273  C 33.23076923076923 26.691287878787875  33.09375 27.053503787878785  32.81971153846154 27.359375  C 32.54567307692308 27.665246212121215  32.22115384615385 27.818181818181817  31.846153846153847 27.818181818181817  L 9.692307692307692 27.818181818181817  C 9.317307692307693 27.818181818181817  8.992788461538462 27.665246212121215  8.71875 27.359375  C 8.444711538461538 27.053503787878785  8.307692307692308 26.691287878787875  8.307692307692308 26.272727272727273  C 8.307692307692308 26.09564393939394  8.365384615384615 25.842092803030305  8.48076923076923 25.512073863636363  C 8.596153846153847 25.182054924242422  8.711538461538462 24.892282196969695  8.826923076923077 24.642755681818183  C 8.942307692307693 24.39322916666666  9.09735576923077 24.07125946969697  9.292067307692308 23.676846590909086  C 9.486778846153847 23.282433712121204  9.598557692307693 23.04498106060606  9.627403846153847 22.964488636363637  L 5.798076923076923 3.0909090909090917  L 1.3846153846153846 3.0909090909090917  C 1.0096153846153848 3.0909090909090917  0.685096153846154 2.9379734848484818  0.4110576923076923 2.632102272727272  C 0.13701923076923075 2.3262310606060588  0 1.9640151515151507  0 1.545454545454544  C 0 1.1268939393939374  0.13701923076923075 0.7646780303030256  0.4110576923076923 0.4588068181818199  C 0.685096153846154 0.15293560606060286  1.0096153846153848 0  1.3846153846153846 0  L 6.923076923076923 0  C 7.153846153846154 0  7.359375 0.05232007575757347  7.539663461538462 0.15696022727272796  C 7.719951923076924 0.2616003787878787  7.860576923076924 0.386363636363636  7.961538461538462 0.53125  C 8.0625 0.676136363636364  8.15625 0.8733428030302977  8.242788461538462 1.12286931818182  C 8.329326923076925 1.3723958333333308  8.387019230769232 1.581676136363636  8.415865384615385 1.750710227272728  C 8.44471153846154 1.91974431818182  8.484375 2.157196969696967  8.53485576923077 2.46306818181818  C 8.58533653846154 2.7689393939393896  8.617788461538462 2.9782196969696946  8.632211538461538 3  L 34.61538461538461 3  C 34.99038461538462 3.0909090909090917  35.31490384615385 3.2438446969696946  35.58894230769231 3.5497159090909083  Z " fill-rule="nonzero" fill="#63a103" stroke="none" transform="matrix(1 0 0 1 1263 22 )" />
  </g>
</svg>