<?xml version="1.0" encoding="utf-8"?>
<svg version="1.1" xmlns:xlink="http://www.w3.org/1999/xlink" width="20px" height="27px" xmlns="http://www.w3.org/2000/svg">
  <g transform="matrix(1 0 0 1 -43 -2678 )">
    <path d="M 13.53515625 12.181640625  C 14.51171875 11.302734374999998  15 10.2421875  15 9.000000000000002  C 15 7.757812499999998  14.51171875 6.697265625  13.53515625 5.818359374999999  C 12.55859375 4.939453125000001  11.380208333333336 4.499999999999999  10 4.499999999999999  C 8.619791666666668 4.499999999999999  7.44140625 4.939453125000001  6.46484375 5.818359374999999  C 5.48828125 6.697265625  5 7.757812499999998  5 9.000000000000002  C 5 10.2421875  5.48828125 11.302734374999998  6.46484375 12.181640625  C 7.44140625 13.060546875000002  8.619791666666668 13.5  10 13.5  C 11.380208333333336 13.5  12.55859375 13.060546875000002  13.53515625 12.181640625  Z M 17.0703125 2.63671875  C 19.0234375 4.394531249999999  20 6.5156249999999964  20 9.000000000000002  C 20 10.277343749999998  19.78515625 11.326171875  19.35546875 12.146484374999998  L 12.24609375 25.751953125  C 12.037760416666668 26.138671875  11.728515625 26.443359374999996  11.318359375 26.666015625  C 10.908203125 26.888671875  10.46875 27  10 27  C 9.53125 27  9.091796875 26.888671875  8.681640625 26.666015625  C 8.271484375 26.443359374999996  7.96875 26.138671875  7.7734375 25.751953125  L 0.64453125 12.146484374999998  C 0.21484375 11.326171875  0 10.277343749999998  0 9.000000000000002  C 0 6.5156249999999964  0.9765625 4.394531249999999  2.9296875 2.63671875  C 4.882812500000001 0.878906250000001  7.239583333333334 0  10 0  C 12.760416666666668 0  15.1171875 0.878906250000001  17.0703125 2.63671875  Z " fill-rule="nonzero" fill="#63a103" stroke="none" transform="matrix(1 0 0 1 43 2678 )" />
  </g>
</svg>