<?xml version="1.0" encoding="utf-8"?>
<svg version="1.1" xmlns:xlink="http://www.w3.org/1999/xlink" width="50px" height="50px" xmlns="http://www.w3.org/2000/svg">
  <g transform="matrix(1 0 0 1 -1288 -2594 )">
    <path d="M 44.098984771573605 7.890625000000001  C 46.06598984771574 7.630208333333332  48.03299492385787 6.979166666666659  50 5.937500000000001  C 48.58291032148901 8.489583333333329  46.86971235194586 10.664062499999998  44.86040609137056 12.460937500000002  C 44.88155668358714 12.825520833333332  44.892131979695435 13.372395833333329  44.892131979695435 14.101562499999998  C 44.892131979695435 17.48697916666666  44.49027072758038 20.865885416666664  43.68654822335025 24.23828125  C 42.882825719120135 27.61067708333333  41.66137901861252 30.846354166666668  40.02220812182741 33.9453125  C 38.3830372250423 37.04427083333333  36.43189509306261 39.78515625  34.16878172588832 42.16796875  C 31.905668358714045 44.55078125  29.177241962774957 46.45182291666667  25.98350253807107 47.87109375  C 22.789763113367176 49.29036458333333  19.373942470389174 50  15.736040609137056 50  C 10.004230118443317 50  4.758883248730964 48.11197916666667  0 44.3359375  C 0.7402707275803726 44.44010416666667  1.565143824027073 44.4921875  2.474619289340102 44.4921875  C 7.233502538071068 44.4921875  11.47419627749577 42.6953125  15.196700507614214 39.1015625  C 12.975888324873097 39.049479166666664  10.987732656514384 38.20963541666666  9.232233502538072 36.58203125  C 7.47673434856176 34.95442708333333  6.271150592216583 32.877604166666664  5.615482233502538 30.3515625  C 6.313451776649746 30.481770833333332  6.958544839255501 30.546875  7.550761421319797 30.546875  C 8.460236886632826 30.546875  9.359137055837563 30.403645833333332  10.24746192893401 30.117187499999996  C 7.87859560067682 29.518229166666664  5.9168781725888335 28.066406249999996  4.362309644670051 25.76171875  C 2.807741116751269 23.45703125  2.030456852791879 20.78125  2.030456852791878 17.734375000000004  L 2.030456852791878 17.578125  C 3.468697123519459 18.567708333333332  5.012690355329949 19.101562499999996  6.662436548223351 19.179687499999996  C 5.2664974619289335 18.033854166666664  4.156091370558376 16.536458333333332  3.3312182741116754 14.687499999999998  C 2.5063451776649743 12.838541666666659  2.0939086294416245 10.833333333333329  2.0939086294416245 8.671875000000002  C 2.0939086294416245 6.380208333333331  2.55922165820643 4.257812500000002  3.489847715736041 2.304687500000002  C 6.049069373942471 6.184895833333331  9.16349407783418 9.290364583333332  12.833121827411167 11.62109375  C 16.50274957698816 13.951822916666668  20.431472081218274 15.247395833333332  24.61928934010152 15.507812500000002  C 24.450084602368868 14.518229166666663  24.36548223350254 13.554687499999996  24.36548223350254 12.617187499999998  C 24.36548223350254 9.127604166666659  25.36484771573604 6.15234375  27.363578680203045 3.691406250000001  C 29.36230964467005 1.2304687500000022  31.778764805414557 0  34.61294416243655 0  C 37.57402707275804 0  40.06979695431472 1.3281250000000022  42.1002538071066 3.984375000000001  C 44.405668358714045 3.437499999999999  46.5736040609137 2.421875000000001  48.60406091370558 0.9375000000000022  C 47.82148900169205 3.93229166666666  46.31979695431473 6.25  44.098984771573605 7.890625000000001  Z " fill-rule="nonzero" fill="#63a103" stroke="none" transform="matrix(1 0 0 1 1288 2594 )" />
  </g>
</svg>