<?xml version="1.0" encoding="utf-8"?>
<svg version="1.1" xmlns:xlink="http://www.w3.org/1999/xlink" width="47px" height="50px" xmlns="http://www.w3.org/2000/svg">
  <g transform="matrix(1 0 0 1 -1202 -2594 )">
    <path d="M 29.038411458333332 30.891927083333336  C 30.568359375 29.264322916666664  31.333333333333332 27.30034722222222  31.333333333333332 25  C 31.333333333333332 22.699652777777775  30.568359375 20.735677083333332  29.038411458333332 19.108072916666668  C 27.508463541666668 17.48046875  25.662326388888893 16.666666666666668  23.5 16.666666666666668  C 21.33767361111111 16.666666666666668  19.491536458333336 17.48046875  17.961588541666664 19.108072916666668  C 16.431640625 20.735677083333332  15.666666666666666 22.699652777777775  15.666666666666666 25  C 15.666666666666666 27.30034722222222  16.431640625 29.264322916666664  17.961588541666664 30.891927083333336  C 19.491536458333336 32.51953125  21.33767361111111 33.333333333333336  23.5 33.333333333333336  C 25.662326388888893 33.333333333333336  27.508463541666668 32.51953125  29.038411458333332 30.891927083333336  Z M 32.037109375 15.91796875  C 34.38302951388889 18.413628472222214  35.55598958333333 21.440972222222214  35.55598958333333 25  C 35.55598958333333 28.55902777777778  34.38302951388889 31.58637152777778  32.037109375 34.08203125  C 29.69118923611111 36.57769097222222  26.84548611111111 37.82552083333333  23.5 37.82552083333333  C 20.15451388888889 37.82552083333333  17.30881076388889 36.57769097222222  14.962890625 34.08203125  C 12.616970486111112 31.58637152777778  11.444010416666668 28.55902777777778  11.444010416666668 25  C 11.444010416666668 21.440972222222214  12.616970486111112 18.413628472222214  14.962890625 15.91796875  C 17.30881076388889 13.422309027777773  20.15451388888889 12.174479166666668  23.5 12.174479166666668  C 26.84548611111111 12.174479166666668  29.69118923611111 13.422309027777773  32.037109375 15.91796875  Z M 38.03450520833333 9.537760416666668  C 38.58528645833333 10.123697916666668  38.86067708333333 10.828993055555552  38.86067708333333 11.653645833333332  C 38.86067708333333 12.47829861111111  38.58528645833333 13.18359375  38.03450520833333 13.76953125  C 37.48372395833333 14.35546875  36.82074652777778 14.6484375  36.04557291666667 14.6484375  C 35.27039930555556 14.6484375  34.607421875 14.35546875  34.056640625 13.76953125  C 33.505859375 13.18359375  33.23046875 12.47829861111111  33.23046875 11.653645833333332  C 33.23046875 10.828993055555552  33.505859375 10.123697916666668  34.056640625 9.537760416666668  C 34.607421875 8.951822916666668  35.27039930555556 8.658854166666668  36.04557291666667 8.658854166666668  C 36.82074652777778 8.658854166666668  37.48372395833333 8.951822916666668  38.03450520833333 9.537760416666668  Z M 25.8408203125 4.475911458333331  C 24.423068576388893 4.486762152777773  23.642795138888893 4.4921875  23.5 4.4921875  C 23.35720486111111 4.4921875  22.57693142361111 4.486762152777773  21.1591796875 4.475911458333331  C 19.74142795138889 4.465060763888884  18.665364583333336 4.465060763888884  17.930989583333336 4.475911458333331  C 17.196614583333336 4.486762152777773  16.21234809027778 4.519314236111111  14.978190104166666 4.573567708333331  C 13.744032118055559 4.627821180555553  12.693467881944446 4.736328125  11.826497395833334 4.899088541666669  C 10.959526909722223 5.061848958333331  10.230251736111112 5.262586805555553  9.638671875 5.501302083333331  C 8.618706597222223 5.935329861111111  7.721137152777778 6.564670138888884  6.945963541666667 7.389322916666669  C 6.170789930555556 8.213975694444443  5.579210069444445 9.168836805555552  5.171223958333334 10.25390625  C 4.946831597222222 10.883246527777773  4.758138020833334 11.659071180555552  4.605143229166666 12.581380208333332  C 4.4521484375 13.50368923611111  4.350151909722222 14.621310763888884  4.299153645833334 15.934244791666668  C 4.248155381944445 17.247178819444443  4.217556423611112 18.294270833333332  4.207356770833334 19.075520833333332  C 4.197157118055556 19.856770833333332  4.197157118055556 21.001519097222214  4.207356770833334 22.509765625  C 4.217556423611112 24.018012152777775  4.22265625 24.848090277777775  4.22265625 25  C 4.22265625 25.15190972222222  4.217556423611112 25.98198784722222  4.207356770833334 27.490234375  C 4.197157118055556 28.99848090277778  4.197157118055556 30.143229166666664  4.207356770833334 30.924479166666664  C 4.217556423611112 31.705729166666664  4.248155381944445 32.75282118055555  4.299153645833334 34.065755208333336  C 4.350151909722222 35.37868923611111  4.4521484375 36.496310763888886  4.605143229166666 37.418619791666664  C 4.758138020833334 38.34092881944444  4.946831597222222 39.116753472222214  5.171223958333334 39.74609375  C 5.579210069444445 40.83116319444444  6.170789930555556 41.78602430555556  6.945963541666667 42.61067708333333  C 7.721137152777778 43.43532986111111  8.618706597222223 44.06467013888889  9.638671875 44.49869791666667  C 10.230251736111112 44.73741319444444  10.959526909722223 44.93815104166667  11.826497395833334 45.10091145833333  C 12.693467881944446 45.263671875  13.744032118055559 45.37217881944444  14.978190104166666 45.42643229166667  C 16.21234809027778 45.48068576388889  17.196614583333336 45.51323784722223  17.930989583333336 45.52408854166667  C 18.665364583333336 45.53493923611111  19.74142795138889 45.53493923611111  21.1591796875 45.52408854166667  C 22.57693142361111 45.51323784722223  23.35720486111111 45.5078125  23.5 45.5078125  C 23.642795138888893 45.5078125  24.423068576388893 45.51323784722223  25.8408203125 45.52408854166667  C 27.25857204861111 45.53493923611111  28.334635416666668 45.53493923611111  29.069010416666668 45.52408854166667  C 29.803385416666668 45.51323784722223  30.787651909722225 45.48068576388889  32.02180989583333 45.42643229166667  C 33.25596788194445 45.37217881944444  34.30653211805556 45.263671875  35.17350260416667 45.10091145833333  C 36.04047309027778 44.93815104166667  36.76974826388889 44.73741319444444  37.361328125 44.49869791666667  C 38.38129340277778 44.06467013888889  39.27886284722222 43.43532986111111  40.05403645833333 42.61067708333333  C 40.82921006944445 41.78602430555556  41.42078993055556 40.83116319444444  41.82877604166667 39.74609375  C 42.05316840277778 39.116753472222214  42.24186197916667 38.34092881944444  42.39485677083333 37.418619791666664  C 42.5478515625 36.496310763888886  42.64984809027778 35.37868923611111  42.70084635416667 34.065755208333336  C 42.75184461805556 32.75282118055555  42.78244357638889 31.705729166666664  42.79264322916667 30.924479166666664  C 42.80284288194445 30.143229166666664  42.80284288194445 28.99848090277778  42.79264322916667 27.490234375  C 42.78244357638889 25.98198784722222  42.77734375 25.15190972222222  42.77734375 25  C 42.77734375 24.848090277777775  42.78244357638889 24.018012152777775  42.79264322916667 22.509765625  C 42.80284288194445 21.001519097222214  42.80284288194445 19.856770833333332  42.79264322916667 19.075520833333332  C 42.78244357638889 18.294270833333332  42.75184461805556 17.247178819444443  42.70084635416667 15.934244791666668  C 42.64984809027778 14.621310763888884  42.5478515625 13.50368923611111  42.39485677083333 12.581380208333332  C 42.24186197916667 11.659071180555552  42.05316840277778 10.883246527777773  41.82877604166667 10.25390625  C 41.42078993055556 9.168836805555552  40.82921006944445 8.213975694444443  40.05403645833333 7.389322916666669  C 39.27886284722222 6.564670138888884  38.38129340277778 5.935329861111111  37.361328125 5.501302083333331  C 36.76974826388889 5.262586805555553  36.04047309027778 5.061848958333331  35.17350260416667 4.899088541666669  C 34.30653211805556 4.736328125  33.25596788194445 4.627821180555553  32.02180989583333 4.573567708333331  C 30.787651909722225 4.519314236111111  29.803385416666668 4.486762152777773  29.069010416666668 4.475911458333331  C 28.334635416666668 4.465060763888884  27.25857204861111 4.465060763888884  25.8408203125 4.475911458333331  Z M 46.84700520833333 14.680989583333332  C 46.94900173611111 16.590711805555554  47 20.030381944444443  47 25  C 47 29.969618055555557  46.94900173611111 33.40928819444444  46.84700520833333 35.319010416666664  C 46.64301215277778 39.83289930555556  45.37825520833333 43.32682291666667  43.052734375 45.80078125  C 40.72721354166667 48.27473958333333  37.44292534722222 49.62022569444444  33.19986979166667 49.83723958333333  C 31.404730902777782 49.94574652777777  28.171440972222225 50  23.5 50  C 18.82855902777778 50  15.595269097222221 49.94574652777777  13.800130208333334 49.83723958333333  C 9.557074652777779 49.62022569444444  6.272786458333334 48.27473958333333  3.947265625 45.80078125  C 1.6217447916666667 43.32682291666667  0.35698784722222227 39.83289930555556  0.15299479166666669 35.319010416666664  C 0.05099826388888888 33.40928819444444  0 29.969618055555557  0 25  C 0 20.030381944444443  0.05099826388888888 16.590711805555554  0.15299479166666669 14.680989583333332  C 0.35698784722222227 10.167100694444443  1.6217447916666667 6.673177083333331  3.947265625 4.19921875  C 6.272786458333334 1.7252604166666685  9.557074652777779 0.37977430555555247  13.800130208333334 0.16276041666666852  C 15.595269097222221 0.05425347222221544  18.82855902777778 0  23.5 0  C 28.171440972222225 0  31.404730902777782 0.05425347222221544  33.19986979166667 0.16276041666666852  C 37.44292534722222 0.37977430555555247  40.72721354166667 1.7252604166666685  43.052734375 4.19921875  C 45.37825520833333 6.673177083333331  46.64301215277778 10.167100694444443  46.84700520833333 14.680989583333332  Z " fill-rule="nonzero" fill="#63a103" stroke="none" transform="matrix(1 0 0 1 1202 2594 )" />
  </g>
</svg>