<?xml version="1.0" encoding="utf-8"?>
<svg version="1.1" xmlns:xlink="http://www.w3.org/1999/xlink" width="47px" height="50px" xmlns="http://www.w3.org/2000/svg">
  <g transform="matrix(1 0 0 1 -1362 -2594 )">
    <path d="M 8.8125 0  L 38.1875 0  C 40.615017361111114 0  42.69064670138889 0.9168836805555525  44.41438802083333 2.7506510416666687  C 46.13812934027778 4.584418402777773  47 6.792534722222215  47 9.375  L 47 40.625  C 47 43.20746527777777  46.13812934027778 45.41558159722223  44.41438802083333 47.24934895833333  C 42.69064670138889 49.08311631944444  40.615017361111114 50  38.1875 50  L 32 50  L 32 30.631510416666664  L 38.52408854166667 30.631510416666664  L 39.44205729166667 23.079427083333332  L 32.43489583333333 23.079427083333332  L 32.43489583333333 18.26171875  C 32.43489583333333 17.046440972222214  32.674587673611114 16.134982638888886  33.15397135416667 15.52734375  C 33.63335503472222 14.91970486111111  34.56662326388889 14.615885416666668  35.95377604166667 14.615885416666668  L 39.68684895833333 14.583333333333332  L 39.68684895833333 7.845052083333331  C 38.40169270833333 7.649739583333331  36.58615451388889 7.552083333333331  34.240234375 7.552083333333331  C 31.46592881944445 7.552083333333331  29.247504340277782 8.420138888888884  27.5849609375 10.15625  C 25.922417534722225 11.89236111111111  25.091145833333332 14.344618055555552  25.091145833333332 17.513020833333332  L 25.091145833333332 23.079427083333332  L 18.971354166666664 23.079427083333332  L 18.971354166666664 30.631510416666664  L 25 30.631510416666664  L 25 50  L 8.8125 50  C 6.384982638888889 50  4.309353298611112 49.08311631944444  2.585611979166667 47.24934895833333  C 0.8618706597222221 45.41558159722223  0 43.20746527777777  0 40.625  L 0 9.375  C 0 6.792534722222215  0.8618706597222221 4.584418402777773  2.585611979166667 2.7506510416666687  C 4.309353298611112 0.9168836805555525  6.384982638888889 0  8.8125 0  Z " fill-rule="nonzero" fill="#63a103" stroke="none" transform="matrix(1 0 0 1 1362 2594 )" />
  </g>
</svg>