<?xml version="1.0" encoding="utf-8"?>
<svg version="1.1" xmlns:xlink="http://www.w3.org/1999/xlink" width="39px" height="35px" xmlns="http://www.w3.org/2000/svg">
  <g transform="matrix(1 0 0 1 -123 -520 )">
    <path d="M 33.394052044609666 19.996102883865937  C 33.41016109045849 20.03247596778384  33.4182156133829 20.08703559366069  33 20.159781761496493  L 33 33.25409197194077  C 33.4182156133829 33.72694206287347  33.265179677819084 34.13613925694985  32.95910780669145 34.48168355416991  C 32.65303593556382 34.82722785138997  32.29058240396531 35  31.871747211895908 35  L 22 35  L 22 24.524551831644583  L 17 24.524551831644583  L 17 35  L 7.128252788104089 35  C 6.709417596034697 35  6.346964064436184 34.82722785138997  6.04089219330855 34.48168355416991  C 5.7348203221809175 34.13613925694985  5.5817843866171 33.72694206287347  6 33.25409197194077  L 6 20.159781761496493  C 5.5817843866171 20.14159521953754  5.585811648079306 20.114315406599115  5.593866171003717 20.077942322681217  C 5.60192069392813 20.041569238763316  5.605947955390335 20.01428942582489  5.605947955390335 19.996102883865937  L 19.5 7.065471551052221  L 33.394052044609666 19.996102883865937  Z M 38.97583643122677 17.636399064692128  C 38.99194547707559 17.881917381137956  38.93556381660471 18.095609249155626  38.806691449814124 18.277474668745132  L 37.30855018587361 20.29618082618862  C 37.179677819083025 20.459859703819177  37.01053283767039 20.559885684593404  36.801115241635685 20.5962587685113  L 36.72862453531599 20.5962587685113  C 36.51920693928129 20.5962587685113  36.350061957868654 20.532605871654972  36.221189591078065 20.40530007794232  L 19.5 4.664848012470772  L 2.778810408921933 20.40530007794232  C 2.5855018587360594 20.550792413613923  2.392193308550186 20.614445310470252  2.1988847583643123 20.5962587685113  C 1.989467162329616 20.559885684593404  1.8203221809169767 20.459859703819177  1.691449814126394 20.29618082618862  L 0.19330855018587362 18.277474668745132  C 0.06443618339529122 18.095609249155626  0.008054522924411459 17.881917381137956  0.024163568773234202 17.636399064692128  C 0.04027261462205712 17.3908807482463  0.12887236679058245 17.19537542218758  0.2899628252788104 17.049883086515976  L 17.6635687732342 0.7092751363990657  C 18.179058240396532 0.23642504546635135  18.7912019826518 0  19.5 0  C 20.208798017348208 0  20.82094175960347 0.23642504546635135  21.3364312267658 0.7092751363990657  L 27.232342007434944 6.274356975837878  L 27.232342007434944 0.9547934528448931  C 27.232342007434944 0.7001818654195857  27.304832713754646 0.4910366328916588  27.449814126394052 0.32735775526110844  C 27.594795539033456 0.16367887763055422  27.78004956629492 0.08183943881527711  28.00557620817844 0.08183943881527711  L 32.64498141263941 0.08183943881527711  C 32.87050805452293 0.08183943881527711  33.05576208178439 0.16367887763055422  33.20074349442379 0.32735775526110844  C 33.34572490706319 0.4910366328916588  33.4182156133829 0.7001818654195857  33 0.9547934528448931  L 33 12.084957131722526  L 38.71003717472119 17.049883086515976  C 38.87112763320942 17.19537542218758  38.959727385377946 17.3908807482463  38.97583643122677 17.636399064692128  Z " fill-rule="nonzero" fill="#000000" stroke="none" transform="matrix(1 0 0 1 123 520 )" />
  </g>
</svg>