<?xml version="1.0" encoding="utf-8"?>
<svg version="1.1" xmlns:xlink="http://www.w3.org/1999/xlink" width="16px" height="15px" xmlns="http://www.w3.org/2000/svg">
  <g transform="matrix(1 0 0 1 -220 -534 )">
    <path d="M 15.72508591065292 7.154308617234469  C 15.908361970217642 7.254509018036072  16 7.369739478957915  16 7.5  C 16 7.630260521042083  15.908361970217642 7.745490981963926  15.72508591065292 7.845691382765531  L 2.9140893470790377 14.849699398797595  C 2.7308132875143185 14.9498997995992  2.520045819014891 15  2.281786941580756 15  C 2.043528064146621 15  1.8327605956471937 14.9498997995992  1.6494845360824741 14.849699398797595  L 0.27491408934707906 14.098196392785573  C 0.09163802978235974 13.997995991983966  0 13.882765531062125  0 13.75250501002004  C 0 13.622244488977955  0.09163802978235974 13.507014028056114  0.27491408934707906 13.40681362725451  L 11.079037800687285 7.5  L 0.27491408934707906 1.593186372745491  C 0.09163802978235974 1.4929859719438872  0 1.3777555110220434  0 1.2474949899799603  C 0 1.1172344689378737  0.09163802978235974 1.0020040080160304  0.27491408934707906 0.9018036072144281  L 1.6494845360824741 0.15030060120240496  C 1.8327605956471937 0.0501002004008011  2.043528064146621 0  2.281786941580756 0  C 2.520045819014891 0  2.7308132875143185 0.0501002004008011  2.9140893470790377 0.15030060120240496  L 15.72508591065292 7.154308617234469  Z " fill-rule="nonzero" fill="#000000" stroke="none" transform="matrix(1 0 0 1 220 534 )" />
  </g>
</svg>