<?xml version="1.0" encoding="utf-8"?>
<svg version="1.1" xmlns:xlink="http://www.w3.org/1999/xlink" width="38px" height="50px" xmlns="http://www.w3.org/2000/svg">
  <g transform="matrix(1 0 0 1 -1288 -2478 )">
    <path d="M 33.515228426395936 7.890625000000001  C 35.01015228426396 7.630208333333332  36.50507614213198 6.979166666666659  38 5.937500000000001  C 36.92301184433165 8.489583333333329  35.62098138747885 10.664062499999998  34.09390862944162 12.460937500000002  C 34.10998307952623 12.825520833333332  34.11802030456853 13.372395833333329  34.11802030456853 14.101562499999998  C 34.11802030456853 17.48697916666666  33.81260575296109 20.865885416666664  33.20177664974619 24.23828125  C 32.590947546531304 27.61067708333333  31.662648054145517 30.846354166666668  30.416878172588834 33.9453125  C 29.17110829103215 37.04427083333333  27.688240270727583 39.78515625  25.96827411167513 42.16796875  C 24.248307952622675 44.55078125  22.17470389170897 46.45182291666667  19.747461928934012 47.87109375  C 17.320219966159055 49.29036458333333  14.724196277495773 50  11.959390862944163 50  C 7.603214890016922 50  3.616751269035533 48.11197916666667  0 44.3359375  C 0.5626057529610832 44.44010416666667  1.1895093062605755 44.4921875  1.8807106598984773 44.4921875  C 5.497461928934012 44.4921875  8.720389170896786 42.6953125  11.549492385786802 39.1015625  C 9.861675126903554 39.049479166666664  8.350676818950932 38.20963541666666  7.016497461928934 36.58203125  C 5.682318104906938 34.95442708333333  4.766074450084603 32.877604166666664  4.267766497461929 30.3515625  C 4.798223350253807 30.481770833333332  5.288494077834181 30.546875  5.738578680203046 30.546875  C 6.429780033840948 30.546875  7.112944162436548 30.403645833333332  7.788071065989847 30.117187499999996  C 5.987732656514384 29.518229166666664  4.496827411167513 28.066406249999996  3.315355329949239 25.76171875  C 2.1338832487309647 23.45703125  1.5431472081218278 20.78125  1.5431472081218274 17.734375000000004  L 1.5431472081218274 17.578125  C 2.636209813874789 18.567708333333332  3.809644670050761 19.101562499999996  5.063451776649747 19.179687499999996  C 4.00253807106599 18.033854166666664  3.1586294416243654 16.536458333333332  2.5317258883248734 14.687499999999998  C 1.9048223350253806 12.838541666666659  1.5913705583756346 10.833333333333329  1.5913705583756346 8.671875000000002  C 1.5913705583756346 6.380208333333331  1.945008460236887 4.257812500000002  2.652284263959391 2.304687500000002  C 4.5972927241962775 6.184895833333331  6.964255499153977 9.290364583333332  9.753172588832488 11.62109375  C 12.542089678511 13.951822916666668  15.527918781725889 15.247395833333332  18.710659898477157 15.507812500000002  C 18.58206429780034 14.518229166666663  18.51776649746193 13.554687499999996  18.51776649746193 12.617187499999998  C 18.51776649746193 9.127604166666659  19.277284263959388 6.15234375  20.796319796954315 3.691406250000001  C 22.315355329949238 1.2304687500000022  24.15186125211506 0  26.305837563451778 0  C 28.55626057529611 0  30.453045685279186 1.3281250000000022  31.996192893401012 3.984375000000001  C 33.748307952622675 3.437499999999999  35.39593908629441 2.421875000000001  36.93908629441624 0.9375000000000022  C 36.34433164128596 3.93229166666666  35.20304568527919 6.25  33.515228426395936 7.890625000000001  Z " fill-rule="nonzero" fill="#63a103" stroke="none" transform="matrix(1 0 0 1 1288 2478 )" />
  </g>
</svg>