<?xml version="1.0" encoding="utf-8"?>
<svg version="1.1" xmlns:xlink="http://www.w3.org/1999/xlink" width="38px" height="50px" xmlns="http://www.w3.org/2000/svg">
  <g transform="matrix(1 0 0 1 -1211 -2478 )">
    <path d="M 23.477864583333332 30.891927083333336  C 24.71484375 29.264322916666664  25.333333333333332 27.30034722222222  25.333333333333332 25  C 25.333333333333332 22.699652777777775  24.71484375 20.735677083333332  23.477864583333332 19.108072916666668  C 22.240885416666668 17.48046875  20.748263888888893 16.666666666666668  19 16.666666666666668  C 17.25173611111111 16.666666666666668  15.759114583333334 17.48046875  14.522135416666666 19.108072916666668  C 13.28515625 20.735677083333332  12.666666666666666 22.699652777777775  12.666666666666666 25  C 12.666666666666666 27.30034722222222  13.28515625 29.264322916666664  14.522135416666666 30.891927083333336  C 15.759114583333334 32.51953125  17.25173611111111 33.333333333333336  19 33.333333333333336  C 20.748263888888893 33.333333333333336  22.240885416666668 32.51953125  23.477864583333332 30.891927083333336  Z M 25.90234375 15.91796875  C 27.799045138888893 18.413628472222214  28.747395833333332 21.440972222222214  28.747395833333332 25  C 28.747395833333332 28.55902777777778  27.799045138888893 31.58637152777778  25.90234375 34.08203125  C 24.00564236111111 36.57769097222222  21.70486111111111 37.82552083333333  19 37.82552083333333  C 16.29513888888889 37.82552083333333  13.99435763888889 36.57769097222222  12.09765625 34.08203125  C 10.200954861111112 31.58637152777778  9.252604166666668 28.55902777777778  9.252604166666668 25  C 9.252604166666668 21.440972222222214  10.200954861111112 18.413628472222214  12.09765625 15.91796875  C 13.99435763888889 13.422309027777773  16.29513888888889 12.174479166666668  19 12.174479166666668  C 21.70486111111111 12.174479166666668  24.00564236111111 13.422309027777773  25.90234375 15.91796875  Z M 30.751302083333332 9.537760416666668  C 31.196614583333332 10.123697916666668  31.419270833333332 10.828993055555552  31.419270833333332 11.653645833333332  C 31.419270833333332 12.47829861111111  31.196614583333332 13.18359375  30.751302083333332 13.76953125  C 30.305989583333332 14.35546875  29.76996527777778 14.6484375  29.143229166666668 14.6484375  C 28.516493055555557 14.6484375  27.98046875 14.35546875  27.53515625 13.76953125  C 27.08984375 13.18359375  26.8671875 12.47829861111111  26.8671875 11.653645833333332  C 26.8671875 10.828993055555552  27.08984375 10.123697916666668  27.53515625 9.537760416666668  C 27.98046875 8.951822916666668  28.516493055555557 8.658854166666668  29.143229166666668 8.658854166666668  C 29.76996527777778 8.658854166666668  30.305989583333332 8.951822916666668  30.751302083333332 9.537760416666668  Z M 20.892578125 4.475911458333331  C 19.746310763888893 4.486762152777773  19.115451388888893 4.4921875  19 4.4921875  C 18.88454861111111 4.4921875  18.25368923611111 4.486762152777773  17.107421875 4.475911458333331  C 15.96115451388889 4.465060763888884  15.091145833333334 4.465060763888884  14.497395833333334 4.475911458333331  C 13.903645833333334 4.486762152777773  13.107855902777779 4.519314236111111  12.110026041666666 4.573567708333331  C 11.112196180555559 4.627821180555553  10.262803819444446 4.736328125  9.561848958333334 4.899088541666669  C 8.860894097222223 5.061848958333331  8.271267361111112 5.262586805555553  7.79296875 5.501302083333331  C 6.968315972222223 5.935329861111111  6.242621527777778 6.564670138888884  5.615885416666667 7.389322916666669  C 4.989149305555556 8.213975694444443  4.510850694444445 9.168836805555552  4.180989583333334 10.25390625  C 3.9995659722222223 10.883246527777773  3.8470052083333335 11.659071180555552  3.7233072916666665 12.581380208333332  C 3.599609375 13.50368923611111  3.5171440972222223 14.621310763888884  3.4759114583333335 15.934244791666668  C 3.4346788194444446 17.247178819444443  3.4099392361111116 18.294270833333332  3.4016927083333335 19.075520833333332  C 3.3934461805555562 19.856770833333332  3.3934461805555562 21.001519097222214  3.4016927083333335 22.509765625  C 3.4099392361111116 24.018012152777775  3.4140625 24.848090277777775  3.4140625 25  C 3.4140625 25.15190972222222  3.4099392361111116 25.98198784722222  3.4016927083333335 27.490234375  C 3.3934461805555562 28.99848090277778  3.3934461805555562 30.143229166666664  3.4016927083333335 30.924479166666664  C 3.4099392361111116 31.705729166666664  3.4346788194444446 32.75282118055555  3.4759114583333335 34.065755208333336  C 3.5171440972222223 35.37868923611111  3.599609375 36.496310763888886  3.7233072916666665 37.418619791666664  C 3.8470052083333335 38.34092881944444  3.9995659722222223 39.116753472222214  4.180989583333334 39.74609375  C 4.510850694444445 40.83116319444444  4.989149305555556 41.78602430555556  5.615885416666667 42.61067708333333  C 6.242621527777778 43.43532986111111  6.968315972222223 44.06467013888889  7.79296875 44.49869791666667  C 8.271267361111112 44.73741319444444  8.860894097222223 44.93815104166667  9.561848958333334 45.10091145833333  C 10.262803819444446 45.263671875  11.112196180555559 45.37217881944444  12.110026041666666 45.42643229166667  C 13.107855902777779 45.48068576388889  13.903645833333334 45.51323784722223  14.497395833333334 45.52408854166667  C 15.091145833333334 45.53493923611111  15.96115451388889 45.53493923611111  17.107421875 45.52408854166667  C 18.25368923611111 45.51323784722223  18.88454861111111 45.5078125  19 45.5078125  C 19.115451388888893 45.5078125  19.746310763888893 45.51323784722223  20.892578125 45.52408854166667  C 22.03884548611111 45.53493923611111  22.908854166666668 45.53493923611111  23.502604166666668 45.52408854166667  C 24.096354166666668 45.51323784722223  24.892144097222225 45.48068576388889  25.889973958333332 45.42643229166667  C 26.88780381944445 45.37217881944444  27.737196180555557 45.263671875  28.438151041666668 45.10091145833333  C 29.13910590277778 44.93815104166667  29.728732638888893 44.73741319444444  30.20703125 44.49869791666667  C 31.03168402777778 44.06467013888889  31.757378472222225 43.43532986111111  32.38411458333333 42.61067708333333  C 33.01085069444445 41.78602430555556  33.48914930555556 40.83116319444444  33.81901041666667 39.74609375  C 34.00043402777778 39.116753472222214  34.15299479166667 38.34092881944444  34.27669270833333 37.418619791666664  C 34.400390625 36.496310763888886  34.48285590277778 35.37868923611111  34.52408854166667 34.065755208333336  C 34.56532118055556 32.75282118055555  34.59006076388889 31.705729166666664  34.59830729166667 30.924479166666664  C 34.60655381944445 30.143229166666664  34.60655381944445 28.99848090277778  34.59830729166667 27.490234375  C 34.59006076388889 25.98198784722222  34.5859375 25.15190972222222  34.5859375 25  C 34.5859375 24.848090277777775  34.59006076388889 24.018012152777775  34.59830729166667 22.509765625  C 34.60655381944445 21.001519097222214  34.60655381944445 19.856770833333332  34.59830729166667 19.075520833333332  C 34.59006076388889 18.294270833333332  34.56532118055556 17.247178819444443  34.52408854166667 15.934244791666668  C 34.48285590277778 14.621310763888884  34.400390625 13.50368923611111  34.27669270833333 12.581380208333332  C 34.15299479166667 11.659071180555552  34.00043402777778 10.883246527777773  33.81901041666667 10.25390625  C 33.48914930555556 9.168836805555552  33.01085069444445 8.213975694444443  32.38411458333333 7.389322916666669  C 31.757378472222225 6.564670138888884  31.03168402777778 5.935329861111111  30.20703125 5.501302083333331  C 29.728732638888893 5.262586805555553  29.13910590277778 5.061848958333331  28.438151041666668 4.899088541666669  C 27.737196180555557 4.736328125  26.88780381944445 4.627821180555553  25.889973958333332 4.573567708333331  C 24.892144097222225 4.519314236111111  24.096354166666668 4.486762152777773  23.502604166666668 4.475911458333331  C 22.908854166666668 4.465060763888884  22.03884548611111 4.465060763888884  20.892578125 4.475911458333331  Z M 37.87630208333333 14.680989583333332  C 37.95876736111111 16.590711805555554  38 20.030381944444443  38 25  C 38 29.969618055555557  37.95876736111111 33.40928819444444  37.87630208333333 35.319010416666664  C 37.71137152777778 39.83289930555556  36.68880208333333 43.32682291666667  34.80859375 45.80078125  C 32.92838541666667 48.27473958333333  30.273003472222225 49.62022569444444  26.842447916666668 49.83723958333333  C 25.39105902777778 49.94574652777777  22.776909722222225 50  19 50  C 15.223090277777779 50  12.608940972222221 49.94574652777777  11.157552083333334 49.83723958333333  C 7.7269965277777795 49.62022569444444  5.071614583333334 48.27473958333333  3.19140625 45.80078125  C 1.3111979166666667 43.32682291666667  0.28862847222222227 39.83289930555556  0.12369791666666667 35.319010416666664  C 0.04123263888888888 33.40928819444444  0 29.969618055555557  0 25  C 0 20.030381944444443  0.04123263888888888 16.590711805555554  0.12369791666666667 14.680989583333332  C 0.28862847222222227 10.167100694444443  1.3111979166666667 6.673177083333331  3.19140625 4.19921875  C 5.071614583333334 1.7252604166666685  7.7269965277777795 0.37977430555555247  11.157552083333334 0.16276041666666852  C 12.608940972222221 0.05425347222221544  15.223090277777779 0  19 0  C 22.776909722222225 0  25.39105902777778 0.05425347222221544  26.842447916666668 0.16276041666666852  C 30.273003472222225 0.37977430555555247  32.92838541666667 1.7252604166666685  34.80859375 4.19921875  C 36.68880208333333 6.673177083333331  37.71137152777778 10.167100694444443  37.87630208333333 14.680989583333332  Z " fill-rule="nonzero" fill="#63a103" stroke="none" transform="matrix(1 0 0 1 1211 2478 )" />
  </g>
</svg>