<?xml version="1.0" encoding="utf-8"?>
<svg version="1.1" xmlns:xlink="http://www.w3.org/1999/xlink" width="38px" height="50px" xmlns="http://www.w3.org/2000/svg">
  <g transform="matrix(1 0 0 1 -1362 -2478 )">
    <path d="M 7.125 0  L 30.875 0  C 32.837673611111114 0  34.51584201388889 0.9168836805555525  35.90950520833333 2.7506510416666687  C 37.30316840277778 4.584418402777773  38 6.792534722222215  38 9.375  L 38 40.625  C 38 43.20746527777777  37.30316840277778 45.41558159722223  35.90950520833333 47.24934895833333  C 34.51584201388889 49.08311631944444  32.837673611111114 50  30.875 50  L 26 50  L 26 30.631510416666664  L 31.147135416666668 30.631510416666664  L 31.889322916666668 23.079427083333332  L 26.223958333333332 23.079427083333332  L 26.223958333333332 18.26171875  C 26.223958333333332 17.046440972222214  26.417751736111118 16.134982638888886  26.805338541666668 15.52734375  C 27.192925347222225 14.91970486111111  27.947482638888893 14.615885416666668  29.069010416666668 14.615885416666668  L 32.08723958333333 14.583333333333332  L 32.08723958333333 7.845052083333331  C 31.048177083333332 7.649739583333331  29.580295138888893 7.552083333333331  27.68359375 7.552083333333331  C 25.44053819444445 7.552083333333331  23.64691840277778 8.420138888888884  22.302734375 10.15625  C 20.958550347222225 11.89236111111111  20.286458333333332 14.344618055555552  20.286458333333332 17.513020833333332  L 20.286458333333332 23.079427083333332  L 15.338541666666666 23.079427083333332  L 15.338541666666666 30.631510416666664  L 20 30.631510416666664  L 20 50  L 7.125 50  C 5.162326388888889 50  3.4841579861111116 49.08311631944444  2.090494791666667 47.24934895833333  C 0.6968315972222221 45.41558159722223  0 43.20746527777777  0 40.625  L 0 9.375  C 0 6.792534722222215  0.6968315972222221 4.584418402777773  2.090494791666667 2.7506510416666687  C 3.4841579861111116 0.9168836805555525  5.162326388888889 0  7.125 0  Z " fill-rule="nonzero" fill="#63a103" stroke="none" transform="matrix(1 0 0 1 1362 2478 )" />
  </g>
</svg>