<?xml version="1.0" encoding="utf-8"?>
<svg version="1.1" xmlns:xlink="http://www.w3.org/1999/xlink" width="23px" height="27px" xmlns="http://www.w3.org/2000/svg">
  <g transform="matrix(1 0 0 1 -167 -16 )">
    <path d="M 22.95099431818182 20.921164772727273  C 22.983664772727273 21.010653409090907  23 21.14488636363636  23 21.323863636363637  C 23 21.66903409090909  22.945549242424242 22.119673295454543  22.836647727272727 22.67578125  C 22.727746212121215 23.231889204545457  22.613399621212125 23.669744318181817  22.493607954545457 23.98934659090909  C 22.264914772727273 24.628551136363633  21.600615530303035 25.306107954545453  20.500710227272727 26.022017045454543  C 19.477035984848488 26.67400568181818  18.464251893939394 27  17.462357954545457 27  C 17.168323863636363 27  16.87973484848485 26.97762784090909  16.59659090909091 26.932883522727273  C 16.313446969696972 26.888139204545457  16.000355113636367 26.808238636363637  15.657315340909092 26.69318181818182  C 15.31427556818182 26.578125  15.05835700757576 26.48544034090909  14.889559659090908 26.415127840909093  C 14.720762310606062 26.34481534090909  14.418560606060607 26.213778409090907  13.982954545454545 26.022017045454543  C 13.547348484848486 25.83025568181818  13.280539772727275 25.715198863636363  13.182528409090908 25.676846590909093  C 12.115293560606062 25.22940340909091  11.162405303030305 24.698863636363637  10.323863636363637 24.085227272727273  C 8.940814393939394 23.07528409090909  7.503314393939394 21.694602272727273  6.011363636363636 19.94318181818182  C 4.519412878787879 18.19176136363636  3.3432765151515156 16.504261363636367  2.4829545454545454 14.880681818181818  C 1.9602272727272725 13.896306818181817  1.5082859848484849 12.777698863636362  1.1271306818181819 11.524857954545455  C 1.0944602272727273 11.409801136363633  0.9964488636363638 11.096590909090907  0.8330965909090909 10.585227272727273  C 0.6697443181818181 10.073863636363635  0.5581202651515152 9.719105113636362  0.4982244318181819 9.520951704545455  C 0.4383285984848485 9.322798295454543  0.359375 9.022372159090908  0.26136363636363635 8.619673295454545  C 0.16335227272727273 8.216974431818178  0.09528882575757577 7.849431818181817  0.057173295454545456 7.517045454545455  C 0.01905776515151515 7.184659090909088  0 6.845880681818182  0 6.500710227272727  C 0 5.324573863636362  0.27769886363636365 4.1356534090909065  0.8330965909090909 2.9339488636363633  C 1.442945075757576 1.6427556818181777  2.020123106060606 0.8629261363636369  2.564630681818182 0.5944602272727262  C 2.8368844696969697 0.4538352272727252  3.209872159090909 0.3196022727272698  3.68359375 0.1917613636363631  C 4.157315340909091 0.06392045454545336  4.541193181818182 0  4.8352272727272725 0  C 4.9876893939393945 0  5.102035984848485 0.01917613636363691  5.178267045454545 0.05752840909090773  C 5.3742897727272725 0.13423295454545536  5.662878787878788 0.6200284090909087  6.04403409090909 1.5149147727272738  C 6.163825757575758 1.757812499999996  6.327178030303031 2.1029829545454515  6.53409090909091 2.5504261363636367  C 6.741003787878788 2.9978693181818166  6.9315814393939394 3.4037642045454555  7.105823863636364 3.7681107954545445  C 7.280066287878788 4.132457386363637  7.448863636363636 4.474431818181817  7.61221590909091 4.794034090909093  C 7.644886363636364 4.8451704545454515  7.7401751893939394 5.004971590909093  7.898082386363636 5.2734375  C 8.055989583333336 5.541903409090907  8.173058712121213 5.768821022727272  8.249289772727272 5.954190340909093  C 8.325520833333334 6.1395596590909065  8.363636363636363 6.3217329545454515  8.363636363636363 6.500710227272727  C 8.363636363636363 6.756392045454542  8.208451704545455 7.075994318181818  7.898082386363636 7.459517045454545  C 7.587713068181818 7.843039772727273  7.250118371212122 8.194602272727272  6.885298295454546 8.514204545454545  C 6.52047821969697 8.833806818181815  6.1828835227272725 9.172585227272727  5.872514204545454 9.530539772727273  C 5.562144886363636 9.888494318181817  5.4069602272727275 10.182528409090908  5.4069602272727275 10.412642045454545  C 5.4069602272727275 10.527698863636363  5.434185606060606 10.671519886363637  5.488636363636364 10.844105113636363  C 5.543087121212122 11.016690340909092  5.589370265151516 11.147727272727272  5.627485795454545 11.237215909090908  C 5.665601325757576 11.326704545454543  5.741832386363636 11.480113636363637  5.8561789772727275 11.697443181818182  C 5.970525568181818 11.914772727272727  6.0331439393939394 12.036221590909092  6.04403409090909 12.061789772727273  C 6.871685606060606 13.813210227272725  7.819128787878788 15.315340909090907  8.886363636363637 16.56818181818182  C 9.953598484848486 17.821022727272723  11.233191287878789 18.933238636363633  12.725142045454545 19.904829545454547  C 12.746922348484848 19.917613636363633  12.850378787878787 19.99112215909091  13.035511363636363 20.125355113636363  C 13.22064393939394 20.25958806818182  13.35132575757576 20.34907670454545  13.42755681818182 20.393821022727273  C 13.503787878787879 20.43856534090909  13.61541193181818 20.492897727272727  13.762428977272728 20.55681818181818  C 13.909446022727272 20.620738636363633  14.031960227272728 20.652698863636363  14.129971590909092 20.652698863636363  C 14.32599431818182 20.652698863636363  14.576467803030305 20.47052556818182  14.881392045454545 20.106178977272727  C 15.186316287878787 19.741832386363637  15.474905303030306 19.345525568181817  15.747159090909092 18.917258522727273  C 16.01941287878788 18.488991477272723  16.318892045454543 18.09268465909091  16.64559659090909 17.72833806818182  C 16.972301136363637 17.363991477272727  17.244554924242426 17.18181818181818  17.462357954545457 17.18181818181818  C 17.614820075757578 17.18181818181818  17.770004734848488 17.226562499999996  17.92791193181818 17.316051136363637  C 18.08581912878788 17.40553977272727  18.27911931818182 17.542968749999996  18.5078125 17.72833806818182  C 18.73650568181818 17.913707386363633  18.872632575757578 18.02556818181818  18.91619318181818 18.063920454545453  C 19.188446969696972 18.25568181818182  19.479758522727273 18.453835227272723  19.79012784090909 18.65838068181818  C 20.10049715909091 18.862926136363633  20.446259469696972 19.086647727272723  20.827414772727273 19.329545454545453  C 21.208570075757578 19.57244318181818  21.50260416666667 19.764204545454543  21.709517045454543 19.904829545454547  C 22.471827651515152 20.352272727272723  22.88565340909091 20.691051136363637  22.95099431818182 20.921164772727273  Z " fill-rule="nonzero" fill="#63a103" stroke="none" transform="matrix(1 0 0 1 167 16 )" />
  </g>
</svg>