<?xml version="1.0" encoding="utf-8"?>
<svg version="1.1" xmlns:xlink="http://www.w3.org/1999/xlink" width="21px" height="27px" xmlns="http://www.w3.org/2000/svg">
  <g transform="matrix(1 0 0 1 -361 -16 )">
    <path d="M 19.828125 10.374289772727273  C 20.273437500000004 9.875710227272727  20.6640625 9.319602272727273  21 8.705965909090908  L 21 23.93181818181818  C 21 24.77556818181818  20.816406250000004 25.49786931818182  20.44921875 26.098721590909093  C 20.082031250000004 26.69957386363636  19.640625000000004 27  19.125 27  L 1.875 27  C 1.3593750000000002 27  0.9179687500000001 26.69957386363636  0.5507812500000001 26.098721590909093  C 0.18359375000000008 25.49786931818182  0 24.77556818181818  0 23.93181818181818  L 0 8.705965909090908  C 0.3437500000000001 9.332386363636362  0.7382812500000001 9.888494318181815  1.18359375 10.374289772727273  C 4.011718750000001 13.519176136363637  5.953125 15.724431818181818  7.0078125 16.99005681818182  C 7.453125 17.526988636363637  7.814453125000001 17.94566761363636  8.091796875 18.24609375  C 8.369140625 18.546519886363633  8.73828125 18.853338068181817  9.19921875 19.166548295454547  C 9.660156250000002 19.479758522727273  10.08984375 19.636363636363637  10.48828125 19.636363636363637  L 10.5 19.636363636363637  L 10.51171875 19.636363636363637  C 10.910156250000002 19.636363636363637  11.33984375 19.479758522727273  11.80078125 19.166548295454547  C 12.261718750000004 18.853338068181817  12.630859375000004 18.546519886363633  12.908203125 18.24609375  C 13.185546875 17.94566761363636  13.546875 17.526988636363637  13.992187500000002 16.99005681818182  C 15.320312500000002 15.417613636363637  17.265625000000004 13.212357954545455  19.828125 10.374289772727273  Z M 20.443359375 0.9012784090909077  C 20.814453125 1.5021306818181794  21 2.2244318181818183  21 3.0681818181818183  C 21 4.0781249999999964  20.80859375 5.043323863636363  20.42578125 5.963778409090907  C 20.04296875 6.884232954545455  19.566406250000004 7.670454545454545  18.99609375 8.322443181818182  C 16.058593750000004 11.659090909090908  14.230468750000004 13.736505681818183  13.51171875 14.5546875  C 13.433593750000002 14.644176136363637  13.267578125 14.839133522727272  13.013671875 15.13955965909091  C 12.759765625000002 15.439985795454543  12.548828125000004 15.682883522727272  12.380859374999998 15.86825284090909  C 12.212890625 16.053622159090907  12.009765625000002 16.261363636363637  11.771484375 16.491477272727273  C 11.533203125 16.72159090909091  11.30859375 16.894176136363637  11.09765625 17.009232954545453  C 10.88671875 17.124289772727273  10.69140625 17.18181818181818  10.51171875 17.18181818181818  L 10.5 17.18181818181818  L 10.48828125 17.18181818181818  C 10.30859375 17.18181818181818  10.11328125 17.124289772727273  9.90234375 17.009232954545453  C 9.69140625 16.894176136363637  9.466796875 16.72159090909091  9.228515625 16.491477272727273  C 8.990234375 16.261363636363637  8.787109375 16.053622159090907  8.619140625 15.86825284090909  C 8.451171875 15.682883522727272  8.240234375 15.439985795454543  7.986328125 15.13955965909091  C 7.732421875000001 14.839133522727272  7.566406250000002 14.644176136363637  7.488281250000001 14.5546875  C 6.77734375 13.736505681818183  5.75390625 12.569957386363637  4.41796875 11.055042613636363  C 3.08203125 9.54012784090909  2.2812500000000004 8.62926136363636  2.015625 8.322443181818182  C 1.53125 7.78551136363636  1.0742187500000002 7.047230113636363  0.6445312500000001 6.107599431818182  C 0.21484375000000008 5.16796875  0 4.295454545454545  0 3.4900568181818183  C 0 2.492897727272726  0.16210937500000006 1.6619318181818143  0.4863281250000001 0.9971590909090923  C 0.8105468750000002 0.3323863636363611  1.2734375000000002 0  1.875 0  L 19.125 0  C 19.6328125 0  20.072265625 0.3004261363636329  20.443359375 0.9012784090909077  Z " fill-rule="nonzero" fill="#63a103" stroke="none" transform="matrix(1 0 0 1 361 16 )" />
  </g>
</svg>