<?xml version="1.0" encoding="utf-8"?>
<svg version="1.1" xmlns:xlink="http://www.w3.org/1999/xlink" width="27px" height="38px" xmlns="http://www.w3.org/2000/svg">
  <g transform="matrix(1 0 0 1 -108 -14 )">
    <path d="M 26.942471590909093 29.444602272727273  C 26.980823863636363 29.57054924242424  27 29.759469696969692  27 30.011363636363637  C 27 30.49715909090909  26.936079545454547 31.131392045454543  26.808238636363637 31.9140625  C 26.68039772727273 32.69673295454545  26.546164772727273 33.312973484848484  26.405539772727273 33.762784090909086  C 26.137073863636363 34.6624053030303  25.357244318181824 35.61600378787879  24.066051136363637 36.62357954545455  C 22.864346590909093 37.54119318181818  21.675426136363637 38  20.499289772727273 38  C 20.15411931818182 38  19.81534090909091 37.96851325757576  19.482954545454543 37.90553977272727  C 19.150568181818183 37.84256628787879  18.78302556818182 37.73011363636364  18.380326704545457 37.56818181818182  C 17.977627840909093 37.40625  17.677201704545457 37.27580492424242  17.479048295454543 37.17684659090909  C 17.28089488636364 37.07788825757576  16.926136363636367 36.89346590909091  16.414772727272727 36.62357954545455  C 15.903409090909093 36.35369318181818  15.590198863636367 36.19176136363636  15.475142045454545 36.13778409090909  C 14.222301136363638 35.50804924242424  13.103693181818183 34.76136363636364  12.119318181818182 33.89772727272727  C 10.495738636363637 32.47632575757576  8.808238636363637 30.533143939393938  7.056818181818182 28.06818181818182  C 5.3053977272727275 25.603219696969692  3.9247159090909096 23.2282196969697  2.9147727272727275 20.94318181818182  C 2.3011363636363633 19.55776515151515  1.770596590909091 17.983428030303028  1.323153409090909 16.220170454545457  C 1.2848011363636362 16.058238636363633  1.1697443181818183 15.617424242424239  0.9779829545454546 14.897727272727273  C 0.7862215909090908 14.178030303030301  0.6551846590909092 13.678740530303028  0.5848721590909092 13.399857954545455  C 0.5145596590909091 13.120975378787875  0.421875 12.698153409090907  0.3068181818181818 12.131392045454545  C 0.19176136363636362 11.564630681818176  0.11186079545454547 11.047348484848483  0.06711647727272727 10.579545454545455  C 0.02237215909090909 10.11174242424242  0 9.634943181818182  0 9.149147727272727  C 0 7.493844696969695  0.3259943181818182 5.820549242424239  0.9779829545454546 4.129261363636363  C 1.6938920454545456 2.3120265151515094  2.3714488636363638 1.2144886363636371  3.010653409090909 0.8366477272727257  C 3.330255681818182 0.6387310606060577  3.7681107954545454 0.44981060606060197  4.32421875 0.26988636363636287  C 4.880326704545455 0.08996212121211955  5.330965909090909 0  5.676136363636364 0  C 5.855113636363638 0  5.989346590909092 0.02698863636363713  6.078835227272727 0.08096590909090717  C 6.308948863636364 0.1889204545454557  6.6477272727272725 0.8726325757575752  7.095170454545454 2.1321022727272743  C 7.235795454545455 2.4739583333333277  7.427556818181819 2.9597537878787836  7.670454545454546 3.589488636363637  C 7.9133522727272725 4.219223484848483  8.137073863636363 4.790482954545456  8.341619318181818 5.303267045454544  C 8.546164772727273 5.816051136363637  8.744318181818182 6.297348484848483  8.936079545454547 6.747159090909093  C 8.974431818181818 6.819128787878784  9.086292613636363 7.044034090909093  9.271661931818182 7.421875  C 9.457031250000002 7.799715909090907  9.594460227272728 8.119081439393938  9.683948863636363 8.379971590909093  C 9.7734375 8.640861742424239  9.818181818181818 8.897253787878784  9.818181818181818 9.149147727272727  C 9.818181818181818 9.508996212121207  9.636008522727272 9.958806818181818  9.271661931818182 10.498579545454545  C 8.90731534090909 11.038352272727273  8.511008522727273 11.533143939393938  8.082741477272728 11.982954545454545  C 7.654474431818182 12.432765151515147  7.258167613636363 12.909564393939394  6.8938210227272725 13.413352272727273  C 6.529474431818182 13.91714015151515  6.347301136363636 14.330965909090907  6.347301136363636 14.654829545454545  C 6.347301136363636 14.816761363636363  6.379261363636364 15.019176136363637  6.443181818181818 15.262073863636363  C 6.507102272727273 15.504971590909093  6.56143465909091 15.689393939393938  6.606178977272727 15.815340909090907  C 6.650923295454547 15.941287878787875  6.740411931818182 16.15719696969697  6.874644886363637 16.46306818181818  C 7.008877840909091 16.768939393939394  7.082386363636364 16.939867424242426  7.095170454545454 16.975852272727273  C 8.066761363636363 19.44081439393939  9.178977272727273 21.55492424242424  10.431818181818182 23.31818181818182  C 11.684659090909092 25.08143939393939  13.186789772727275 26.6467803030303  14.938210227272727 28.014204545454547  C 14.963778409090908 28.032196969696965  15.085227272727273 28.13565340909091  15.302556818181818 28.324573863636363  C 15.519886363636363 28.51349431818182  15.673295454545457 28.639441287878782  15.762784090909092 28.702414772727273  C 15.852272727272728 28.765388257575758  15.983309659090908 28.84185606060606  16.155894886363637 28.93181818181818  C 16.328480113636363 29.0217803030303  16.472301136363637 29.066761363636363  16.587357954545457 29.066761363636363  C 16.817471590909093 29.066761363636363  17.111505681818183 28.81036931818182  17.469460227272727 28.297585227272727  C 17.827414772727273 27.784801136363637  18.166193181818187 27.22703598484848  18.485795454545457 26.624289772727273  C 18.805397727272727 26.021543560606055  19.156960227272727 25.46377840909091  19.540482954545457 24.95099431818182  C 19.92400568181818 24.438210227272727  20.243607954545457 24.18181818181818  20.499289772727273 24.18181818181818  C 20.67826704545455 24.18181818181818  20.860440340909093 24.244791666666664  21.045809659090907 24.370738636363637  C 21.231178977272727 24.496685606060602  21.458096590909093 24.690104166666664  21.7265625 24.95099431818182  C 21.995028409090907 25.211884469696965  22.15482954545455 25.36931818181818  22.205965909090907 25.423295454545453  C 22.525568181818183 25.69318181818182  22.867542613636363 25.97206439393939  23.231889204545457 26.25994318181818  C 23.596235795454543 26.547821969696965  24.002130681818183 26.86268939393939  24.449573863636363 27.204545454545453  C 24.89701704545455 27.546401515151512  25.242187500000004 27.816287878787875  25.485085227272727 28.014204545454547  C 26.37997159090909 28.64393939393939  26.865767045454543 29.120738636363637  26.942471590909093 29.444602272727273  Z " fill-rule="nonzero" fill="#63a103" stroke="none" transform="matrix(1 0 0 1 108 14 )" />
  </g>
</svg>