<?xml version="1.0" encoding="utf-8"?>
<svg version="1.1" xmlns:xlink="http://www.w3.org/1999/xlink" width="36px" height="29px" xmlns="http://www.w3.org/2000/svg">
  <g transform="matrix(1 0 0 1 -1356 -23 )">
    <path d="M 13.024038461538462 24.509943181818183  C 13.572115384615387 25.03172348484848  13.846153846153847 25.64962121212121  13.846153846153847 26.363636363636363  C 13.846153846153847 27.07765151515152  13.572115384615387 27.695549242424242  13.024038461538462 28.217329545454547  C 12.47596153846154 28.739109848484848  11.826923076923078 29  11.076923076923077 29  C 10.326923076923078 29  9.677884615384617 28.739109848484848  9.129807692307692 28.217329545454547  C 8.581730769230768 27.695549242424242  8.307692307692308 27.07765151515152  8.307692307692308 26.363636363636363  C 8.307692307692308 25.64962121212121  8.581730769230768 25.03172348484848  9.129807692307692 24.509943181818183  C 9.677884615384617 23.988162878787882  10.326923076923078 23.727272727272727  11.076923076923077 23.727272727272727  C 11.826923076923078 23.727272727272727  12.47596153846154 23.988162878787882  13.024038461538462 24.509943181818183  Z M 32.40865384615385 24.509943181818183  C 32.95673076923077 25.03172348484848  33.23076923076923 25.64962121212121  33.23076923076923 26.363636363636363  C 33.23076923076923 27.07765151515152  32.95673076923077 27.695549242424242  32.40865384615385 28.217329545454547  C 31.860576923076923 28.739109848484848  31.211538461538463 29  30.46153846153846 29  C 29.711538461538463 29  29.062500000000004 28.739109848484848  28.514423076923077 28.217329545454547  C 27.966346153846157 27.695549242424242  27.692307692307693 27.07765151515152  27.692307692307693 26.363636363636363  C 27.692307692307693 25.64962121212121  27.966346153846157 25.03172348484848  28.514423076923077 24.509943181818183  C 29.062500000000004 23.988162878787882  29.711538461538463 23.727272727272727  30.46153846153846 23.727272727272727  C 31.211538461538463 23.727272727272727  31.860576923076923 23.988162878787882  32.40865384615385 24.509943181818183  Z M 35.58894230769231 3.027698863636363  C 35.862980769230774 3.288589015151512  36 3.597537878787875  36 3.954545454545454  L 36 14.5  C 36 14.829545454545455  35.88100961538461 15.121330492424244  35.64302884615385 15.375355113636367  C 35.40504807692308 15.62937973484848  35.11298076923077 15.776988636363633  34.76682692307692 15.818181818181817  L 12.180288461538462 18.33096590909091  C 12.367788461538463 19.154829545454547  12.461538461538462 19.635416666666664  12.461538461538462 19.772727272727273  C 12.461538461538462 19.99242424242424  12.288461538461538 20.431818181818183  11.942307692307692 21  L 31.846153846153847 21  C 32.22115384615385 21.09090909090909  32.54567307692308 21.221354166666664  32.81971153846154 21.482244318181817  C 33.09375 21.74313446969697  33.23076923076923 22.052083333333336  33.23076923076923 22.40909090909091  C 33.23076923076923 22.76609848484848  33.09375 23.075047348484848  32.81971153846154 23.3359375  C 32.54567307692308 23.596827651515152  32.22115384615385 23.727272727272727  31.846153846153847 23.727272727272727  L 9.692307692307692 23.727272727272727  C 9.317307692307693 23.727272727272727  8.992788461538462 23.596827651515152  8.71875 23.3359375  C 8.444711538461538 23.075047348484848  8.307692307692308 22.76609848484848  8.307692307692308 22.40909090909091  C 8.307692307692308 22.258049242424242  8.365384615384615 22.04178503787879  8.48076923076923 21.760298295454547  C 8.596153846153847 21.4788115530303  8.711538461538462 21.23165246212121  8.826923076923077 21.018821022727273  C 8.942307692307693 20.80598958333333  9.09735576923077 20.53136837121212  9.292067307692308 20.194957386363633  C 9.486778846153847 19.858546401515145  9.598557692307693 19.656013257575758  9.627403846153847 19.587357954545453  L 5.798076923076923 2.636363636363637  L 1.3846153846153846 2.636363636363637  C 1.0096153846153848 2.636363636363637  0.685096153846154 2.505918560606058  0.4110576923076923 2.2450284090909083  C 0.13701923076923075 1.984138257575756  0 1.6751893939393931  0 1.318181818181817  C 0 0.9611742424242408  0.13701923076923075 0.6522253787878748  0.4110576923076923 0.39133522727272874  C 0.685096153846154 0.13044507575757303  1.0096153846153848 0  1.3846153846153846 0  L 6.923076923076923 0  C 7.153846153846154 0  7.359375 0.04462594696969502  7.539663461538462 0.1338778409090915  C 7.719951923076924 0.22312973484848475  7.860576923076924 0.32954545454545425  7.961538461538462 0.453125  C 8.0625 0.5767045454545457  8.15625 0.7449100378787833  8.242788461538462 0.9577414772727287  C 8.329326923076925 1.1705729166666645  8.387019230769232 1.3490767045454541  8.415865384615385 1.4932528409090915  C 8.44471153846154 1.6374289772727288  8.484375 1.8399621212121189  8.53485576923077 2.100852272727271  C 8.58533653846154 2.3617424242424203  8.617788461538462 2.54024621212121  8.632211538461538 3  L 34.61538461538461 3  C 34.99038461538462 2.636363636363637  35.31490384615385 2.76680871212121  35.58894230769231 3.027698863636363  Z " fill-rule="nonzero" fill="#63a103" stroke="none" transform="matrix(1 0 0 1 1356 23 )" />
  </g>
</svg>