<?xml version="1.0" encoding="utf-8"?>
<svg version="1.1" xmlns:xlink="http://www.w3.org/1999/xlink" width="63px" height="54px" xmlns="http://www.w3.org/2000/svg">
  <g transform="matrix(1 0 0 1 -133 -51 )">
    <path d="M 164.5 51  C 182.14 51  196 62.879999999999995  196 78  C 196 93.12  182.14 105  164.5 105  C 146.85999999999999 105  133 93.12  133 78  C 133 62.879999999999995  146.85999999999999 51  164.5 51  Z " fill-rule="nonzero" fill="#ffffff" stroke="none" />
    <path d="M 164.5 51.5  C 181.86 51.5  195.5 63.16  195.5 78  C 195.5 92.84  181.86 104.5  164.5 104.5  C 147.14 104.5  133.5 92.84  133.5 78  C 133.5 63.16  147.14 51.5  164.5 51.5  Z " stroke-width="1" stroke="#ebebeb" fill="none" />
  </g>
</svg>