<?xml version="1.0" encoding="utf-8"?>
<svg version="1.1" xmlns:xlink="http://www.w3.org/1999/xlink" width="63px" height="54px" xmlns="http://www.w3.org/2000/svg">
  <g transform="matrix(1 0 0 1 0 -49 )">
    <path d="M 31.5 49  C 49.14 49  63 60.879999999999995  63 76  C 63 91.12  49.14 103  31.5 103  C 13.859999999999998 103  0 91.12  0 76  C 0 60.879999999999995  13.859999999999998 49  31.5 49  Z " fill-rule="nonzero" fill="#ffffff" stroke="none" />
    <path d="M 31.5 49.5  C 48.86 49.5  62.5 61.16  62.5 76  C 62.5 90.84  48.86 102.5  31.5 102.5  C 14.139999999999999 102.5  0.5 90.84  0.5 76  C 0.5 61.16  14.139999999999999 49.5  31.5 49.5  Z " stroke-width="1" stroke="#333333" fill="none" />
  </g>
</svg>