<?xml version="1.0" encoding="utf-8"?>
<svg version="1.1" xmlns:xlink="http://www.w3.org/1999/xlink" width="63px" height="54px" xmlns="http://www.w3.org/2000/svg">
  <g transform="matrix(1 0 0 1 -67 -41 )">
    <path d="M 98.5 41  C 116.14 41  130 52.879999999999995  130 68  C 130 83.12  116.14 95  98.5 95  C 80.86 95  67 83.12  67 68  C 67 52.879999999999995  80.86 41  98.5 41  Z " fill-rule="nonzero" fill="#ffffff" stroke="none" />
    <path d="M 98.5 41.5  C 115.86 41.5  129.5 53.16  129.5 68  C 129.5 82.84  115.86 94.5  98.5 94.5  C 81.14 94.5  67.5 82.84  67.5 68  C 67.5 53.16  81.14 41.5  98.5 41.5  Z " stroke-width="1" stroke="#717171" fill="none" />
  </g>
</svg>