<?xml version="1.0" encoding="utf-8"?>
<svg version="1.1" xmlns:xlink="http://www.w3.org/1999/xlink" width="33px" height="31px" xmlns="http://www.w3.org/2000/svg">
  <g transform="matrix(1 0 0 1 -21 -807 )">
    <path d="M 32.22222222222222 23.17171717171717  C 32.74074074074074 23.65881032547699  33 24.250280583613915  33 24.946127946127945  C 33 25.641975308641978  32.74074074074074 26.233445566778897  32.22222222222222 26.72053872053872  L 28.444444444444443 30.26936026936027  C 27.92592592592593 30.756453423120092  27.296296296296298 31  26.555555555555557 31  C 25.814814814814817 31  25.185185185185187 30.756453423120092  24.666666666666668 30.26936026936027  L 16.5 22.5976430976431  L 8.333333333333334 30.26936026936027  C 7.814814814814816 30.756453423120092  7.185185185185185 31  6.444444444444445 31  C 5.703703703703704 31  5.074074074074074 30.756453423120092  4.555555555555556 30.26936026936027  L 0.7777777777777778 26.72053872053872  C 0.2592592592592595 26.233445566778897  0 25.641975308641978  0 24.946127946127945  C 0 24.250280583613915  0.2592592592592595 23.65881032547699  0.7777777777777778 23.17171717171717  L 8.944444444444445 15.5  L 0.7777777777777778 7.828282828282827  C 0.2592592592592595 7.341189674523005  0 6.749719416386084  0 6.053872053872054  C 0 5.3580246913580245  0.2592592592592595 4.766554433221096  0.7777777777777778 4.27946127946128  L 4.555555555555556 0.7306397306397308  C 5.074074074074074 0.2435465768799091  5.703703703703704 0  6.444444444444445 0  C 7.185185185185185 0  7.814814814814816 0.2435465768799091  8.333333333333334 0.7306397306397308  L 16.5 8.402356902356903  L 24.666666666666668 0.7306397306397308  C 25.185185185185187 0.2435465768799091  25.814814814814817 0  26.555555555555557 0  C 27.296296296296298 0  27.92592592592593 0.2435465768799091  28.444444444444443 0.7306397306397308  L 32.22222222222222 4.27946127946128  C 32.74074074074074 4.766554433221096  33 5.3580246913580245  33 6.053872053872054  C 33 6.749719416386084  32.74074074074074 7.341189674523005  32.22222222222222 7.828282828282827  L 24.055555555555554 15.5  L 32.22222222222222 23.17171717171717  Z " fill-rule="nonzero" fill="#aaaaaa" stroke="none" transform="matrix(1 0 0 1 21 807 )" />
  </g>
</svg>