<?xml version="1.0" encoding="utf-8"?>
<svg version="1.1" xmlns:xlink="http://www.w3.org/1999/xlink" width="100px" height="88px" xmlns="http://www.w3.org/2000/svg">
  <g transform="matrix(1 0 0 1 -565 -946 )">
    <path d="M 46.63677130044843 66  L 49.775784753363226 66  L 56.27802690582959 58.75  L 47.75784753363229 49.24999999999999  L 41.25560538116592 56.5  L 41.25560538116592 60.00000000000001  L 46.63677130044843 60.00000000000001  L 46.63677130044843 66  Z M 74.38340807174887 23.0625  C 75.01868460388641 22.354166666666657  75.0373692077728 21.666666666666657  74.43946188340807 21  C 73.84155455904336 20.333333333333325  73.22496263079223 20.354166666666657  72.58968609865471 21.062500000000004  L 52.97085201793722 42.9375  C 52.3355754857997 43.645833333333336  52.3168908819133 44.33333333333332  52.91479820627802 45  C 53.512705530642755 45.666666666666664  54.12929745889387 45.64583333333332  54.7645739910314 44.93750000000001  L 74.38340807174887 23.0625  Z M 77.80269058295964 56.3125  C 78.55007473841556 56.64583333333332  78.9237668161435 57.25000000000001  79 58.125  L 79 70  C 78.9237668161435 74.95833333333333  77.3449177877429 79.19791666666667  74.1872197309417 82.71875  C 71.02952167414051 86.23958333333333  67.2272047832586 88  62.78026905829597 88  L 16.143497757847534 88  C 11.696562032884904 88  7.8942451420029895 86.23958333333333  4.736547085201794 82.71875  C 1.5788490284005978 79.19791666666667  0 74.95833333333333  0 70  L 0 18.000000000000004  C 0 13.041666666666657  1.5788490284005978 8.802083333333329  4.736547085201794 5.2812500000000036  C 7.8942451420029895 1.760416666666658  11.696562032884904 0  16.143497757847534 0  L 62.78026905829597 0  C 65.13452914798206 0  67.32062780269058 0.5208333333333286  69.33856502242153 1.5624999999999956  C 69.89910313901345 1.8541666666666607  70.2354260089686 2.3333333333333313  70.347533632287 2.9999999999999973  C 70.45964125560538 3.7083333333333313  70.2914798206278 4.312499999999996  69.84304932735425 4.8125  L 67.0964125560538 7.874999999999999  C 66.57324364723468 8.458333333333329  65.97533632286996 8.625  65.30269058295964 8.375000000000004  C 64.44319880418536 8.124999999999996  63.60239162929746 8.000000000000004  62.78026905829597 8  L 16.143497757847534 8  C 13.67713004484305 8.000000000000004  11.565769805680121 8.979166666666657  9.809417040358746 10.937499999999998  C 8.053064275037372 12.895833333333329  7.174887892376682 15.250000000000004  8 18.000000000000004  L 8 70  C 7.174887892376682 72.75  8.053064275037372 75.10416666666666  9.809417040358746 77.0625  C 11.565769805680121 79.02083333333333  13.67713004484305 80  16.143497757847534 80  L 62.78026905829597 80  C 65.24663677130044 80  67.35799701046338 79.02083333333333  69.11434977578476 77.0625  C 70.87070254110614 75.10416666666666  71.74887892376681 72.75  71.74887892376681 70  L 71.74887892376681 62.12500000000001  C 71.74887892376681 61.58333333333333  71.9170403587444 61.125  72.25336322869956 60.75000000000001  L 75.84080717488789 56.75  C 76.40134529147981 56.12499999999999  77.05530642750375 55.979166666666664  77.80269058295964 56.3125  Z M 36 54  L 73.54260089686099 12  L 89.68609865470853 30.000000000000004  L 52.01793721973094 72  L 36 72  L 36 54  Z M 100 15.999999999999996  C 100 17.66666666666666  99.47683109118087 19.08333333333333  98.4304932735426 20.25  L 93.27354260089686 25.999999999999996  L 77.13004484304933 8.000000000000004  L 82.28699551569507 2.2499999999999956  C 83.33333333333334 1.083333333333325  84.60388639760838 0.5000000000000044  86.09865470852019 0.5000000000000044  C 87.593423019432 0.5000000000000044  88.86397608370703 1.083333333333325  89.91031390134529 2.2499999999999956  L 98.4304932735426 11.750000000000002  C 99.47683109118087 12.916666666666654  100 14.33333333333333  100 15.999999999999996  Z " fill-rule="nonzero" fill="#63a103" stroke="none" transform="matrix(1 0 0 1 565 946 )" />
  </g>
</svg>