<?xml version="1.0" encoding="utf-8"?>
<svg version="1.1" xmlns:xlink="http://www.w3.org/1999/xlink" width="87px" height="95px" xmlns="http://www.w3.org/2000/svg">
  <g transform="matrix(1 0 0 1 -1093 -959 )">
    <path d="M 31.08025568181818 78.61002604166667  C 31.45099431818182 78.23893229166667  31.636363636363637 77.76475694444444  32 77.1875  L 32 33.64583333333333  C 31.636363636363637 33.06857638888889  31.45099431818182 32.59440104166667  31.08025568181818 32.22330729166667  C 30.709517045454543 31.85221354166667  30.23579545454546 31.66666666666667  29.659090909090907 31.66666666666667  L 25.704545454545457 31.66666666666667  C 25.127840909090914 31.66666666666667  24.654119318181824 31.85221354166667  24.28338068181818 32.22330729166667  C 23.912642045454543 32.59440104166667  23.727272727272727 33.06857638888889  24 33.64583333333333  L 24 77.1875  C 23.727272727272727 77.76475694444444  23.912642045454543 78.23893229166667  24.28338068181818 78.61002604166667  C 24.654119318181824 78.98111979166667  25.127840909090914 79.16666666666667  25.704545454545457 79.16666666666667  L 29.659090909090907 79.16666666666667  C 30.23579545454546 79.16666666666667  30.709517045454543 78.98111979166667  31.08025568181818 78.61002604166667  Z M 46.8984375 78.61002604166667  C 47.26917613636364 78.23893229166667  47.45454545454545 77.76475694444444  47 77.1875  L 47 33.64583333333333  C 47.45454545454545 33.06857638888889  47.26917613636364 32.59440104166667  46.8984375 32.22330729166667  C 46.52769886363636 31.85221354166667  46.05397727272728 31.66666666666667  45.47727272727273 31.66666666666667  L 41.52272727272727 31.66666666666667  C 40.946022727272734 31.66666666666667  40.47230113636364 31.85221354166667  40.1015625 32.22330729166667  C 39.73082386363636 32.59440104166667  39.54545454545455 33.06857638888889  40 33.64583333333333  L 40 77.1875  C 39.54545454545455 77.76475694444444  39.73082386363636 78.23893229166667  40.1015625 78.61002604166667  C 40.47230113636364 78.98111979166667  40.946022727272734 79.16666666666667  41.52272727272727 79.16666666666667  L 45.47727272727273 79.16666666666667  C 46.05397727272728 79.16666666666667  46.52769886363636 78.98111979166667  46.8984375 78.61002604166667  Z M 62.71661931818181 78.61002604166667  C 63.08735795454545 78.23893229166667  63.27272727272727 77.76475694444444  63 77.1875  L 63 33.64583333333333  C 63.27272727272727 33.06857638888889  63.08735795454545 32.59440104166667  62.71661931818181 32.22330729166667  C 62.34588068181819 31.85221354166667  61.87215909090909 31.66666666666667  61.29545454545455 31.66666666666667  L 57.340909090909086 31.66666666666667  C 56.76420454545455 31.66666666666667  56.29048295454545 31.85221354166667  55.91974431818181 32.22330729166667  C 55.54900568181819 32.59440104166667  55.36363636363636 33.06857638888889  55 33.64583333333333  L 55 77.1875  C 55.36363636363636 77.76475694444444  55.54900568181819 78.23893229166667  55.91974431818181 78.61002604166667  C 56.29048295454545 78.98111979166667  56.76420454545455 79.16666666666667  57.340909090909086 79.16666666666667  L 61.29545454545455 79.16666666666667  C 61.87215909090909 79.16666666666667  62.34588068181819 78.98111979166667  62.71661931818181 78.61002604166667  Z M 32.68678977272727 8.59700520833333  L 29.659090909090907 16  L 57.340909090909086 16  L 54.375 8.59700520833333  C 54.08664772727274 8.22591145833333  53.73650568181818 7.999131944444439  53.32457386363636 8  L 33.73721590909091 8  C 33.32528409090909 7.999131944444439  32.975142045454554 8.22591145833333  32.68678977272727 8.59700520833333  Z M 86.44389204545455 16.38997395833333  C 86.81463068181819 16.76106770833333  87 17.23524305555555  87 17.8125  L 87 21.77083333333333  C 87 22.348090277777768  86.81463068181819 22.822265625  86.44389204545455 23.193359375  C 86.0731534090909 23.564453125  85.59943181818183 23.75  85.02272727272728 23.75  L 79 23.75  L 79 82.3828125  C 79.0909090909091 85.80512152777777  78.12286931818183 88.76356336805556  76.18678977272728 91.25813802083333  C 74.25071022727273 93.75271267361111  71.92329545454545 95  69.20454545454545 95  L 17.795454545454547 95  C 15.076704545454547 95  12.749289772727275 93.7939453125  10.813210227272727 91.3818359375  C 8.877130681818183 88.9697265625  7.909090909090909 86.05251736111111  8 82.63020833333333  L 8 23.75  L 1.9772727272727273 23.75  C 1.4005681818181819 23.75  0.9268465909090909 23.564453125  0.5561079545454546 23.193359375  C 0.18536931818181818 22.822265625  0 22.348090277777768  0 21.77083333333333  L 0 17.8125  C 0 17.23524305555555  0.18536931818181818 16.76106770833333  0.5561079545454546 16.38997395833333  C 0.9268465909090909 16.01888020833333  1.4005681818181819 15.83333333333333  1.9772727272727273 16  L 21.0703125 16  L 25.395596590909093 5.5045572916666705  C 26.013494318181824 3.9789496527777697  27.12571022727273 2.6801215277777697  28.73224431818182 1.60807291666667  C 30.33877840909091 0.5360243055555497  31.96590909090909 0  33.61363636363636 0  L 53.38636363636364 0  C 55.03409090909092 0  56.661221590909086 0.5360243055555497  58.26775568181819 1.60807291666667  C 59.87428977272727 2.6801215277777697  60.98650568181819 3.9789496527777697  61.604403409090914 5.5045572916666705  L 65.9296875 16  L 85.02272727272728 16  C 85.59943181818183 15.83333333333333  86.0731534090909 16.01888020833333  86.44389204545455 16.38997395833333  Z " fill-rule="nonzero" fill="#63a103" stroke="none" transform="matrix(1 0 0 1 1093 959 )" />
  </g>
</svg>