<?xml version="1.0" encoding="utf-8"?>
<svg version="1.1" xmlns:xlink="http://www.w3.org/1999/xlink" width="27px" height="27px" xmlns="http://www.w3.org/2000/svg">
  <g transform="matrix(1 0 0 1 -1351 -17 )">
    <path d="M 10.985969387755103 24.690234375  C 10.974489795918368 24.767578125  10.985969387755103 24.8625  11.020408163265307 24.975  C 11.020408163265307 25.03125  11.026147959183675 25.171875  11.037627551020407 25.396875  C 11.049107142857144 25.621875  11.051977040816327 25.808203125  11.04623724489796 25.955859375  C 11.040497448979593 26.103515625  11.023278061224492 26.26875  10.994579081632653 26.4515625  C 10.965880102040817 26.634375000000002  10.908482142857142 26.771484375  10.822385204081632 26.862890625  C 10.736288265306122 26.954296875  10.618622448979593 27  10.46938775510204 27  L 4.959183673469388 27  C 3.5931122448979598 27  2.4250637755102042 26.405859375  1.4550382653061225 25.217578125  C 0.4850127551020408 24.029296875  0 22.5984375  0 20.925  L 0 6.074999999999999  C 0 4.401562499999995  0.4850127551020408 2.970703124999999  1.4550382653061225 1.7824218750000007  C 2.4250637755102042 0.5941406249999962  3.5931122448979598 0  4.959183673469388 0  L 10.46938775510204 0  C 10.618622448979593 0  10.747767857142858 0.0667968749999962  10.856823979591837 0.2003906250000006  C 10.965880102040817 0.333984374999999  11.020408163265307 0.492187499999999  11.020408163265307 0.6750000000000006  C 11.020408163265307 0.7312499999999974  11.026147959183675 0.8718749999999984  11.037627551020407 1.0968750000000007  C 11.049107142857144 1.3218749999999968  11.051977040816327 1.5082031250000012  11.04623724489796 1.6558593749999988  C 11.040497448979593 1.8035156249999993  11.023278061224492 1.9687499999999991  10.994579081632653 2.1515625000000007  C 10.965880102040817 2.334374999999996  10.908482142857142 2.4714843749999975  10.822385204081632 2.5628906250000014  C 10.736288265306122 2.654296874999999  10.618622448979593 2.6999999999999993  10.46938775510204 2.6999999999999993  L 4.959183673469388 2.6999999999999993  C 4.201530612244898 2.6999999999999993  3.5529336734693886 3.0304687499999954  3.013392857142857 3.69140625  C 2.4738520408163267 4.352343749999998  2.204081632653061 5.146875000000001  2.204081632653061 6.074999999999999  L 2.204081632653061 20.925  C 2.204081632653061 21.853125  2.4738520408163267 22.647656249999997  3.013392857142857 23.30859375  C 3.5529336734693886 23.96953125  4.201530612244898 24.3  4.959183673469388 24.3  L 9.918367346938776 24.3  L 10.107780612244897 24.3  L 10.331632653061224 24.3  C 10.331632653061224 24.3  10.39764030612245 24.307031249999998  10.529655612244897 24.32109375  C 10.661670918367347 24.33515625  10.727678571428571 24.35625  10.727678571428571 24.384375  C 10.727678571428571 24.412499999999998  10.773596938775512 24.451171875  10.865433673469386 24.500390625  C 10.957270408163266 24.549609375  10.997448979591837 24.612890625  10.985969387755103 24.690234375  Z M 26.67283163265306 12.55078125  C 26.89094387755102 12.81796875  27 13.134375  27 13.5  C 27 13.865624999999998  26.89094387755102 14.182031249999998  26.67283163265306 14.44921875  L 17.305484693877553 25.92421875  C 17.087372448979593 26.19140625  16.82908163265306 26.325  16.53061224489796 26.325  C 16.23214285714286 26.325  15.973852040816327 26.19140625  15.755739795918368 25.92421875  C 15.53762755102041 25.65703125  15.428571428571427 25.340625  15.428571428571427 24.975  L 15.428571428571427 18.9  L 7.7142857142857135 18.9  C 7.415816326530612 18.9  7.157525510204082 18.76640625  6.939413265306123 18.49921875  C 6.721301020408163 18.23203125  6.612244897959184 17.915625  6.612244897959184 17.55  L 6.612244897959184 9.45  C 6.612244897959184 9.084374999999996  6.721301020408163 8.767968749999996  6.939413265306123 8.50078125  C 7.157525510204082 8.233593749999999  7.415816326530612 8.100000000000001  7.7142857142857135 8.100000000000001  L 15.428571428571427 8.100000000000001  L 15.428571428571427 2.0249999999999986  C 15.428571428571427 1.6593749999999956  15.53762755102041 1.3429687499999956  15.755739795918368 1.0757812499999988  C 15.973852040816327 0.808593749999999  16.23214285714286 0.6750000000000006  16.53061224489796 0.6750000000000006  C 16.82908163265306 0.6750000000000006  17.087372448979593 0.808593749999999  17.305484693877553 1.0757812499999988  L 26.67283163265306 12.55078125  Z " fill-rule="nonzero" fill="#63a103" stroke="none" transform="matrix(1 0 0 1 1351 17 )" />
  </g>
</svg>