<?xml version="1.0" encoding="utf-8"?>
<svg version="1.1" xmlns:xlink="http://www.w3.org/1999/xlink" width="37px" height="26px" xmlns="http://www.w3.org/2000/svg">
  <g transform="matrix(1 0 0 1 -330 -20 )">
    <path d="M 34.93526785714286 9.99005681818182  C 35.71986607142858 9.50994318181818  36.40811011904762 8.97443181818182  37 8.383522727272727  L 37 23.045454545454547  C 37 23.857954545454547  36.67652529761905 24.55350378787879  36.02957589285714 25.132102272727273  C 35.38262648809524 25.710700757575754  34.60491071428572 26  33.69642857142857 26  L 3.303571428571429 26  C 2.395089285714286 26  1.617373511904762 25.710700757575754  0.9704241071428573 25.132102272727273  C 0.3234747023809525 24.55350378787879  0 23.857954545454547  0 23.045454545454547  L 0 8.383522727272727  C 0.6056547619047621 8.986742424242422  1.3007812500000002 9.522253787878784  2.0853794642857144 9.99005681818182  C 7.06826636904762 13.01846590909091  10.488839285714285 15.142045454545455  12.347098214285715 16.360795454545453  C 13.131696428571429 16.87784090909091  13.76832217261905 17.281013257575754  14.256975446428571 17.5703125  C 14.745628720238097 17.85961174242424  15.396019345238097 18.15506628787879  16.20814732142857 18.45667613636364  C 17.02027529761905 18.758285984848484  17.77734375 18.90909090909091  18.47935267857143 18.90909090909091  L 18.5 18.90909090909091  L 18.52064732142857 18.90909090909091  C 19.222656250000004 18.90909090909091  19.979724702380953 18.758285984848484  20.79185267857143 18.45667613636364  C 21.60398065476191 18.15506628787879  22.25437127976191 17.85961174242424  22.74302455357143 17.5703125  C 23.231677827380953 17.281013257575754  23.86830357142857 16.87784090909091  24.65290178571429 16.360795454545453  C 26.99293154761905 14.84659090909091  30.42038690476191 12.723011363636365  34.93526785714286 9.99005681818182  Z M 36.01925223214286 0.867897727272726  C 36.673084077380956 1.44649621212121  37 2.142045454545455  37 2.954545454545455  C 37 3.9270833333333295  36.66276041666667 4.85653409090909  35.98828125 5.742897727272726  C 35.313802083333336 6.629261363636364  34.4741443452381 7.386363636363636  33.469308035714285 8.014204545454545  C 28.29371279761905 11.227272727272727  25.07273065476191 13.227746212121213  23.806361607142858 14.015625  C 23.66871279761905 14.101799242424242  23.376209077380953 14.289535984848484  22.92885044642857 14.578835227272728  C 22.481491815476193 14.868134469696969  22.10984002976191 15.102035984848484  21.81389508928571 15.280539772727272  C 21.517950148809522 15.459043560606059  21.16006324404762 15.65909090909091  20.740234375 15.88068181818182  C 20.320405505952383 16.10227272727273  19.92466517857143 16.26846590909091  19.553013392857142 16.37926136363636  C 19.181361607142858 16.49005681818182  18.837239583333336 16.545454545454547  18.52064732142857 16.545454545454547  L 18.5 16.545454545454547  L 18.47935267857143 16.545454545454547  C 18.162760416666668 16.545454545454547  17.818638392857142 16.49005681818182  17.446986607142858 16.37926136363636  C 17.07533482142857 16.26846590909091  16.67959449404762 16.10227272727273  16.259765625 15.88068181818182  C 15.839936755952381 15.65909090909091  15.482049851190476 15.459043560606059  15.186104910714285 15.280539772727272  C 14.890159970238097 15.102035984848484  14.51850818452381 14.868134469696969  14.071149553571429 14.578835227272728  C 13.62379092261905 14.289535984848484  13.331287202380954 14.101799242424242  13.193638392857144 14.015625  C 11.941034226190476 13.227746212121213  10.137834821428571 12.10440340909091  7.784040178571428 10.64559659090909  C 5.430245535714286 9.186789772727272  4.019345238095239 8.309659090909088  3.551339285714286 8.014204545454545  C 2.697916666666667 7.497159090909087  1.8926711309523814 6.78622159090909  1.1356026785714288 5.881392045454545  C 0.37853422619047633 4.9765625  0 4.136363636363636  0 3.360795454545455  C 0 2.4005681818181808  0.2856212797619049 1.6003787878787843  0.8568638392857144 0.960227272727274  C 1.4281063988095242 0.3200757575757551  2.243675595238096 0  3.303571428571429 0  L 33.69642857142857 0  C 34.591145833333336 0  35.365420386904766 0.2892992424242391  36.01925223214286 0.867897727272726  Z " fill-rule="nonzero" fill="#63a103" stroke="none" transform="matrix(1 0 0 1 330 20 )" />
  </g>
</svg>