<?xml version="1.0" encoding="utf-8"?>
<svg version="1.1" xmlns:xlink="http://www.w3.org/1999/xlink" width="27px" height="27px" xmlns="http://www.w3.org/2000/svg">
  <g transform="matrix(1 0 0 1 -1353 -23 )">
    <path d="M 9.768028846153847 22.819602272727273  C 10.17908653846154 23.305397727272723  10.384615384615385 23.880681818181817  10.384615384615385 24.545454545454543  C 10.384615384615385 25.210227272727277  10.17908653846154 25.785511363636367  9.768028846153847 26.27130681818182  C 9.356971153846155 26.757102272727273  8.870192307692308 27  8.307692307692308 27  C 7.745192307692308 27  7.258413461538463 26.757102272727273  6.847355769230769 26.27130681818182  C 6.436298076923077 25.785511363636367  6.230769230769231 25.210227272727277  6.230769230769231 24.545454545454543  C 6.230769230769231 23.880681818181817  6.436298076923077 23.305397727272723  6.847355769230769 22.819602272727273  C 7.258413461538463 22.33380681818182  7.745192307692308 22.09090909090909  8.307692307692308 22.09090909090909  C 8.870192307692308 22.09090909090909  9.356971153846155 22.33380681818182  9.768028846153847 22.819602272727273  Z M 24.306490384615383 22.819602272727273  C 24.717548076923073 23.305397727272723  24.923076923076923 23.880681818181817  24.923076923076923 24.545454545454543  C 24.923076923076923 25.210227272727277  24.717548076923073 25.785511363636367  24.306490384615383 26.27130681818182  C 23.895432692307693 26.757102272727273  23.408653846153847 27  22.846153846153847 27  C 22.283653846153847 27  21.796875000000004 26.757102272727273  21.385817307692307 26.27130681818182  C 20.974759615384617 25.785511363636367  20.76923076923077 25.210227272727277  20.76923076923077 24.545454545454543  C 20.76923076923077 23.880681818181817  20.974759615384617 23.305397727272723  21.385817307692307 22.819602272727273  C 21.796875000000004 22.33380681818182  22.283653846153847 22.09090909090909  22.846153846153847 22.09090909090909  C 23.408653846153847 22.09090909090909  23.895432692307693 22.33380681818182  24.306490384615383 22.819602272727273  Z M 26.69170673076923 2.8188920454545445  C 26.89723557692308 3.06178977272727  27 3.3494318181818143  27 3.6818181818181817  L 27 13.5  C 27 13.806818181818182  26.910757211538463 14.078480113636365  26.732271634615383 14.314985795454547  C 26.553786057692307 14.551491477272725  26.334735576923077 14.688920454545453  26.075120192307693 14.727272727272727  L 9.135216346153847 17.066761363636363  C 9.275841346153847 17.83380681818182  9.346153846153847 18.281249999999996  9.346153846153847 18.40909090909091  C 9.346153846153847 18.61363636363636  9.216346153846153 19.022727272727273  8.956730769230768 19.636363636363637  L 23.884615384615383 19.636363636363637  C 24.165865384615387 19.636363636363637  24.40925480769231 19.757812499999996  24.614783653846153 20.000710227272727  C 24.820312499999996 20.243607954545453  24.923076923076923 20.531250000000004  24.923076923076923 20.863636363636363  C 24.923076923076923 21.196022727272723  24.820312499999996 21.483664772727273  24.614783653846153 21.7265625  C 24.40925480769231 21.969460227272727  24.165865384615387 22.09090909090909  23.884615384615383 22  L 7.269230769230769 22  C 6.98798076923077 22.09090909090909  6.744591346153846 21.969460227272727  6.5390625 21.7265625  C 6.333533653846154 21.483664772727273  6.230769230769231 21.196022727272723  6.230769230769231 20.863636363636363  C 6.230769230769231 20.723011363636367  6.274038461538461 20.521661931818183  6.360576923076923 20.25958806818182  C 6.447115384615385 19.997514204545453  6.533653846153846 19.767400568181817  6.6201923076923075 19.56924715909091  C 6.70673076923077 19.371093749999996  6.823016826923077 19.115411931818183  6.969050480769231 18.802201704545453  C 7.115084134615385 18.488991477272723  7.19891826923077 18.300426136363633  7.220552884615385 18.23650568181818  L 4.3485576923076925 2.4545454545454555  L 1.0384615384615385 2.4545454545454555  C 0.7572115384615385 2.4545454545454555  0.5138221153846154 2.333096590909088  0.3082932692307692 2.0901988636363633  C 0.10276442307692307 1.847301136363635  0 1.5596590909090904  0 1.2272727272727262  C 0 0.8948863636363621  0.10276442307692307 0.6072443181818145  0.3082932692307692 0.36434659090909227  C 0.5138221153846154 0.12144886363636109  0.7572115384615385 0  1.0384615384615385 0  L 5.1923076923076925 0  C 5.365384615384616 0  5.51953125 0.04154829545454364  5.654747596153846 0.12464488636363691  C 5.789963942307693 0.20774147727272718  5.895432692307693 0.30681818181818155  5.971153846153846 0.421875  C 6.046875 0.5369318181818185  6.1171875 0.6935369318181775  6.182091346153846 0.8916903409090923  C 6.246995192307693 1.089843749999998  6.290264423076924 1.2560369318181817  6.311899038461538 1.390269886363637  C 6.333533653846154 1.5245028409090922  6.36328125 1.7130681818181794  6.401141826923077 1.9559659090909078  C 6.439002403846154 2.198863636363633  6.463341346153847 2.3650568181818166  6.474158653846154 2.4545454545454555  L 25.961538461538463 2.4545454545454555  C 26.242788461538463 2.4545454545454555  26.486177884615387 2.5759943181818166  26.69170673076923 2.8188920454545445  Z " fill-rule="nonzero" fill="#63a103" stroke="none" transform="matrix(1 0 0 1 1353 23 )" />
  </g>
</svg>