<?xml version="1.0" encoding="utf-8"?>
<svg version="1.1" xmlns:xlink="http://www.w3.org/1999/xlink" width="23px" height="34px" xmlns="http://www.w3.org/2000/svg">
  <g transform="matrix(1 0 0 1 -830 -1059 )">
    <path d="M 18.64373536299766 21.233389168062534  C 19.052205308352853 19.885538805136797  19.256440281030446 18.47124511446119  19.256440281030446 16.990508096035732  C 19.256440281030446 15.509771077610273  19.052205308352853 14.095477386934672  18.64373536299766 12.747627024008935  C 18.23526541764247 11.399776661083193  17.68315768930523 10.235436441466588  16.98741217798595 9.254606365159129  C 16.291666666666668 8.273776288851664  15.465749414519907 7.495440163781869  14.509660421545668 6.91959798994975  C 13.553571428571429 6.34375581611762  12.550351288056207 6.055834729201565  11.5 6.055834729201565  C 10.449648711943794 6.055834729201565  9.446428571428571 6.34375581611762  8.490339578454332 6.91959798994975  C 7.534250585480094 7.495440163781869  6.708333333333334 8.273776288851664  6.012587822014051 9.254606365159129  C 5.316842310694771 10.235436441466588  4.7647345823575336 11.399776661083193  4.356264637002342 12.747627024008935  C 3.947794691647151 14.095477386934672  3.743559718969555 15.509771077610273  3.743559718969555 16.990508096035732  C 3.743559718969555 18.47124511446119  3.947794691647151 19.885538805136797  4.356264637002342 21.233389168062534  C 4.7647345823575336 22.581239530988274  5.316842310694771 23.745579750604875  6.012587822014051 24.726409826912338  C 6.708333333333334 25.707239903219804  7.534250585480094 26.4855760282896  8.490339578454332 27.061418202121722  C 9.446428571428571 27.63726037595384  10.449648711943794 27.925181462869904  11.5 27.925181462869904  C 12.550351288056207 27.925181462869904  13.553571428571429 27.63726037595384  14.509660421545668 27.061418202121722  C 15.465749414519907 26.4855760282896  16.291666666666668 25.707239903219804  16.98741217798595 24.726409826912338  C 17.68315768930523 23.745579750604875  18.23526541764247 22.581239530988274  18.64373536299766 21.233389168062534  Z M 22.9192037470726 21.698492462311556  C 23 21.85036292573981  23.017954722872755 22.033873069048948  22.973067915690866 22.249022892238973  C 22.93715846994536 22.43886097152429  22.847384855581577 22.56541969104783  22.70374707259953 22.628699050809605  L 18.771662763466043 24.45114461194863  L 18.771662763466043 30.260189838079285  C 18.771662763466043 30.46268378931696  18.71330991412959 30.62721012469756  18.596604215456672 30.753768844221106  C 18.461943793911004 30.88032756374465  18.33177205308353 30.90563930764936  18.206088992974237 30.829704075935233  L 14.27400468384075 29.04522613065327  L 11.850117096018735 33.75321049692909  C 11.76034348165496 33.9177368323097  11.643637782982045 34  11.5 34  C 11.356362217017956 34  11.239656518345043 33.9177368323097  11.149882903981265 33.75321049692909  L 8.72599531615925 29.04522613065327  L 4.793911007025761 30.829704075935233  C 4.668227946916471 30.90563930764936  4.538056206088993 30.88032756374465  4.403395784543325 30.753768844221106  C 4.286690085870414 30.62721012469756  4.228337236533958 30.46268378931696  4.228337236533958 30.260189838079285  L 4.228337236533958 24.45114461194863  L 0.2962529274004684 22.628699050809605  C 0.15261514441842303 22.56541969104783  0.06284153005464478 22.43886097152429  0.026932084309133488 22.249022892238973  C -0.017954722872755596 22.033873069048948  0 21.85036292573981  0.08079625292740047 21.698492462311556  L 2.5046838407494145 16.990508096035732  L 0.08079625292740047 12.28252372975991  C 0 12.117997394379302  -0.017954722872755596 11.934487251070161  0.026932084309133488 11.731993299832496  C 0.06284153005464478 11.54215522054718  0.15261514441842303 11.415596501023636  0.2962529274004684 11.352317141261867  L 4.228337236533958 9.529871580122835  L 4.228337236533958 3.7208263539921833  C 4.228337236533958 3.5183324027545106  4.286690085870414 3.353806067373902  4.403395784543325 3.227247347850361  C 4.538056206088993 3.100688628326817  4.668227946916471 3.0753768844221088  4.793911007025761 3.151312116136237  L 8.72599531615925 4.9357900614182  L 11.149882903981265 0.22780569514237703  C 11.230679156908666 0.07593523171412442  11.347384855581579 0  11.5 0  C 11.652615144418423 0  11.769320843091336 0.07593523171412442  11.850117096018735 0.22780569514237703  L 14.27400468384075 4.9357900614182  L 18.206088992974237 3.151312116136237  C 18.33177205308353 3.0753768844221088  18.461943793911004 3.100688628326817  18.596604215456672 3.227247347850361  C 18.71330991412959 3.353806067373902  18.771662763466043 3.5183324027545106  18.771662763466043 3.7208263539921833  L 18.771662763466043 9.529871580122835  L 22.70374707259953 11.352317141261867  C 22.847384855581577 11.415596501023636  22.93715846994536 11.54215522054718  22.973067915690866 11.731993299832496  C 23.017954722872755 11.934487251070161  23 12.117997394379302  22.9192037470726 12.28252372975991  L 20.495316159250585 16.990508096035732  L 22.9192037470726 21.698492462311556  Z " fill-rule="nonzero" fill="#63a103" stroke="none" transform="matrix(1 0 0 1 830 1059 )" />
  </g>
</svg>