<?xml version="1.0" encoding="utf-8"?>
<svg version="1.1" xmlns:xlink="http://www.w3.org/1999/xlink" width="23px" height="34px" xmlns="http://www.w3.org/2000/svg">
  <g transform="matrix(1 0 0 1 -830 -837 )">
    <path d="M 10.65771484375 27.22078804347826  C 11.21923828125 26.643342391304348  11.5 25.94655797101449  11.5 25.130434782608695  C 11.5 24.57608695652174  11.350260416666668 24.04483695652174  11.05078125 23.536684782608695  C 11.035807291666668 23.52128623188406  10.919759114583334 23.348052536231883  10.70263671875 23.016983695652172  C 10.485514322916668 22.685914855072465  10.294596354166668 22.393342391304348  10.1298828125 22.139266304347828  C 9.965169270833334 21.885190217391305  9.777994791666668 21.546422101449274  9.568359375 21.12296195652174  C 9.358723958333334 20.699501811594203  9.201497395833334 20.3106884057971  9.0966796875 19.956521739130434  C 9.036783854166668 19.710144927536227  8.879557291666668 19.58695652173913  8.625 19.58695652173913  C 8.370442708333334 19.58695652173913  8.213216145833334 19.710144927536227  8.1533203125 19.956521739130434  C 8.048502604166668 20.3106884057971  7.891276041666668 20.699501811594203  7.681640625 21.12296195652174  C 7.472005208333334 21.546422101449274  7.284830729166668 21.885190217391305  7.1201171875 22.139266304347828  C 6.955403645833334 22.393342391304348  6.764485677083334 22.685914855072465  6.54736328125 23.016983695652172  C 6.330240885416668 23.348052536231883  6.214192708333334 23.52128623188406  6.19921875 23.536684782608695  C 5.899739583333334 24.04483695652174  5.75 24.57608695652174  5.75 25.130434782608695  C 5.75 25.94655797101449  6.03076171875 26.643342391304348  6.59228515625 27.22078804347826  C 7.15380859375 27.798233695652172  7.831380208333334 28.08695652173913  8.625 28.08695652173913  C 9.418619791666668 28.08695652173913  10.09619140625 27.798233695652172  10.65771484375 27.22078804347826  Z M 21.1806640625 15.822010869565217  C 22.3935546875 17.777626811594203  23 19.894927536231883  23 22.17391304347826  C 23 25.438405797101446  21.876953125 28.22554347826087  19.630859375 30.535326086956523  C 17.384765625 32.84510869565217  14.674479166666668 34  11.5 34  C 8.325520833333334 34  5.615234375000001 32.84510869565217  3.369140625 30.535326086956523  C 1.123046875 28.22554347826087  0 25.438405797101446  0 22.17391304347826  C 0 19.941123188405797  0.6064453125 17.823822463768114  1.8193359375 15.822010869565217  C 1.9091796875 15.683423913043477  2.377115885416667 14.986639492753621  3.22314453125 13.731657608695652  C 4.069173177083334 12.476675724637682  4.825358072916667 11.314085144927535  5.49169921875 10.243885869565217  C 6.158040364583334 9.173686594202895  6.902994791666668 7.803215579710143  7.7265625 6.132472826086955  C 8.550130208333336 4.461730072463764  9.171549479166668 2.9103260869565224  9.5908203125 1.4782608695652164  C 9.7255859375 1.0163043478260858  9.980143229166668 0.6544384057970982  10.3544921875 0.3926630434782612  C 10.728841145833336 0.13088768115941662  11.110677083333336 0  11.5 0  C 11.889322916666668 0  12.27490234375 0.13088768115941662  12.65673828125 0.3926630434782612  C 13.03857421875 0.6544384057970982  13.289388020833336 1.0163043478260858  13.4091796875 1.4782608695652164  C 13.828450520833336 2.9103260869565224  14.449869791666668 4.461730072463764  15.2734375 6.132472826086955  C 16.097005208333336 7.803215579710143  16.841959635416668 9.173686594202895  17.50830078125 10.243885869565217  C 18.174641927083336 11.314085144927535  18.930826822916668 12.476675724637682  19.77685546875 13.731657608695652  C 20.622884114583336 14.986639492753621  21.0908203125 15.683423913043477  21.1806640625 15.822010869565217  Z " fill-rule="nonzero" fill="#63a103" stroke="none" transform="matrix(1 0 0 1 830 837 )" />
  </g>
</svg>