<?xml version="1.0" encoding="utf-8"?>
<svg version="1.1" xmlns:xlink="http://www.w3.org/1999/xlink" width="23px" height="34px" xmlns="http://www.w3.org/2000/svg">
  <g transform="matrix(1 0 0 1 -830 -1282 )">
    <path d="M 13.5888671875 23.412946428571427  C 14.112955729166668 24.045386904761905  14.375 24.741071428571427  14.375 25.5  C 14.375 26.51190476190476  13.955729166666668 27.37202380952381  13.1171875 28.080357142857146  C 12.278645833333336 28.788690476190474  11.260416666666668 29.142857142857146  10.0625 29.142857142857146  C 8.864583333333334 29.142857142857146  7.846354166666668 28.788690476190474  7.0078125 28.080357142857146  C 6.169270833333334 27.37202380952381  5.75 26.51190476190476  5.75 25.5  C 5.75 24.741071428571427  6.012044270833334 24.045386904761905  6.5361328125 23.412946428571427  C 7.060221354166668 22.780505952380953  7.756510416666668 22.331473214285715  9 22.065848214285715  L 9 9.714285714285714  L 11.5 9.714285714285714  L 11.5 22.065848214285715  C 12.368489583333336 22.331473214285715  13.064778645833336 22.780505952380953  13.5888671875 23.412946428571427  Z M 15.14990234375 29.797433035714285  C 16.549967447916664 28.614769345238095  17.25 27.182291666666668  17.25 25.5  C 17.25 24.526041666666668  16.995442708333332 23.61532738095238  16.486328125 22.767857142857146  C 15.977213541666668 21.920386904761905  15.2734375 21.212053571428573  14 20.642857142857146  L 14 6.071428571428573  C 14.375 5.059523809523807  13.955729166666668 4.199404761904762  13.1171875 3.4910714285714275  C 12.278645833333336 2.782738095238093  11.260416666666668 2.4285714285714275  10.0625 2.4285714285714275  C 8.864583333333334 2.4285714285714275  7.846354166666668 2.782738095238093  7.0078125 3.4910714285714275  C 6.169270833333334 4.199404761904762  5.75 5.059523809523807  6 6.071428571428573  L 6 20.642857142857146  C 4.8515625 21.212053571428573  4.147786458333334 21.920386904761905  3.638671875 22.767857142857146  C 3.129557291666667 23.61532738095238  2.875 24.526041666666668  2.875 25.5  C 2.875 27.182291666666668  3.575032552083334 28.614769345238095  4.97509765625 29.797433035714285  C 6.375162760416668 30.980096726190474  8.070963541666668 31.571428571428573  10.0625 31.571428571428573  C 12.054036458333336 31.571428571428573  13.749837239583336 30.980096726190474  15.14990234375 29.797433035714285  Z M 17 19.561383928571427  C 19.166666666666668 21.218377976190474  20.125 23.19791666666666  20.125 25.5  C 20.125 27.84002976190476  19.140462239583336 29.841703869047617  17.17138671875 31.505022321428573  C 15.202311197916668 33.168340773809526  12.832682291666668 34  10.0625 34  C 7.292317708333332 34  4.922688802083334 33.168340773809526  2.95361328125 31.505022321428573  C 0.9845377604166665 29.841703869047617  0 27.84002976190476  0 25.5  C 0 23.19791666666666  0.9583333333333333 21.218377976190474  3 19.561383928571427  L 3 6.071428571428573  C 2.875 4.389136904761903  3.575032552083334 2.956659226190476  4.97509765625 1.7739955357142863  C 6.375162760416668 0.5913318452380967  8.070963541666668 0  10.0625 0  C 12.054036458333336 0  13.749837239583336 0.5913318452380967  15.14990234375 1.7739955357142863  C 16.549967447916664 2.956659226190476  17.25 4.389136904761903  17 6.071428571428573  L 17 19.561383928571427  Z M 18.6875 14.571428571428573  L 23 14.571428571428573  L 23 17  L 18.6875 17  L 18.6875 14.571428571428573  Z M 18.6875 9.714285714285714  L 23 9.714285714285714  L 23 12.14285714285714  L 18.6875 12.14285714285714  L 18.6875 9.714285714285714  Z M 18.6875 4.8571428571428585  L 23 4.8571428571428585  L 23 7.2857142857142865  L 18.6875 7.2857142857142865  L 18.6875 4.8571428571428585  Z " fill-rule="nonzero" fill="#63a103" stroke="none" transform="matrix(1 0 0 1 830 1282 )" />
  </g>
</svg>