<?xml version="1.0" encoding="utf-8"?>
<svg version="1.1" xmlns:xlink="http://www.w3.org/1999/xlink" width="27px" height="34px" xmlns="http://www.w3.org/2000/svg">
  <g transform="matrix(1 0 0 1 -847 -1240 )">
    <path d="M 15.9521484375 23.412946428571427  C 16.5673828125 24.045386904761905  16.875 24.741071428571427  16.875 25.5  C 16.875 26.51190476190476  16.3828125 27.37202380952381  15.3984375 28.080357142857146  C 14.414062500000002 28.788690476190474  13.218750000000002 29.142857142857146  11.8125 29.142857142857146  C 10.40625 29.142857142857146  9.210937500000002 28.788690476190474  8.2265625 28.080357142857146  C 7.242187500000001 27.37202380952381  6.75 26.51190476190476  6.75 25.5  C 6.75 24.741071428571427  7.057617187500001 24.045386904761905  7.6728515625 23.412946428571427  C 8.288085937500002 22.780505952380953  9.105468750000002 22.331473214285715  10.125 22.065848214285715  L 10.125 9.714285714285714  L 13 9.714285714285714  L 13 22.065848214285715  C 14.519531250000002 22.331473214285715  15.336914062500002 22.780505952380953  15.9521484375 23.412946428571427  Z M 17.78466796875 29.797433035714285  C 19.428222656249996 28.614769345238095  20.25 27.182291666666668  20.25 25.5  C 20.25 24.526041666666668  19.951171875 23.61532738095238  19.353515625 22.767857142857146  C 18.755859375 21.920386904761905  17.9296875 21.212053571428573  16.875 20.642857142857146  L 16.875 6.071428571428573  C 16.875 5.059523809523807  16.3828125 4.199404761904762  15.3984375 3.4910714285714275  C 14.414062500000002 2.782738095238093  13.218750000000002 2.4285714285714275  11.8125 2.4285714285714275  C 10.40625 2.4285714285714275  9.210937500000002 2.782738095238093  8.2265625 3.4910714285714275  C 7.242187500000001 4.199404761904762  6.75 5.059523809523807  7 6.071428571428573  L 7 20.642857142857146  C 5.6953125 21.212053571428573  4.869140625000001 21.920386904761905  4.271484375 22.767857142857146  C 3.6738281250000004 23.61532738095238  3.375 24.526041666666668  3.375 25.5  C 3.375 27.182291666666668  4.196777343750001 28.614769345238095  5.84033203125 29.797433035714285  C 7.483886718750001 30.980096726190474  9.474609375000002 31.571428571428573  11.8125 31.571428571428573  C 14.150390625000002 31.571428571428573  16.141113281250004 30.980096726190474  17.78466796875 29.797433035714285  Z M 20 19.561383928571427  C 22.5 21.218377976190474  23.625 23.19791666666666  23.625 25.5  C 23.625 27.84002976190476  22.469238281250004 29.841703869047617  20.15771484375 31.505022321428573  C 17.84619140625 33.168340773809526  15.064453125000002 34  11.8125 34  C 8.560546874999998 34  5.778808593750001 33.168340773809526  3.46728515625 31.505022321428573  C 1.1557617187499998 29.841703869047617  0 27.84002976190476  0 25.5  C 0 23.19791666666666  1.125 21.218377976190474  3.375 19.561383928571427  L 3.375 6.071428571428573  C 3.375 4.389136904761903  4.196777343750001 2.956659226190476  5.84033203125 1.7739955357142863  C 7.483886718750001 0.5913318452380967  9.474609375000002 0  11.8125 0  C 14.150390625000002 0  16.141113281250004 0.5913318452380967  17.78466796875 1.7739955357142863  C 19.428222656249996 2.956659226190476  20.25 4.389136904761903  20 6.071428571428573  L 20 19.561383928571427  Z M 21.9375 14.571428571428573  L 27 14.571428571428573  L 27 17  L 21.9375 17  L 21.9375 14.571428571428573  Z M 21.9375 9.714285714285714  L 27 9.714285714285714  L 27 12.14285714285714  L 21.9375 12.14285714285714  L 21.9375 9.714285714285714  Z M 21.9375 4.8571428571428585  L 27 4.8571428571428585  L 27 7.2857142857142865  L 21.9375 7.2857142857142865  L 21.9375 4.8571428571428585  Z " fill-rule="nonzero" fill="#63a103" stroke="none" transform="matrix(1 0 0 1 847 1240 )" />
  </g>
</svg>