<?xml version="1.0" encoding="utf-8"?>
<svg version="1.1" xmlns:xlink="http://www.w3.org/1999/xlink" width="63px" height="48px" xmlns="http://www.w3.org/2000/svg">
  <g transform="matrix(1 0 0 1 -271 -662 )">
    <path d="M 29.381165919282513 36  L 31.358744394618835 36  L 35.455156950672645 32.04545454545455  L 30.08744394618834 26.86363636363636  L 25.99103139013453 30.81818181818182  L 25.99103139013453 32.727272727272734  L 29.381165919282513 32.727272727272734  L 29.381165919282513 36  Z M 46.86154708520179 12.579545454545455  C 47.26177130044844 12.193181818181813  47.27354260089686 11.818181818181813  46.89686098654709 11.454545454545455  C 46.52017937219731 11.090909090909086  46.13172645739911 11.102272727272723  45.731502242152466 11.488636363636365  L 33.37163677130045 23.420454545454547  C 32.971412556053814 23.80681818181818  32.95964125560538 24.181818181818176  33.336322869955154 24.545454545454547  C 33.71300448430494 24.909090909090907  34.10145739910314 24.897727272727266  34.50168161434978 24.51136363636364  L 46.86154708520179 12.579545454545455  Z M 49.01569506726457 30.71590909090909  C 49.4865470852018 30.897727272727266  49.7219730941704 31.22727272727273  49.7219730941704 31.704545454545453  L 49.7219730941704 38.18181818181818  C 49.7219730941704 40.88636363636364  48.72729820627803 43.19886363636364  46.73794843049327 45.11931818181818  C 44.74859865470852 47.03977272727273  42.35313901345292 48  39.55156950672646 48  L 10.170403587443946 48  C 7.368834080717489 48  4.9733744394618835 47.03977272727273  2.98402466367713 45.11931818181818  C 0.9946748878923766 43.19886363636364  0 40.88636363636364  0 38.18181818181818  L 0 9.81818181818182  C 0 7.113636363636358  0.9946748878923766 4.8011363636363615  2.98402466367713 2.88068181818182  C 4.9733744394618835 0.960227272727268  7.368834080717489 0  10.170403587443946 0  L 39.55156950672646 0  C 41.0347533632287 0  42.41199551569507 0.2840909090909065  43.68329596412556 0.8522727272727249  C 44.03643497757847 1.0113636363636331  44.24831838565022 1.2727272727272716  44.31894618834081 1.636363636363635  C 44.389573991031384 2.0227272727272716  44.28363228699551 2.352272727272725  44.00112107623318 2.625  L 42.2707399103139 4.295454545454545  C 41.94114349775785 4.6136363636363615  41.56446188340807 4.704545454545455  41.14069506726457 4.56818181818182  C 40.599215246636774 4.43181818181818  40.0695067264574 4.363636363636365  39.55156950672646 5  L 10.170403587443946 5  C 8.616591928251122 4.363636363636365  7.286434977578477 4.897727272727268  6.179932735426009 5.96590909090909  C 5.073430493273544 7.0340909090909065  4.520179372197309 8.31818181818182  5 9.81818181818182  L 5 38.18181818181818  C 4.520179372197309 39.68181818181818  5.073430493273544 40.96590909090908  6.179932735426009 42.03409090909091  C 7.286434977578477 43.10227272727273  8.616591928251122 43.63636363636363  10.170403587443946 43  L 39.55156950672646 43  C 41.10538116591928 43.63636363636363  42.43553811659193 43.10227272727273  43.542040358744394 42.03409090909091  C 44.64854260089687 40.96590909090908  45.20179372197309 39.68181818181818  45.20179372197309 38.18181818181818  L 45.20179372197309 33.88636363636364  C 45.20179372197309 33.590909090909086  45.307735426008975 33.34090909090909  45.51961883408072 33.13636363636364  L 47.77970852017937 30.954545454545453  C 48.13284753363229 30.61363636363636  48.54484304932736 30.534090909090907  49.01569506726457 30.71590909090909  Z M 22.600896860986545 29.454545454545453  L 46.33183856502242 6.545454545454545  L 56.50224215246637 16.363636363636367  L 32.77130044843049 39  L 22.600896860986545 39  L 22.600896860986545 29.454545454545453  Z M 63 8.727272727272725  C 63 9.636363636363633  62.67040358744395 10.409090909090907  62.011210762331835 11.045454545454545  L 58.762331838565025 14.18181818181818  L 48.591928251121075 4.363636363636365  L 51.84080717488789 1.2272727272727249  C 52.5 0.5909090909090864  53.300448430493276 0.27272727272727515  54.24215246636771 0.27272727272727515  C 55.18385650224216 0.27272727272727515  55.98430493273543 0.5909090909090864  56.643497757847534 1.2272727272727249  L 62.011210762331835 6.40909090909091  C 62.67040358744395 7.045454545454538  63 7.818181818181817  63 8.727272727272725  Z " fill-rule="nonzero" fill="#63a103" stroke="none" transform="matrix(1 0 0 1 271 662 )" />
  </g>
</svg>