<?xml version="1.0" encoding="utf-8"?>
<svg version="1.1" xmlns:xlink="http://www.w3.org/1999/xlink" width="40px" height="50px" xmlns="http://www.w3.org/2000/svg">
  <g transform="matrix(1 0 0 1 -1271 -1708 )">
    <path d="M 24.713541666666664 30.891927083333336  C 26.015625 29.264322916666664  26.666666666666664 27.30034722222222  26.666666666666664 25  C 26.666666666666664 22.699652777777775  26.015625 20.735677083333332  24.713541666666664 19.108072916666668  C 23.411458333333336 17.48046875  21.840277777777782 16.666666666666668  20 16.666666666666668  C 18.15972222222222 16.666666666666668  16.588541666666668 17.48046875  15.286458333333332 19.108072916666668  C 13.984375 20.735677083333332  13.333333333333332 22.699652777777775  13.333333333333332 25  C 13.333333333333332 27.30034722222222  13.984375 29.264322916666664  15.286458333333332 30.891927083333336  C 16.588541666666668 32.51953125  18.15972222222222 33.333333333333336  20 33.333333333333336  C 21.840277777777782 33.333333333333336  23.411458333333336 32.51953125  24.713541666666664 30.891927083333336  Z M 27.265625 15.91796875  C 29.262152777777782 18.413628472222214  30.260416666666664 21.440972222222214  30.260416666666664 25  C 30.260416666666664 28.55902777777778  29.262152777777782 31.58637152777778  27.265625 34.08203125  C 25.26909722222222 36.57769097222222  22.84722222222222 37.82552083333333  20 37.82552083333333  C 17.15277777777778 37.82552083333333  14.730902777777779 36.57769097222222  12.734375 34.08203125  C 10.737847222222223 31.58637152777778  9.739583333333334 28.55902777777778  9.739583333333334 25  C 9.739583333333334 21.440972222222214  10.737847222222223 18.413628472222214  12.734375 15.91796875  C 14.730902777777779 13.422309027777773  17.15277777777778 12.174479166666668  20 12.174479166666668  C 22.84722222222222 12.174479166666668  25.26909722222222 13.422309027777773  27.265625 15.91796875  Z M 32.369791666666664 9.537760416666668  C 32.838541666666664 10.123697916666668  33.072916666666664 10.828993055555552  33.072916666666664 11.653645833333332  C 33.072916666666664 12.47829861111111  32.838541666666664 13.18359375  32.369791666666664 13.76953125  C 31.901041666666664 14.35546875  31.336805555555557 14.6484375  30.677083333333336 14.6484375  C 30.01736111111111 14.6484375  29.453125 14.35546875  28.984375 13.76953125  C 28.515625 13.18359375  28.28125 12.47829861111111  28.28125 11.653645833333332  C 28.28125 10.828993055555552  28.515625 10.123697916666668  28.984375 9.537760416666668  C 29.453125 8.951822916666668  30.01736111111111 8.658854166666668  30.677083333333336 8.658854166666668  C 31.336805555555557 8.658854166666668  31.901041666666664 8.951822916666668  32.369791666666664 9.537760416666668  Z M 21.9921875 4.475911458333331  C 20.785590277777782 4.486762152777773  20.121527777777782 4.4921875  20 4.4921875  C 19.87847222222222 4.4921875  19.21440972222222 4.486762152777773  18.0078125 4.475911458333331  C 16.80121527777778 4.465060763888884  15.885416666666668 4.465060763888884  15.260416666666668 4.475911458333331  C 14.635416666666668 4.486762152777773  13.797743055555555 4.519314236111111  12.747395833333332 4.573567708333331  C 11.697048611111114 4.627821180555553  10.802951388888891 4.736328125  10.065104166666668 4.899088541666669  C 9.327256944444445 5.061848958333331  8.706597222222223 5.262586805555553  8.203125 5.501302083333331  C 7.3350694444444455 5.935329861111111  6.571180555555555 6.564670138888884  5.911458333333334 7.389322916666669  C 5.251736111111112 8.213975694444443  4.748263888888889 9.168836805555552  4.401041666666667 10.25390625  C 4.210069444444445 10.883246527777773  4.049479166666667 11.659071180555552  3.919270833333333 12.581380208333332  C 3.7890625 13.50368923611111  3.7022569444444446 14.621310763888884  3.658854166666667 15.934244791666668  C 3.615451388888889 17.247178819444443  3.5894097222222228 18.294270833333332  3.580729166666667 19.075520833333332  C 3.5720486111111116 19.856770833333332  3.5720486111111116 21.001519097222214  3.580729166666667 22.509765625  C 3.5894097222222228 24.018012152777775  3.59375 24.848090277777775  3.59375 25  C 3.59375 25.15190972222222  3.5894097222222228 25.98198784722222  3.580729166666667 27.490234375  C 3.5720486111111116 28.99848090277778  3.5720486111111116 30.143229166666664  3.580729166666667 30.924479166666664  C 3.5894097222222228 31.705729166666664  3.615451388888889 32.75282118055555  3.658854166666667 34.065755208333336  C 3.7022569444444446 35.37868923611111  3.7890625 36.496310763888886  3.919270833333333 37.418619791666664  C 4.049479166666667 38.34092881944444  4.210069444444445 39.116753472222214  4.401041666666667 39.74609375  C 4.748263888888889 40.83116319444444  5.251736111111112 41.78602430555556  5.911458333333334 42.61067708333333  C 6.571180555555555 43.43532986111111  7.3350694444444455 44.06467013888889  8.203125 44.49869791666667  C 8.706597222222223 44.73741319444444  9.327256944444445 44.93815104166667  10.065104166666668 45.10091145833333  C 10.802951388888891 45.263671875  11.697048611111114 45.37217881944444  12.747395833333332 45.42643229166667  C 13.797743055555555 45.48068576388889  14.635416666666668 45.51323784722223  15.260416666666668 45.52408854166667  C 15.885416666666668 45.53493923611111  16.80121527777778 45.53493923611111  18.0078125 45.52408854166667  C 19.21440972222222 45.51323784722223  19.87847222222222 45.5078125  20 45.5078125  C 20.121527777777782 45.5078125  20.785590277777782 45.51323784722223  21.9921875 45.52408854166667  C 23.19878472222222 45.53493923611111  24.114583333333336 45.53493923611111  24.739583333333336 45.52408854166667  C 25.364583333333336 45.51323784722223  26.202256944444446 45.48068576388889  27.252604166666664 45.42643229166667  C 28.302951388888893 45.37217881944444  29.19704861111111 45.263671875  29.934895833333336 45.10091145833333  C 30.672743055555557 44.93815104166667  31.293402777777782 44.73741319444444  31.796875 44.49869791666667  C 32.66493055555556 44.06467013888889  33.42881944444444 43.43532986111111  34.088541666666664 42.61067708333333  C 34.74826388888889 41.78602430555556  35.251736111111114 40.83116319444444  35.598958333333336 39.74609375  C 35.78993055555556 39.116753472222214  35.950520833333336 38.34092881944444  36.080729166666664 37.418619791666664  C 36.2109375 36.496310763888886  36.29774305555556 35.37868923611111  36.341145833333336 34.065755208333336  C 36.384548611111114 32.75282118055555  36.41059027777778 31.705729166666664  36.419270833333336 30.924479166666664  C 36.42795138888889 30.143229166666664  36.42795138888889 28.99848090277778  36.419270833333336 27.490234375  C 36.41059027777778 25.98198784722222  36.40625 25.15190972222222  36.40625 25  C 36.40625 24.848090277777775  36.41059027777778 24.018012152777775  36.419270833333336 22.509765625  C 36.42795138888889 21.001519097222214  36.42795138888889 19.856770833333332  36.419270833333336 19.075520833333332  C 36.41059027777778 18.294270833333332  36.384548611111114 17.247178819444443  36.341145833333336 15.934244791666668  C 36.29774305555556 14.621310763888884  36.2109375 13.50368923611111  36.080729166666664 12.581380208333332  C 35.950520833333336 11.659071180555552  35.78993055555556 10.883246527777773  35.598958333333336 10.25390625  C 35.251736111111114 9.168836805555552  34.74826388888889 8.213975694444443  34.088541666666664 7.389322916666669  C 33.42881944444444 6.564670138888884  32.66493055555556 5.935329861111111  31.796875 5.501302083333331  C 31.293402777777782 5.262586805555553  30.672743055555557 5.061848958333331  29.934895833333336 4.899088541666669  C 29.19704861111111 4.736328125  28.302951388888893 4.627821180555553  27.252604166666664 4.573567708333331  C 26.202256944444446 4.519314236111111  25.364583333333336 4.486762152777773  24.739583333333336 4.475911458333331  C 24.114583333333336 4.465060763888884  23.19878472222222 4.465060763888884  21.9921875 4.475911458333331  Z M 39.869791666666664 14.680989583333332  C 39.95659722222222 16.590711805555554  40 20.030381944444443  40 25  C 40 29.969618055555557  39.95659722222222 33.40928819444444  39.869791666666664 35.319010416666664  C 39.69618055555556 39.83289930555556  38.619791666666664 43.32682291666667  36.640625 45.80078125  C 34.661458333333336 48.27473958333333  31.866319444444446 49.62022569444444  28.255208333333336 49.83723958333333  C 26.727430555555557 49.94574652777777  23.975694444444446 50  20 50  C 16.024305555555557 50  13.272569444444445 49.94574652777777  11.744791666666668 49.83723958333333  C 8.133680555555557 49.62022569444444  5.338541666666668 48.27473958333333  3.359375 45.80078125  C 1.3802083333333335 43.32682291666667  0.3038194444444445 39.83289930555556  0.13020833333333334 35.319010416666664  C 0.04340277777777777 33.40928819444444  0 29.969618055555557  0 25  C 0 20.030381944444443  0.04340277777777777 16.590711805555554  0.13020833333333334 14.680989583333332  C 0.3038194444444445 10.167100694444443  1.3802083333333335 6.673177083333331  3.359375 4.19921875  C 5.338541666666668 1.7252604166666685  8.133680555555557 0.37977430555555247  11.744791666666668 0.16276041666666852  C 13.272569444444445 0.05425347222221544  16.024305555555557 0  20 0  C 23.975694444444446 0  26.727430555555557 0.05425347222221544  28.255208333333336 0.16276041666666852  C 31.866319444444446 0.37977430555555247  34.661458333333336 1.7252604166666685  36.640625 4.19921875  C 38.619791666666664 6.673177083333331  39.69618055555556 10.167100694444443  39.869791666666664 14.680989583333332  Z " fill-rule="nonzero" fill="#63a103" stroke="none" transform="matrix(1 0 0 1 1271 1708 )" />
  </g>
</svg>