<?xml version="1.0" encoding="utf-8"?>
<svg version="1.1" xmlns:xlink="http://www.w3.org/1999/xlink" width="40px" height="50px" xmlns="http://www.w3.org/2000/svg">
  <g transform="matrix(1 0 0 1 -1429 -1708 )">
    <path d="M 7.5 0  L 32.5 0  C 34.56597222222223 0  36.33246527777778 0.9168836805555525  37.799479166666664 2.7506510416666687  C 39.26649305555556 4.584418402777773  40 6.792534722222215  40 9.375  L 40 40.625  C 40 43.20746527777777  39.26649305555556 45.41558159722223  37.799479166666664 47.24934895833333  C 36.33246527777778 49.08311631944444  34.56597222222223 50  32.5 50  L 27 50  L 27 30.631510416666664  L 32.786458333333336 30.631510416666664  L 33.567708333333336 23.079427083333332  L 27.604166666666664 23.079427083333332  L 27.604166666666664 18.26171875  C 27.604166666666664 17.046440972222214  27.80815972222223 16.134982638888886  28.216145833333336 15.52734375  C 28.624131944444446 14.91970486111111  29.418402777777782 14.615885416666668  30.598958333333336 14.615885416666668  L 33.776041666666664 14.583333333333332  L 33.776041666666664 7.845052083333331  C 32.682291666666664 7.649739583333331  31.137152777777782 7.552083333333331  29.140625 7.552083333333331  C 26.779513888888893 7.552083333333331  24.891493055555557 8.420138888888884  23.4765625 10.15625  C 22.061631944444446 11.89236111111111  21.354166666666664 14.344618055555552  21.354166666666664 17.513020833333332  L 21.354166666666664 23.079427083333332  L 16.145833333333332 23.079427083333332  L 16.145833333333332 30.631510416666664  L 21 30.631510416666664  L 21 50  L 7.5 50  C 5.434027777777778 50  3.6675347222222228 49.08311631944444  2.2005208333333335 47.24934895833333  C 0.7335069444444443 45.41558159722223  0 43.20746527777777  0 40.625  L 0 9.375  C 0 6.792534722222215  0.7335069444444443 4.584418402777773  2.2005208333333335 2.7506510416666687  C 3.6675347222222228 0.9168836805555525  5.434027777777778 0  7.5 0  Z " fill-rule="nonzero" fill="#63a103" stroke="none" transform="matrix(1 0 0 1 1429 1708 )" />
  </g>
</svg>