<?xml version="1.0" encoding="utf-8"?>
<svg version="1.1" xmlns:xlink="http://www.w3.org/1999/xlink" width="27px" height="27px" xmlns="http://www.w3.org/2000/svg">
  <g transform="matrix(1 0 0 1 -57 -1962 )">
    <path d="M 18.2724609375 12.181640625  C 19.5908203125 11.302734374999998  20.25 10.2421875  20.25 9.000000000000002  C 20.25 7.757812499999998  19.5908203125 6.697265625  18.2724609375 5.818359374999999  C 16.9541015625 4.939453125000001  15.363281250000002 4.499999999999999  13.5 4.499999999999999  C 11.636718750000002 4.499999999999999  10.0458984375 4.939453125000001  8.7275390625 5.818359374999999  C 7.4091796875 6.697265625  6.75 7.757812499999998  6.75 9.000000000000002  C 6.75 10.2421875  7.4091796875 11.302734374999998  8.7275390625 12.181640625  C 10.0458984375 13.060546875000002  11.636718750000002 13.5  13.5 13.5  C 15.363281250000002 13.5  16.9541015625 13.060546875000002  18.2724609375 12.181640625  Z M 23.044921875 2.63671875  C 25.681640625 4.394531249999999  27 6.5156249999999964  27 9.000000000000002  C 27 10.277343749999998  26.7099609375 11.326171875  26.1298828125 12.146484374999998  L 16.5322265625 25.751953125  C 16.2509765625 26.138671875  15.83349609375 26.443359374999996  15.27978515625 26.666015625  C 14.72607421875 26.888671875  14.1328125 27  13.5 27  C 12.8671875 27  12.27392578125 26.888671875  11.72021484375 26.666015625  C 11.16650390625 26.443359374999996  10.7578125 26.138671875  10.494140625 25.751953125  L 0.8701171875 12.146484374999998  C 0.2900390625 11.326171875  0 10.277343749999998  0 9.000000000000002  C 0 6.5156249999999964  1.318359375 4.394531249999999  3.955078125 2.63671875  C 6.591796875000001 0.878906250000001  9.7734375 0  13.5 0  C 17.2265625 0  20.408203125 0.878906250000001  23.044921875 2.63671875  Z " fill-rule="nonzero" fill="#63a103" stroke="none" transform="matrix(1 0 0 1 57 1962 )" />
  </g>
</svg>