<?xml version="1.0" encoding="utf-8"?>
<svg version="1.1" xmlns:xlink="http://www.w3.org/1999/xlink" width="29px" height="28px" xmlns="http://www.w3.org/2000/svg">
  <g transform="matrix(1 0 0 1 -1335 -1158 )">
    <path d="M 21.9765625 25.4275  C 22.197315705128204 25.20583333333333  22.30769230769231 24.94333333333333  22.30769230769231 24.64  C 22.30769230769231 24.33666666666667  22.197315705128204 24.07416666666667  21.9765625 23.8525  C 21.755809294871796 23.63083333333333  21.49439102564103 23.52  21.19230769230769 23.52  C 20.890224358974358 23.52  20.62880608974359 23.63083333333333  20.408052884615387 23.8525  C 20.187299679487182 24.07416666666667  20.076923076923077 24.33666666666667  20.076923076923077 24.64  C 20.076923076923077 24.94333333333333  20.187299679487182 25.20583333333333  20.408052884615387 25.4275  C 20.62880608974359 25.64916666666667  20.890224358974358 25.76  21.19230769230769 25.76  C 21.49439102564103 25.76  21.755809294871796 25.64916666666667  21.9765625 25.4275  Z M 26.438100961538463 25.4275  C 26.658854166666664 25.20583333333333  26.76923076923077 24.94333333333333  26.76923076923077 24.64  C 26.76923076923077 24.33666666666667  26.658854166666664 24.07416666666667  26.438100961538463 23.8525  C 26.21734775641026 23.63083333333333  25.95592948717949 23.52  25.653846153846153 23.52  C 25.35176282051282 23.52  25.090344551282055 23.63083333333333  24.869591346153847 23.8525  C 24.648838141025646 24.07416666666667  24.538461538461537 24.33666666666667  24.538461538461537 24.64  C 24.538461538461537 24.94333333333333  24.648838141025646 25.20583333333333  24.869591346153847 25.4275  C 25.090344551282055 25.64916666666667  25.35176282051282 25.76  25.653846153846153 25.76  C 25.95592948717949 25.76  26.21734775641026 25.64916666666667  26.438100961538463 25.4275  Z M 28.51201923076923 19.53  C 28.837339743589745 19.856666666666662  29 20.25333333333333  29 20.72  L 29 26.32  C 29 26.786666666666665  28.837339743589745 27.183333333333334  28.51201923076923 27.51  C 28.186698717948723 27.83666666666667  27.79166666666667 28  27.326923076923077 28  L 1.6730769230769231 28  C 1.2083333333333335 28  0.8133012820512822 27.83666666666667  0.4879807692307692 27.51  C 0.1626602564102564 27.183333333333334  0 26.786666666666665  0 26.32  L 0 20.72  C 0 20.25333333333333  0.1626602564102564 19.856666666666662  0.4879807692307692 19.53  C 0.8133012820512822 19.203333333333337  1.2083333333333335 19.04  1.6730769230769231 19.04  L 9.114783653846155 19.04  C 9.358774038461538 19.693333333333335  9.768329326923077 20.229999999999997  10.343449519230768 20.650000000000002  C 10.918569711538462 21.07  11.560496794871796 21.28  12.269230769230768 21.28  L 16.73076923076923 21.28  C 17.439503205128204 21.28  18.081430288461537 21.07  18.65655048076923 20.650000000000002  C 19.231670673076923 20.229999999999997  19.641225961538463 19.693333333333335  19.885216346153847 19.04  L 27.326923076923077 19.04  C 27.79166666666667 19.04  28.186698717948723 19.203333333333337  28.51201923076923 19.53  Z M 23.091947115384613 8.1725  C 23.4521233974359 8.522499999999999  23.53345352564103 8.924999999999999  23.3359375 9.379999999999999  C 23.138421474358978 9.846666666666664  22.795673076923077 10.08  22.30769230769231 10.08  L 17.846153846153847 10.08  L 17.846153846153847 17.92  C 17.846153846153847 18.223333333333333  17.735777243589745 18.485833333333332  17.515024038461537 18.707500000000003  C 17.294270833333336 18.929166666666667  17.032852564102566 19.04  16.73076923076923 19.04  L 12.269230769230768 19.04  C 11.967147435897436 19.04  11.705729166666668 18.929166666666667  11.484975961538462 18.707500000000003  C 11.264222756410257 18.485833333333332  11.153846153846155 18.223333333333333  11.153846153846155 17.92  L 11.153846153846155 10.08  L 6.6923076923076925 10.08  C 6.2043269230769225 10.08  5.861578525641026 9.846666666666664  5.6640625 9.379999999999999  C 5.466546474358975 8.924999999999999  5.547876602564103 8.522499999999999  5.908052884615384 8.1725  L 13.715745192307693 0.33249999999999913  C 13.924879807692307 0.11083333333333201  14.186298076923077 0  14.5 0  C 14.813701923076923 0  15.075120192307692 0.11083333333333201  15.284254807692308 0.33249999999999913  L 23.091947115384613 8.1725  Z " fill-rule="nonzero" fill="#63a103" stroke="none" transform="matrix(1 0 0 1 1335 1158 )" />
  </g>
</svg>