<?xml version="1.0" encoding="utf-8"?>
<svg version="1.1" xmlns:xlink="http://www.w3.org/1999/xlink" width="64px" height="50px" xmlns="http://www.w3.org/2000/svg">
  <g transform="matrix(1 0 0 1 -274 -658 )">
    <path d="M 22.863636363636363 41.37369791666667  C 23.136363636363637 41.17838541666667  23.272727272727273 40.92881944444444  24 40.625  L 24 17.708333333333332  C 23.272727272727273 17.40451388888889  23.136363636363637 17.154947916666668  22.863636363636363 16.959635416666668  C 22.59090909090909 16.764322916666668  22.242424242424246 16.666666666666668  21.818181818181817 16.666666666666668  L 18.90909090909091 16.666666666666668  C 18.484848484848488 16.666666666666668  18.13636363636364 16.764322916666668  17.863636363636363 16.959635416666668  C 17.59090909090909 17.154947916666668  17.454545454545453 17.40451388888889  18 17.708333333333332  L 18 40.625  C 17.454545454545453 40.92881944444444  17.59090909090909 41.17838541666667  17.863636363636363 41.37369791666667  C 18.13636363636364 41.56901041666667  18.484848484848488 41.66666666666667  18.90909090909091 41.66666666666667  L 21.818181818181817 41.66666666666667  C 22.242424242424246 41.66666666666667  22.59090909090909 41.56901041666667  22.863636363636363 41.37369791666667  Z M 34.5 41.37369791666667  C 34.77272727272727 41.17838541666667  34.90909090909091 40.92881944444444  35 40.625  L 35 17.708333333333332  C 34.90909090909091 17.40451388888889  34.77272727272727 17.154947916666668  34.5 16.959635416666668  C 34.22727272727273 16.764322916666668  33.87878787878788 16.666666666666668  33.45454545454545 16.666666666666668  L 30.545454545454547 16.666666666666668  C 30.121212121212125 16.666666666666668  29.772727272727273 16.764322916666668  29.5 16.959635416666668  C 29.227272727272727 17.154947916666668  29.09090909090909 17.40451388888889  29 17.708333333333332  L 29 40.625  C 29.09090909090909 40.92881944444444  29.227272727272727 41.17838541666667  29.5 41.37369791666667  C 29.772727272727273 41.56901041666667  30.121212121212125 41.66666666666667  30.545454545454547 41.66666666666667  L 33.45454545454545 41.66666666666667  C 33.87878787878788 41.66666666666667  34.22727272727273 41.56901041666667  34.5 41.37369791666667  Z M 46.13636363636363 41.37369791666667  C 46.40909090909091 41.17838541666667  46.54545454545455 40.92881944444444  46 40.625  L 46 17.708333333333332  C 46.54545454545455 17.40451388888889  46.40909090909091 17.154947916666668  46.13636363636363 16.959635416666668  C 45.86363636363637 16.764322916666668  45.515151515151516 16.666666666666668  45.09090909090909 16.666666666666668  L 42.18181818181818 16.666666666666668  C 41.75757575757576 16.666666666666668  41.40909090909091 16.764322916666668  41.13636363636363 16.959635416666668  C 40.86363636363637 17.154947916666668  40.72727272727273 17.40451388888889  40 17.708333333333332  L 40 40.625  C 40.72727272727273 40.92881944444444  40.86363636363637 41.17838541666667  41.13636363636363 41.37369791666667  C 41.40909090909091 41.56901041666667  41.75757575757576 41.66666666666667  42.18181818181818 41.66666666666667  L 45.09090909090909 41.66666666666667  C 45.515151515151516 41.66666666666667  45.86363636363637 41.56901041666667  46.13636363636363 41.37369791666667  Z M 24.045454545454547 4.524739583333331  L 21.818181818181817 9  L 42.18181818181818 9  L 40 4.524739583333331  C 39.787878787878796 4.329427083333331  39.53030303030303 4.210069444444442  39.22727272727273 5  L 24.818181818181817 5  C 24.515151515151516 4.210069444444442  24.25757575757576 4.329427083333331  24.045454545454547 4.524739583333331  Z M 63.59090909090909 8.626302083333332  C 63.86363636363637 8.821614583333332  64 9.071180555555552  64 9.375  L 64 11.458333333333332  C 64 11.762152777777773  63.86363636363637 12.01171875  63.59090909090909 12.20703125  C 63.31818181818182 12.40234375  62.969696969696976 12.5  62.54545454545455 12.5  L 58 12.5  L 58 43.359375  C 58.18181818181818 45.16059027777777  57.469696969696976 46.71766493055556  56.04545454545455 48.03059895833333  C 54.621212121212125 49.34353298611111  52.90909090909091 50  50.90909090909091 50  L 13.090909090909092 50  C 11.090909090909092 50  9.37878787878788 49.365234375  7.954545454545454 48.095703125  C 6.530303030303031 46.826171875  5.818181818181818 45.29079861111111  6 43.48958333333333  L 6 12.5  L 1.4545454545454546 12.5  C 1.0303030303030303 12.5  0.6818181818181819 12.40234375  0.4090909090909091 12.20703125  C 0.13636363636363635 12.01171875  0 11.762152777777773  0 11.458333333333332  L 0 9.375  C 0 9.071180555555552  0.13636363636363635 8.821614583333332  0.4090909090909091 8.626302083333332  C 0.6818181818181819 8.430989583333332  1.0303030303030303 8.333333333333332  1.4545454545454546 9  L 15.5 9  L 18.681818181818183 2.8971354166666687  C 19.13636363636364 2.0941840277777732  19.954545454545457 1.4105902777777735  21.136363636363637 0.8463541666666685  C 22.31818181818182 0.28211805555555247  23.515151515151516 0  24.727272727272727 0  L 39.27272727272727 0  C 40.48484848484849 0  41.68181818181818 0.28211805555555247  42.86363636363637 0.8463541666666685  C 44.04545454545455 1.4105902777777735  44.86363636363637 2.0941840277777732  45.31818181818182 2.8971354166666687  L 48.5 9  L 62.54545454545455 9  C 62.969696969696976 8.333333333333332  63.31818181818182 8.430989583333332  63.59090909090909 8.626302083333332  Z " fill-rule="nonzero" fill="#63a103" stroke="none" transform="matrix(1 0 0 1 274 658 )" />
  </g>
</svg>