<?xml version="1.0" encoding="utf-8"?>
<svg version="1.1" xmlns:xlink="http://www.w3.org/1999/xlink" width="40px" height="50px" xmlns="http://www.w3.org/2000/svg">
  <g transform="matrix(1 0 0 1 -1351 -1650 )">
    <path d="M 35.27918781725888 7.890625000000001  C 36.85279187817259 7.630208333333332  38.4263959390863 6.979166666666659  40 5.937500000000001  C 38.866328257191206 8.489583333333329  37.49576988155668 10.664062499999998  35.888324873096444 12.460937500000002  C 35.90524534686971 12.825520833333332  35.91370558375635 13.372395833333329  35.91370558375635 14.101562499999998  C 35.91370558375635 17.48697916666666  35.5922165820643 20.865885416666664  34.9492385786802 24.23828125  C 34.30626057529611 27.61067708333333  33.32910321489002 30.846354166666668  32.01776649746193 33.9453125  C 30.706429780033844 37.04427083333333  29.14551607445009 39.78515625  27.33502538071066 42.16796875  C 25.524534686971236 44.55078125  23.341793570219966 46.45182291666667  20.786802030456855 47.87109375  C 18.23181049069374 49.29036458333333  15.499153976311339 50  12.588832487309645 50  C 8.003384094754654 50  3.807106598984771 48.11197916666667  0 44.3359375  C 0.5922165820642981 44.44010416666667  1.2521150592216586 44.4921875  1.9796954314720814 44.4921875  C 5.786802030456855 44.4921875  9.179357021996616 42.6953125  12.157360406091371 39.1015625  C 10.380710659898478 39.049479166666664  8.790186125211507 38.20963541666666  7.385786802030458 36.58203125  C 5.981387478849408 34.95442708333333  5.016920473773267 32.877604166666664  4.49238578680203 30.3515625  C 5.050761421319797 30.481770833333332  5.5668358714044 30.546875  6.040609137055838 30.546875  C 6.768189509306261 30.546875  7.4873096446700504 30.403645833333332  8.197969543147208 30.117187499999996  C 6.302876480541456 29.518229166666664  4.7335025380710665 28.066406249999996  3.489847715736041 25.76171875  C 2.246192893401015 23.45703125  1.624365482233503 20.78125  1.6243654822335025 17.734375000000004  L 1.6243654822335025 17.578125  C 2.7749576988155673 18.567708333333332  4.01015228426396 19.101562499999996  5.32994923857868 19.179687499999996  C 4.213197969543147 18.033854166666664  3.3248730964467006 16.536458333333332  2.66497461928934 14.687499999999998  C 2.00507614213198 12.838541666666659  1.6751269035532994 10.833333333333329  1.6751269035532994 8.671875000000002  C 1.6751269035532994 6.380208333333331  2.047377326565144 4.257812500000002  2.7918781725888326 2.304687500000002  C 4.8392554991539765 6.184895833333331  7.330795262267344 9.290364583333332  10.266497461928934 11.62109375  C 13.202199661590527 13.951822916666668  16.34517766497462 15.247395833333332  19.695431472081218 15.507812500000002  C 19.560067681895095 14.518229166666663  19.492385786802032 13.554687499999996  19.492385786802032 12.617187499999998  C 19.492385786802032 9.127604166666659  20.29187817258883 6.15234375  21.890862944162436 3.691406250000001  C 23.48984771573604 1.2304687500000022  25.423011844331644 0  27.690355329949238 0  C 30.059221658206432 0  32.055837563451774 1.3281250000000022  33.680203045685275 3.984375000000001  C 35.524534686971236 3.437499999999999  37.25888324873096 2.421875000000001  38.88324873096447 0.9375000000000022  C 38.25719120135364 3.93229166666666  37.05583756345178 6.25  35.27918781725888 7.890625000000001  Z " fill-rule="nonzero" fill="#63a103" stroke="none" transform="matrix(1 0 0 1 1351 1650 )" />
  </g>
</svg>