<?xml version="1.0" encoding="utf-8"?>
<svg version="1.1" xmlns:xlink="http://www.w3.org/1999/xlink" width="21px" height="27px" xmlns="http://www.w3.org/2000/svg">
  <g transform="matrix(1 0 0 1 -46 -1729 )">
    <path d="M 14.2119140625 12.181640625  C 15.2373046875 11.302734374999998  15.75 10.2421875  15.75 9.000000000000002  C 15.75 7.757812499999998  15.2373046875 6.697265625  14.2119140625 5.818359374999999  C 13.1865234375 4.939453125000001  11.949218750000002 4.499999999999999  10.5 4.499999999999999  C 9.05078125 4.499999999999999  7.8134765625 4.939453125000001  6.7880859375 5.818359374999999  C 5.7626953125 6.697265625  5.25 7.757812499999998  5.25 9.000000000000002  C 5.25 10.2421875  5.7626953125 11.302734374999998  6.7880859375 12.181640625  C 7.8134765625 13.060546875000002  9.05078125 13.5  10.5 13.5  C 11.949218750000002 13.5  13.1865234375 13.060546875000002  14.2119140625 12.181640625  Z M 17.923828125 2.63671875  C 19.974609375 4.394531249999999  21 6.5156249999999964  21 9.000000000000002  C 21 10.277343749999998  20.7744140625 11.326171875  20.3232421875 12.146484374999998  L 12.8583984375 25.751953125  C 12.6396484375 26.138671875  12.31494140625 26.443359374999996  11.88427734375 26.666015625  C 11.45361328125 26.888671875  10.9921875 27  10.5 27  C 10.0078125 27  9.54638671875 26.888671875  9.11572265625 26.666015625  C 8.68505859375 26.443359374999996  8.3671875 26.138671875  8.162109375 25.751953125  L 0.6767578125 12.146484374999998  C 0.2255859375 11.326171875  0 10.277343749999998  0 9.000000000000002  C 0 6.5156249999999964  1.025390625 4.394531249999999  3.076171875 2.63671875  C 5.126953125000001 0.878906250000001  7.6015625 0  10.5 0  C 13.3984375 0  15.873046875 0.878906250000001  17.923828125 2.63671875  Z " fill-rule="nonzero" fill="#63a103" stroke="none" transform="matrix(1 0 0 1 46 1729 )" />
  </g>
</svg>